<svg xmlns="http://www.w3.org/2000/svg" version="1.1" xmlns:xlink="http://www.w3.org/1999/xlink" xmlns:svgjs="http://svgjs.dev/svgjs" width="1000" height="750" viewBox="0 0 1000 750"><rect width="1000" height="750" fill="#000000"></rect><g transform="matrix(0.834,0,0,0.834,82.49454545454546,115.4193570850203)"><svg viewBox="0 0 396 247" data-background-color="#ffffff" preserveAspectRatio="xMidYMid meet" height="623" width="1000" xmlns="http://www.w3.org/2000/svg" xmlns:xlink="http://www.w3.org/1999/xlink"><g id="tight-bounds" transform="matrix(1,0,0,1,0.2400000000000091,-0.09999999999999432)"><svg viewBox="0 0 395.52 247.2" height="247.2" width="395.52"><g><svg></svg></g><g><svg viewBox="0 0 395.52 247.2" height="247.2" width="395.52"><g mask="url(&quot;#cb7533f9-5592-4692-9008-661752e4947b&quot;)"><g><path xmlns="http://www.w3.org/2000/svg" d="M286.325 0c8.536 4.505 12.805 10.196 12.805 17.073v0c0 4.268-2.253 8.228-6.758 11.88-4.505 3.699-9.603 6.379-15.295 8.038v0l-4.268 0.356c-30.589 1.66-58.569 3.913-83.941 6.758v0l-19.918 79.673c17.547-2.845 33.079-4.861 46.594-6.047 13.516-1.186 21.578-1.897 24.187-2.134v0l13.871-1.067c9.248 4.031 13.872 9.485 13.872 16.362v0c0 4.268-2.134 8.418-6.402 12.448-4.268 4.031-9.129 6.877-14.583 8.537v0l-5.336 0.711c-10.671 1.186-20.63 2.134-29.877 2.846v0c-24.186 2.134-41.378 4.031-51.574 5.691v0l-17.073 68.647c-1.186 4.98-2.419 8.584-3.699 10.812-1.328 2.276-3.581 3.96-6.758 5.051-3.225 1.043-8.038 1.565-14.441 1.565v0c-7.351 0-12.733-1.233-16.148-3.699-3.462-2.514-5.193-6.734-5.193-12.662v0c0-2.608 0.356-5.098 1.067-7.47v0l48.729-192.425c2.608-10.433 5.406-17.381 8.394-20.843 2.94-3.415 8.323-5.122 16.148-5.121v0c8.299 0 15.057 1.067 20.274 3.201v0c34.857-4.505 66.631-7.232 95.323-8.181z" fill="#ffffff" fill-rule="nonzero" stroke="none" stroke-width="1" stroke-linecap="butt" stroke-linejoin="miter" stroke-miterlimit="10" stroke-dasharray="" stroke-dashoffset="0" font-family="none" font-weight="none" font-size="none" text-anchor="none" style="mix-blend-mode: normal" data-fill-palette-color="tertiary"></path></g></g><g transform="matrix(1,0,0,1,53.91644465606544,37.08)"><svg viewBox="0 0 287.6871106878691 173.04" height="173.04" width="287.6871106878691"><g><svg viewBox="0 0 287.6871106878691 173.04" height="173.04" width="287.6871106878691"><g><svg viewBox="0 0 389.4655309674923 234.2583764614124" height="173.04" width="287.6871106878691"><g transform="matrix(1,0,0,1,199.08775644063402,0)"><svg viewBox="0 0 190.37777452685827 234.2583764614124" height="234.2583764614124" width="190.37777452685827"><g id="textblocktransform"><svg viewBox="0 0 190.37777452685827 234.2583764614124" height="234.2583764614124" width="190.37777452685827" id="textblock"><g><svg viewBox="0 0 190.37777452685827 171.9706128" height="171.9706128" width="190.37777452685827"><g transform="matrix(1,0,0,1,0,0)"><svg width="190.37777452685827" viewBox="-2.5499999821186066 -37.099998474121094 56.849998474121094 51.44999694824219" height="171.9706128" data-palette-color="#262626"><path d="M27.15-34.1Q28.95-33.15 28.95-31.7L28.95-31.7Q28.95-30.8 28-30.03 27.05-29.25 25.85-28.9L25.85-28.9 25.25-28.85Q18.8-28.5 13.45-27.9L13.45-27.9 10.65-16.7Q14.35-17.3 17.2-17.55 20.05-17.8 20.6-17.85L20.6-17.85 22.55-18Q24.5-17.15 24.5-15.7L24.5-15.7Q24.5-14.8 23.6-13.95 22.7-13.1 21.55-12.75L21.55-12.75 20.8-12.65Q18.55-12.4 16.6-12.25L16.6-12.25Q11.5-11.8 9.35-11.45L9.35-11.45 6.95-1.8Q6.7-0.75 6.43-0.28 6.15 0.2 5.48 0.43 4.8 0.65 3.45 0.65L3.45 0.65Q1.9 0.65 1.18 0.13 0.45-0.4 0.45-1.65L0.45-1.65Q0.45-2.2 0.6-2.7L0.6-2.7 7.45-29.75Q8-31.95 8.63-32.68 9.25-33.4 10.9-33.4L10.9-33.4Q12.65-33.4 13.75-32.95L13.75-32.95Q21.1-33.9 27.15-34.1L27.15-34.1ZM33.7 11.35Q31.4 11.35 29.37 10.35 27.35 9.35 25.97 7.78 24.6 6.2 24 4.6L24 4.6Q24.05 3.7 24.87 2.83 25.7 1.95 27.75 1.95L27.75 1.95Q28.4 1.95 28.87 2.45 29.35 2.95 29.95 4.05L29.95 4.05Q30.75 5.55 31.62 6.38 32.5 7.2 34.05 7.2L34.05 7.2Q35.8 7.2 37.42 5.83 39.05 4.45 40.22 2.1 41.4-0.25 41.85-3.1L41.85-3.1Q40.75-1.6 39.32-0.8 37.9 0 36.65 0L36.65 0Q32.65 0 30.32-1.78 28-3.55 28-8.1L28-8.1Q28-12.2 30.27-15.75 32.55-19.3 36.35-21.4 40.15-23.5 44.5-23.5L44.5-23.5Q47.35-23.5 48.72-22.35 50.1-21.2 50.4-19.45L50.4-19.45Q51.25-19.05 51.3-18.65L51.3-18.65Q51.3-18.5 51.1-17.6L51.1-17.6Q50.15-13.5 47.1-1.4L47.1-1.4 46.55 0.8Q45.3 5.65 41.77 8.5 38.25 11.35 33.7 11.35L33.7 11.35ZM45-18.35Q44.6-19.05 44.22-19.25 43.85-19.45 43.1-19.45L43.1-19.45Q40.75-19.45 38.55-17.93 36.35-16.4 35-13.98 33.65-11.55 33.65-9L33.65-9Q33.65-7.15 34.32-5.8 35-4.45 36.5-4.25L36.5-4.25Q38.5-4.6 40.27-6.05 42.05-7.5 42.7-9.8L42.7-9.8 45-18.35Z" opacity="1" transform="matrix(1,0,0,1,0,0)" fill="#ffffff" class="undefined-text-0" data-fill-palette-color="primary" id="text-0"></path></svg></g></svg></g><g transform="matrix(1,0,0,1,2.5,194.5781722542364)"><svg viewBox="0 0 185.37777452685827 39.68020420717603" height="39.68020420717603" width="185.37777452685827"><g transform="matrix(1,0,0,1,0,0)"><svg width="185.37777452685827" viewBox="2 -36.25 183.17999267578125 40" height="39.68020420717603" data-palette-color="#262626"><path d="M8.5-15L8.5 0 5 0 5-32.5 18.75-32.5 18.75-29.5 8.5-29.5 8.5-18 16.75-18 16.75-15 8.5-15ZM41.25-26.25L41.25 0 39.75 0 38.45-3.2Q37.4-1.4 35.7-0.33 34 0.75 31.95 0.75L31.95 0.75Q24.75 0.75 24.75-6.25L24.75-6.25 24.75-11.25Q24.75-18.25 31.95-18.25L31.95-18.25 37.75-18.25 37.75-26.45Q37.75-28.25 36.6-29.25 35.45-30.25 33.2-30.25L33.2-30.25Q28.75-30.25 28.75-26.45L28.75-26.45 28.75-23.5 25.25-23.5 25.25-26.25Q25.25-29.6 27.22-31.43 29.2-33.25 33.2-33.25 37.2-33.25 39.22-31.43 41.25-29.6 41.25-26.25L41.25-26.25ZM37.75-7.1L37.75-15.25 31.95-15.25Q29.85-15.25 29.05-14.2 28.25-13.15 28.25-11.25L28.25-11.25 28.25-6.25Q28.25-4.35 29.05-3.3 29.85-2.25 31.95-2.25 34.05-2.25 35.85-3.88 37.65-5.5 37.75-7.1L37.75-7.1ZM50.75 0L50.75-32.5 58.3-32.5Q62.2-32.5 64.22-30.65 66.25-28.8 66.25-25.5L66.25-25.5 66.25-22.5Q66.25-18.25 62.7-17.05L62.7-17.05Q66.75-15.95 66.75-11.5L66.75-11.5 66.75-7Q66.75-3.65 64.75-1.83 62.75 0 58.8 0L58.8 0 50.75 0ZM63.25-7L63.25-7 63.25-11.5Q63.25-13.4 62.1-14.58 60.95-15.75 58.8-15.75L58.8-15.75 54.25-15.75 54.25-3 58.8-3Q63.25-3 63.25-7ZM62.75-22.5L62.75-22.5 62.75-25.5Q62.75-27.4 61.6-28.45 60.45-29.5 58.3-29.5L58.3-29.5 54.25-29.5 54.25-18.25 58.3-18.25Q60.5-18.25 61.62-19.4 62.75-20.55 62.75-22.5ZM79.49-32.5L79.49 0 75.99 0 75.99-32.5 79.49-32.5ZM105.74-26.25L105.74-26.25 105.74-6.25Q105.74-2.9 103.62-1.07 101.49 0.75 97.27 0.75 93.04 0.75 90.89-1.07 88.74-2.9 88.74-6.25L88.74-6.25 88.74-26.25Q88.74-29.6 90.87-31.43 92.99-33.25 97.22-33.25 101.44-33.25 103.59-31.43 105.74-29.6 105.74-26.25ZM102.24-6.25L102.24-6.25 102.24-26.25Q102.24-30.25 97.24-30.25 92.24-30.25 92.24-26.25L92.24-26.25 92.24-6.25Q92.24-2.25 97.24-2.25 102.24-2.25 102.24-6.25ZM123.04 0L123.04 0 114.99 0 114.99-32.5 123.04-32.5Q126.94-32.5 128.96-30.65 130.99-28.8 130.99-25.5L130.99-25.5 130.99-7Q130.99-3.65 128.99-1.83 126.99 0 123.04 0ZM127.49-7L127.49-7 127.49-25.5Q127.49-27.4 126.34-28.45 125.19-29.5 123.04-29.5L123.04-29.5 118.49-29.5 118.49-3 123.04-3Q127.49-3 127.49-7ZM152.49-6.25L152.49-6.25 152.49-9 155.99-9 155.99-6.25Q155.99-2.9 153.94-1.07 151.89 0.75 147.79 0.75 143.69 0.75 141.59-1.07 139.49-2.9 139.49-6.25L139.49-6.25 139.49-26.25Q139.49-29.6 141.54-31.43 143.59-33.25 147.69-33.25 151.79-33.25 153.89-31.43 155.99-29.6 155.99-26.25L155.99-26.25 155.99-15.25 142.99-15.25 142.99-6.25Q142.99-2.25 147.74-2.25 152.49-2.25 152.49-6.25ZM142.99-26.25L142.99-26.25 142.99-18.25 152.49-18.25 152.49-26.25Q152.49-30.25 147.74-30.25 142.99-30.25 142.99-26.25ZM182.18-32.5L174.83 0 169.58 0 162.23-32.5 165.73-32.5 172.18-3.85 178.68-32.5 182.18-32.5Z" opacity="1" transform="matrix(1,0,0,1,0,0)" fill="#ffffff" class="undefined-text-1" data-fill-palette-color="secondary" id="text-1"></path></svg></g></svg></g></svg></g></svg></g><g transform="matrix(1,0,0,1,0,40.22722531945193)"><svg viewBox="0 0 176.48019698639763 153.80392582250855" height="153.80392582250855" width="176.48019698639763"><g><svg xmlns="http://www.w3.org/2000/svg" xmlns:xlink="http://www.w3.org/1999/xlink" version="1.0" x="0" y="0" viewBox="1.1180000305175781 4.118575572967529 47.92100143432617 41.76354217529297" enable-background="new 0 0 50 50" xml:space="preserve" height="153.80392582250855" width="176.48019698639763" class="icon-icon-0" data-fill-palette-color="accent" id="icon-0"><g fill="#000000" data-fill-palette-color="accent"><g fill="#000000" data-fill-palette-color="accent"><polygon fill="#ffffff" points="10.821,24.951 21,32.193 21,39.035 1.118,24.891 21,11.118 21,17.9   " data-fill-palette-color="accent"></polygon></g><g fill="#000000" data-fill-palette-color="accent"><polygon fill="#ffffff" points="49.039,25.277 35.815,16.063 34.219,21.712 39.475,25.338 31.411,30.97 29,38.79 29,39.424   " data-fill-palette-color="accent"></polygon></g><rect x="25.577" y="3.983" transform="matrix(0.9606 0.278 -0.278 0.9606 8.0575 -6.8179)" fill="#ffffff" width="4.981" height="42.035" data-fill-palette-color="accent"></rect></g></svg></g></svg></g></svg></g></svg></g></svg></g></svg></g><defs><mask id="ff4f96a8-6434-4b1b-ae06-8e93925b2019"><rect width="395.52" height="247.2" fill="white"></rect><g transform="matrix(1,0,0,1,53.91644465606544,37.08)" id="clone"><svg viewBox="0 0 287.6871106878691 173.04" height="173.04" width="287.6871106878691"><g><svg viewBox="0 0 287.6871106878691 173.04" height="173.04" width="287.6871106878691"><g><svg viewBox="0 0 389.4655309674923 234.2583764614124" height="173.04" width="287.6871106878691"><g transform="matrix(1,0,0,1,199.08775644063402,0)"><svg viewBox="0 0 190.37777452685827 234.2583764614124" height="234.2583764614124" width="190.37777452685827"><g id="SvgjsG1638"><svg viewBox="0 0 190.37777452685827 234.2583764614124" height="234.2583764614124" width="190.37777452685827" id="SvgjsSvg1637"><g><svg viewBox="0 0 190.37777452685827 171.9706128" height="171.9706128" width="190.37777452685827"><g transform="matrix(1,0,0,1,0,0)"><svg width="190.37777452685827" viewBox="-2.5499999821186066 -37.099998474121094 56.849998474121094 51.44999694824219" height="171.9706128" data-palette-color="#262626"><path d="M27.15-34.1Q28.95-33.15 28.95-31.7L28.95-31.7Q28.95-30.8 28-30.03 27.05-29.25 25.85-28.9L25.85-28.9 25.25-28.85Q18.8-28.5 13.45-27.9L13.45-27.9 10.65-16.7Q14.35-17.3 17.2-17.55 20.05-17.8 20.6-17.85L20.6-17.85 22.55-18Q24.5-17.15 24.5-15.7L24.5-15.7Q24.5-14.8 23.6-13.95 22.7-13.1 21.55-12.75L21.55-12.75 20.8-12.65Q18.55-12.4 16.6-12.25L16.6-12.25Q11.5-11.8 9.35-11.45L9.35-11.45 6.95-1.8Q6.7-0.75 6.43-0.28 6.15 0.2 5.48 0.43 4.8 0.65 3.45 0.65L3.45 0.65Q1.9 0.65 1.18 0.13 0.45-0.4 0.45-1.65L0.45-1.65Q0.45-2.2 0.6-2.7L0.6-2.7 7.45-29.75Q8-31.95 8.63-32.68 9.25-33.4 10.9-33.4L10.9-33.4Q12.65-33.4 13.75-32.95L13.75-32.95Q21.1-33.9 27.15-34.1L27.15-34.1ZM33.7 11.35Q31.4 11.35 29.37 10.35 27.35 9.35 25.97 7.78 24.6 6.2 24 4.6L24 4.6Q24.05 3.7 24.87 2.83 25.7 1.95 27.75 1.95L27.75 1.95Q28.4 1.95 28.87 2.45 29.35 2.95 29.95 4.05L29.95 4.05Q30.75 5.55 31.62 6.38 32.5 7.2 34.05 7.2L34.05 7.2Q35.8 7.2 37.42 5.83 39.05 4.45 40.22 2.1 41.4-0.25 41.85-3.1L41.85-3.1Q40.75-1.6 39.32-0.8 37.9 0 36.65 0L36.65 0Q32.65 0 30.32-1.78 28-3.55 28-8.1L28-8.1Q28-12.2 30.27-15.75 32.55-19.3 36.35-21.4 40.15-23.5 44.5-23.5L44.5-23.5Q47.35-23.5 48.72-22.35 50.1-21.2 50.4-19.45L50.4-19.45Q51.25-19.05 51.3-18.65L51.3-18.65Q51.3-18.5 51.1-17.6L51.1-17.6Q50.15-13.5 47.1-1.4L47.1-1.4 46.55 0.8Q45.3 5.65 41.77 8.5 38.25 11.35 33.7 11.35L33.7 11.35ZM45-18.35Q44.6-19.05 44.22-19.25 43.85-19.45 43.1-19.45L43.1-19.45Q40.75-19.45 38.55-17.93 36.35-16.4 35-13.98 33.65-11.55 33.65-9L33.65-9Q33.65-7.15 34.32-5.8 35-4.45 36.5-4.25L36.5-4.25Q38.5-4.6 40.27-6.05 42.05-7.5 42.7-9.8L42.7-9.8 45-18.35Z" opacity="1" transform="matrix(1,0,0,1,0,0)" fill="#ffffff" class="undefined-text-0" data-fill-palette-color="primary" id="SvgjsPath1636" stroke-width="5" stroke="black" stroke-linejoin="round"></path></svg></g></svg></g><g transform="matrix(1,0,0,1,2.5,194.5781722542364)"><svg viewBox="0 0 185.37777452685827 39.68020420717603" height="39.68020420717603" width="185.37777452685827"><g transform="matrix(1,0,0,1,0,0)"><svg width="185.37777452685827" viewBox="2 -36.25 183.17999267578125 40" height="39.68020420717603" data-palette-color="#262626"><path d="M8.5-15L8.5 0 5 0 5-32.5 18.75-32.5 18.75-29.5 8.5-29.5 8.5-18 16.75-18 16.75-15 8.5-15ZM41.25-26.25L41.25 0 39.75 0 38.45-3.2Q37.4-1.4 35.7-0.33 34 0.75 31.95 0.75L31.95 0.75Q24.75 0.75 24.75-6.25L24.75-6.25 24.75-11.25Q24.75-18.25 31.95-18.25L31.95-18.25 37.75-18.25 37.75-26.45Q37.75-28.25 36.6-29.25 35.45-30.25 33.2-30.25L33.2-30.25Q28.75-30.25 28.75-26.45L28.75-26.45 28.75-23.5 25.25-23.5 25.25-26.25Q25.25-29.6 27.22-31.43 29.2-33.25 33.2-33.25 37.2-33.25 39.22-31.43 41.25-29.6 41.25-26.25L41.25-26.25ZM37.75-7.1L37.75-15.25 31.95-15.25Q29.85-15.25 29.05-14.2 28.25-13.15 28.25-11.25L28.25-11.25 28.25-6.25Q28.25-4.35 29.05-3.3 29.85-2.25 31.95-2.25 34.05-2.25 35.85-3.88 37.65-5.5 37.75-7.1L37.75-7.1ZM50.75 0L50.75-32.5 58.3-32.5Q62.2-32.5 64.22-30.65 66.25-28.8 66.25-25.5L66.25-25.5 66.25-22.5Q66.25-18.25 62.7-17.05L62.7-17.05Q66.75-15.95 66.75-11.5L66.75-11.5 66.75-7Q66.75-3.65 64.75-1.83 62.75 0 58.8 0L58.8 0 50.75 0ZM63.25-7L63.25-7 63.25-11.5Q63.25-13.4 62.1-14.58 60.95-15.75 58.8-15.75L58.8-15.75 54.25-15.75 54.25-3 58.8-3Q63.25-3 63.25-7ZM62.75-22.5L62.75-22.5 62.75-25.5Q62.75-27.4 61.6-28.45 60.45-29.5 58.3-29.5L58.3-29.5 54.25-29.5 54.25-18.25 58.3-18.25Q60.5-18.25 61.62-19.4 62.75-20.55 62.75-22.5ZM79.49-32.5L79.49 0 75.99 0 75.99-32.5 79.49-32.5ZM105.74-26.25L105.74-26.25 105.74-6.25Q105.74-2.9 103.62-1.07 101.49 0.75 97.27 0.75 93.04 0.75 90.89-1.07 88.74-2.9 88.74-6.25L88.74-6.25 88.74-26.25Q88.74-29.6 90.87-31.43 92.99-33.25 97.22-33.25 101.44-33.25 103.59-31.43 105.74-29.6 105.74-26.25ZM102.24-6.25L102.24-6.25 102.24-26.25Q102.24-30.25 97.24-30.25 92.24-30.25 92.24-26.25L92.24-26.25 92.24-6.25Q92.24-2.25 97.24-2.25 102.24-2.25 102.24-6.25ZM123.04 0L123.04 0 114.99 0 114.99-32.5 123.04-32.5Q126.94-32.5 128.96-30.65 130.99-28.8 130.99-25.5L130.99-25.5 130.99-7Q130.99-3.65 128.99-1.83 126.99 0 123.04 0ZM127.49-7L127.49-7 127.49-25.5Q127.49-27.4 126.34-28.45 125.19-29.5 123.04-29.5L123.04-29.5 118.49-29.5 118.49-3 123.04-3Q127.49-3 127.49-7ZM152.49-6.25L152.49-6.25 152.49-9 155.99-9 155.99-6.25Q155.99-2.9 153.94-1.07 151.89 0.75 147.79 0.75 143.69 0.75 141.59-1.07 139.49-2.9 139.49-6.25L139.49-6.25 139.49-26.25Q139.49-29.6 141.54-31.43 143.59-33.25 147.69-33.25 151.79-33.25 153.89-31.43 155.99-29.6 155.99-26.25L155.99-26.25 155.99-15.25 142.99-15.25 142.99-6.25Q142.99-2.25 147.74-2.25 152.49-2.25 152.49-6.25ZM142.99-26.25L142.99-26.25 142.99-18.25 152.49-18.25 152.49-26.25Q152.49-30.25 147.74-30.25 142.99-30.25 142.99-26.25ZM182.18-32.5L174.83 0 169.58 0 162.23-32.5 165.73-32.5 172.18-3.85 178.68-32.5 182.18-32.5Z" opacity="1" transform="matrix(1,0,0,1,0,0)" fill="#ffffff" class="undefined-text-1" data-fill-palette-color="secondary" id="SvgjsPath1635" stroke-width="5" stroke="black" stroke-linejoin="round"></path></svg></g></svg></g></svg></g></svg></g><g transform="matrix(1,0,0,1,0,40.22722531945193)"><svg viewBox="0 0 176.48019698639763 153.80392582250855" height="153.80392582250855" width="176.48019698639763"><g><svg xmlns="http://www.w3.org/2000/svg" xmlns:xlink="http://www.w3.org/1999/xlink" version="1.0" x="0" y="0" viewBox="1.1180000305175781 4.118575572967529 47.92100143432617 41.76354217529297" enable-background="new 0 0 50 50" xml:space="preserve" height="153.80392582250855" width="176.48019698639763" class="icon-icon-0" data-fill-palette-color="accent" id="SvgjsSvg1634"><g fill="black" data-fill-palette-color="accent" stroke-width="5" stroke="black" stroke-linejoin="round"><g fill="black" data-fill-palette-color="accent" stroke-width="5" stroke="black" stroke-linejoin="round"><polygon fill="#ffffff" points="10.821,24.951 21,32.193 21,39.035 1.118,24.891 21,11.118 21,17.9   " data-fill-palette-color="accent" stroke-width="5" stroke="black" stroke-linejoin="round"></polygon></g><g fill="black" data-fill-palette-color="accent" stroke-width="5" stroke="black" stroke-linejoin="round"><polygon fill="#ffffff" points="49.039,25.277 35.815,16.063 34.219,21.712 39.475,25.338 31.411,30.97 29,38.79 29,39.424   " data-fill-palette-color="accent" stroke-width="5" stroke="black" stroke-linejoin="round"></polygon></g><rect x="25.577" y="3.983" transform="matrix(0.9606 0.278 -0.278 0.9606 8.0575 -6.8179)" fill="#ffffff" width="4.981" height="42.035" data-fill-palette-color="accent" stroke-width="5" stroke="black" stroke-linejoin="round"></rect></g></svg></g></svg></g></svg></g></svg></g></svg></g></mask><mask id="8e7ff08d-fd38-43de-9525-02124c54f513"><rect width="395.52" height="247.2" fill="white"></rect><g transform="matrix(1,0,0,1,53.91644465606544,37.08)" id="clone"><svg viewBox="0 0 287.6871106878691 173.04" height="173.04" width="287.6871106878691"><g><svg viewBox="0 0 287.6871106878691 173.04" height="173.04" width="287.6871106878691"><g><svg viewBox="0 0 389.4655309674923 234.2583764614124" height="173.04" width="287.6871106878691"><g transform="matrix(1,0,0,1,199.08775644063402,0)"><svg viewBox="0 0 190.37777452685827 234.2583764614124" height="234.2583764614124" width="190.37777452685827"><g id="SvgjsG1643"><svg viewBox="0 0 190.37777452685827 234.2583764614124" height="234.2583764614124" width="190.37777452685827" id="SvgjsSvg1642"><g><svg viewBox="0 0 190.37777452685827 171.9706128" height="171.9706128" width="190.37777452685827"><g transform="matrix(1,0,0,1,0,0)"><svg width="190.37777452685827" viewBox="-2.5499999821186066 -37.099998474121094 56.849998474121094 51.44999694824219" height="171.9706128" data-palette-color="#262626"><path d="M27.15-34.1Q28.95-33.15 28.95-31.7L28.95-31.7Q28.95-30.8 28-30.03 27.05-29.25 25.85-28.9L25.85-28.9 25.25-28.85Q18.8-28.5 13.45-27.9L13.45-27.9 10.65-16.7Q14.35-17.3 17.2-17.55 20.05-17.8 20.6-17.85L20.6-17.85 22.55-18Q24.5-17.15 24.5-15.7L24.5-15.7Q24.5-14.8 23.6-13.95 22.7-13.1 21.55-12.75L21.55-12.75 20.8-12.65Q18.55-12.4 16.6-12.25L16.6-12.25Q11.5-11.8 9.35-11.45L9.35-11.45 6.95-1.8Q6.7-0.75 6.43-0.28 6.15 0.2 5.48 0.43 4.8 0.65 3.45 0.65L3.45 0.65Q1.9 0.65 1.18 0.13 0.45-0.4 0.45-1.65L0.45-1.65Q0.45-2.2 0.6-2.7L0.6-2.7 7.45-29.75Q8-31.95 8.63-32.68 9.25-33.4 10.9-33.4L10.9-33.4Q12.65-33.4 13.75-32.95L13.75-32.95Q21.1-33.9 27.15-34.1L27.15-34.1ZM33.7 11.35Q31.4 11.35 29.37 10.35 27.35 9.35 25.97 7.78 24.6 6.2 24 4.6L24 4.6Q24.05 3.7 24.87 2.83 25.7 1.95 27.75 1.95L27.75 1.95Q28.4 1.95 28.87 2.45 29.35 2.95 29.95 4.05L29.95 4.05Q30.75 5.55 31.62 6.38 32.5 7.2 34.05 7.2L34.05 7.2Q35.8 7.2 37.42 5.83 39.05 4.45 40.22 2.1 41.4-0.25 41.85-3.1L41.85-3.1Q40.75-1.6 39.32-0.8 37.9 0 36.65 0L36.65 0Q32.65 0 30.32-1.78 28-3.55 28-8.1L28-8.1Q28-12.2 30.27-15.75 32.55-19.3 36.35-21.4 40.15-23.5 44.5-23.5L44.5-23.5Q47.35-23.5 48.72-22.35 50.1-21.2 50.4-19.45L50.4-19.45Q51.25-19.05 51.3-18.65L51.3-18.65Q51.3-18.5 51.1-17.6L51.1-17.6Q50.15-13.5 47.1-1.4L47.1-1.4 46.55 0.8Q45.3 5.65 41.77 8.5 38.25 11.35 33.7 11.35L33.7 11.35ZM45-18.35Q44.6-19.05 44.22-19.25 43.85-19.45 43.1-19.45L43.1-19.45Q40.75-19.45 38.55-17.93 36.35-16.4 35-13.98 33.65-11.55 33.65-9L33.65-9Q33.65-7.15 34.32-5.8 35-4.45 36.5-4.25L36.5-4.25Q38.5-4.6 40.27-6.05 42.05-7.5 42.7-9.8L42.7-9.8 45-18.35Z" opacity="1" transform="matrix(1,0,0,1,0,0)" fill="#ffffff" class="undefined-text-0" data-fill-palette-color="primary" id="SvgjsPath1641" stroke-width="5" stroke="black" stroke-linejoin="round"></path></svg></g></svg></g><g transform="matrix(1,0,0,1,2.5,194.5781722542364)"><svg viewBox="0 0 185.37777452685827 39.68020420717603" height="39.68020420717603" width="185.37777452685827"><g transform="matrix(1,0,0,1,0,0)"><svg width="185.37777452685827" viewBox="2 -36.25 183.17999267578125 40" height="39.68020420717603" data-palette-color="#262626"><path d="M8.5-15L8.5 0 5 0 5-32.5 18.75-32.5 18.75-29.5 8.5-29.5 8.5-18 16.75-18 16.75-15 8.5-15ZM41.25-26.25L41.25 0 39.75 0 38.45-3.2Q37.4-1.4 35.7-0.33 34 0.75 31.95 0.75L31.95 0.75Q24.75 0.75 24.75-6.25L24.75-6.25 24.75-11.25Q24.75-18.25 31.95-18.25L31.95-18.25 37.75-18.25 37.75-26.45Q37.75-28.25 36.6-29.25 35.45-30.25 33.2-30.25L33.2-30.25Q28.75-30.25 28.75-26.45L28.75-26.45 28.75-23.5 25.25-23.5 25.25-26.25Q25.25-29.6 27.22-31.43 29.2-33.25 33.2-33.25 37.2-33.25 39.22-31.43 41.25-29.6 41.25-26.25L41.25-26.25ZM37.75-7.1L37.75-15.25 31.95-15.25Q29.85-15.25 29.05-14.2 28.25-13.15 28.25-11.25L28.25-11.25 28.25-6.25Q28.25-4.35 29.05-3.3 29.85-2.25 31.95-2.25 34.05-2.25 35.85-3.88 37.65-5.5 37.75-7.1L37.75-7.1ZM50.75 0L50.75-32.5 58.3-32.5Q62.2-32.5 64.22-30.65 66.25-28.8 66.25-25.5L66.25-25.5 66.25-22.5Q66.25-18.25 62.7-17.05L62.7-17.05Q66.75-15.95 66.75-11.5L66.75-11.5 66.75-7Q66.75-3.65 64.75-1.83 62.75 0 58.8 0L58.8 0 50.75 0ZM63.25-7L63.25-7 63.25-11.5Q63.25-13.4 62.1-14.58 60.95-15.75 58.8-15.75L58.8-15.75 54.25-15.75 54.25-3 58.8-3Q63.25-3 63.25-7ZM62.75-22.5L62.75-22.5 62.75-25.5Q62.75-27.4 61.6-28.45 60.45-29.5 58.3-29.5L58.3-29.5 54.25-29.5 54.25-18.25 58.3-18.25Q60.5-18.25 61.62-19.4 62.75-20.55 62.75-22.5ZM79.49-32.5L79.49 0 75.99 0 75.99-32.5 79.49-32.5ZM105.74-26.25L105.74-26.25 105.74-6.25Q105.74-2.9 103.62-1.07 101.49 0.75 97.27 0.75 93.04 0.75 90.89-1.07 88.74-2.9 88.74-6.25L88.74-6.25 88.74-26.25Q88.74-29.6 90.87-31.43 92.99-33.25 97.22-33.25 101.44-33.25 103.59-31.43 105.74-29.6 105.74-26.25ZM102.24-6.25L102.24-6.25 102.24-26.25Q102.24-30.25 97.24-30.25 92.24-30.25 92.24-26.25L92.24-26.25 92.24-6.25Q92.24-2.25 97.24-2.25 102.24-2.25 102.24-6.25ZM123.04 0L123.04 0 114.99 0 114.99-32.5 123.04-32.5Q126.94-32.5 128.96-30.65 130.99-28.8 130.99-25.5L130.99-25.5 130.99-7Q130.99-3.65 128.99-1.83 126.99 0 123.04 0ZM127.49-7L127.49-7 127.49-25.5Q127.49-27.4 126.34-28.45 125.19-29.5 123.04-29.5L123.04-29.5 118.49-29.5 118.49-3 123.04-3Q127.49-3 127.49-7ZM152.49-6.25L152.49-6.25 152.49-9 155.99-9 155.99-6.25Q155.99-2.9 153.94-1.07 151.89 0.75 147.79 0.75 143.69 0.75 141.59-1.07 139.49-2.9 139.49-6.25L139.49-6.25 139.49-26.25Q139.49-29.6 141.54-31.43 143.59-33.25 147.69-33.25 151.79-33.25 153.89-31.43 155.99-29.6 155.99-26.25L155.99-26.25 155.99-15.25 142.99-15.25 142.99-6.25Q142.99-2.25 147.74-2.25 152.49-2.25 152.49-6.25ZM142.99-26.25L142.99-26.25 142.99-18.25 152.49-18.25 152.49-26.25Q152.49-30.25 147.74-30.25 142.99-30.25 142.99-26.25ZM182.18-32.5L174.83 0 169.58 0 162.23-32.5 165.73-32.5 172.18-3.85 178.68-32.5 182.18-32.5Z" opacity="1" transform="matrix(1,0,0,1,0,0)" fill="#ffffff" class="undefined-text-1" data-fill-palette-color="secondary" id="SvgjsPath1640" stroke-width="5" stroke="black" stroke-linejoin="round"></path></svg></g></svg></g></svg></g></svg></g><g transform="matrix(1,0,0,1,0,40.22722531945193)"><svg viewBox="0 0 176.48019698639763 153.80392582250855" height="153.80392582250855" width="176.48019698639763"><g><svg xmlns="http://www.w3.org/2000/svg" xmlns:xlink="http://www.w3.org/1999/xlink" version="1.0" x="0" y="0" viewBox="1.1180000305175781 4.118575572967529 47.92100143432617 41.76354217529297" enable-background="new 0 0 50 50" xml:space="preserve" height="153.80392582250855" width="176.48019698639763" class="icon-icon-0" data-fill-palette-color="accent" id="SvgjsSvg1639"><g fill="black" data-fill-palette-color="accent" stroke-width="5" stroke="black" stroke-linejoin="round"><g fill="black" data-fill-palette-color="accent" stroke-width="5" stroke="black" stroke-linejoin="round"><polygon fill="#ffffff" points="10.821,24.951 21,32.193 21,39.035 1.118,24.891 21,11.118 21,17.9   " data-fill-palette-color="accent" stroke-width="5" stroke="black" stroke-linejoin="round"></polygon></g><g fill="black" data-fill-palette-color="accent" stroke-width="5" stroke="black" stroke-linejoin="round"><polygon fill="#ffffff" points="49.039,25.277 35.815,16.063 34.219,21.712 39.475,25.338 31.411,30.97 29,38.79 29,39.424   " data-fill-palette-color="accent" stroke-width="5" stroke="black" stroke-linejoin="round"></polygon></g><rect x="25.577" y="3.983" transform="matrix(0.9606 0.278 -0.278 0.9606 8.0575 -6.8179)" fill="#ffffff" width="4.981" height="42.035" data-fill-palette-color="accent" stroke-width="5" stroke="black" stroke-linejoin="round"></rect></g></svg></g></svg></g></svg></g></svg></g></svg></g></mask><mask id="6a9ab0fc-f498-4cc8-936e-9b52cb7ea09c"><rect width="395.52" height="247.2" fill="white"></rect><g transform="matrix(1,0,0,1,43.96504368892596,37.08)" id="clone"><svg viewBox="0 0 307.58991262214806 173.04" height="173.04" width="307.58991262214806"><g><svg viewBox="0 0 307.58991262214806 173.04" height="173.04" width="307.58991262214806"><g><svg viewBox="0 0 389.4655309674923 219.1005384542712" height="173.04" width="307.58991262214806"><g transform="matrix(1,0,0,1,199.08775644063402,0)"><svg viewBox="0 0 190.37777452685827 219.1005384542712" height="219.1005384542712" width="190.37777452685827"><g id="SvgjsG1648"><svg viewBox="0 0 190.37777452685827 219.1005384542712" height="219.1005384542712" width="190.37777452685827" id="SvgjsSvg1647"><g><svg viewBox="0 0 190.37777452685827 171.9706128" height="171.9706128" width="190.37777452685827"><g transform="matrix(1,0,0,1,0,0)"><svg width="190.37777452685827" viewBox="-2.5499999821186066 -37.099998474121094 56.849998474121094 51.44999694824219" height="171.9706128" data-palette-color="#262626"><path d="M27.15-34.1Q28.95-33.15 28.95-31.7L28.95-31.7Q28.95-30.8 28-30.03 27.05-29.25 25.85-28.9L25.85-28.9 25.25-28.85Q18.8-28.5 13.45-27.9L13.45-27.9 10.65-16.7Q14.35-17.3 17.2-17.55 20.05-17.8 20.6-17.85L20.6-17.85 22.55-18Q24.5-17.15 24.5-15.7L24.5-15.7Q24.5-14.8 23.6-13.95 22.7-13.1 21.55-12.75L21.55-12.75 20.8-12.65Q18.55-12.4 16.6-12.25L16.6-12.25Q11.5-11.8 9.35-11.45L9.35-11.45 6.95-1.8Q6.7-0.75 6.43-0.28 6.15 0.2 5.48 0.43 4.8 0.65 3.45 0.65L3.45 0.65Q1.9 0.65 1.18 0.13 0.45-0.4 0.45-1.65L0.45-1.65Q0.45-2.2 0.6-2.7L0.6-2.7 7.45-29.75Q8-31.95 8.63-32.68 9.25-33.4 10.9-33.4L10.9-33.4Q12.65-33.4 13.75-32.95L13.75-32.95Q21.1-33.9 27.15-34.1L27.15-34.1ZM33.7 11.35Q31.4 11.35 29.37 10.35 27.35 9.35 25.97 7.78 24.6 6.2 24 4.6L24 4.6Q24.05 3.7 24.87 2.83 25.7 1.95 27.75 1.95L27.75 1.95Q28.4 1.95 28.87 2.45 29.35 2.95 29.95 4.05L29.95 4.05Q30.75 5.55 31.62 6.38 32.5 7.2 34.05 7.2L34.05 7.2Q35.8 7.2 37.42 5.83 39.05 4.45 40.22 2.1 41.4-0.25 41.85-3.1L41.85-3.1Q40.75-1.6 39.32-0.8 37.9 0 36.65 0L36.65 0Q32.65 0 30.32-1.78 28-3.55 28-8.1L28-8.1Q28-12.2 30.27-15.75 32.55-19.3 36.35-21.4 40.15-23.5 44.5-23.5L44.5-23.5Q47.35-23.5 48.72-22.35 50.1-21.2 50.4-19.45L50.4-19.45Q51.25-19.05 51.3-18.65L51.3-18.65Q51.3-18.5 51.1-17.6L51.1-17.6Q50.15-13.5 47.1-1.4L47.1-1.4 46.55 0.8Q45.3 5.65 41.77 8.5 38.25 11.35 33.7 11.35L33.7 11.35ZM45-18.35Q44.6-19.05 44.22-19.25 43.85-19.45 43.1-19.45L43.1-19.45Q40.75-19.45 38.55-17.93 36.35-16.4 35-13.98 33.65-11.55 33.65-9L33.65-9Q33.65-7.15 34.32-5.8 35-4.45 36.5-4.25L36.5-4.25Q38.5-4.6 40.27-6.05 42.05-7.5 42.7-9.8L42.7-9.8 45-18.35Z" opacity="1" transform="matrix(1,0,0,1,0,0)" fill="#ffffff" class="undefined-text-0" data-fill-palette-color="primary" id="SvgjsPath1646" stroke-width="5" stroke="black" stroke-linejoin="round"></path></svg></g></svg></g><g transform="matrix(1,0,0,1,37.90715493462992,194.5781722542364)"><svg viewBox="0 0 114.56346465759843 24.522366200034792" height="24.522366200034792" width="114.56346465759843"><g transform="matrix(1,0,0,1,0,0)"><svg width="114.56346465759843" viewBox="2 -36.25 183.17999267578125 40" height="24.522366200034792" data-palette-color="#262626"><path d="M8.5-15L8.5 0 5 0 5-32.5 18.75-32.5 18.75-29.5 8.5-29.5 8.5-18 16.75-18 16.75-15 8.5-15ZM41.25-26.25L41.25 0 39.75 0 38.45-3.2Q37.4-1.4 35.7-0.33 34 0.75 31.95 0.75L31.95 0.75Q24.75 0.75 24.75-6.25L24.75-6.25 24.75-11.25Q24.75-18.25 31.95-18.25L31.95-18.25 37.75-18.25 37.75-26.45Q37.75-28.25 36.6-29.25 35.45-30.25 33.2-30.25L33.2-30.25Q28.75-30.25 28.75-26.45L28.75-26.45 28.75-23.5 25.25-23.5 25.25-26.25Q25.25-29.6 27.22-31.43 29.2-33.25 33.2-33.25 37.2-33.25 39.22-31.43 41.25-29.6 41.25-26.25L41.25-26.25ZM37.75-7.1L37.75-15.25 31.95-15.25Q29.85-15.25 29.05-14.2 28.25-13.15 28.25-11.25L28.25-11.25 28.25-6.25Q28.25-4.35 29.05-3.3 29.85-2.25 31.95-2.25 34.05-2.25 35.85-3.88 37.65-5.5 37.75-7.1L37.75-7.1ZM50.75 0L50.75-32.5 58.3-32.5Q62.2-32.5 64.22-30.65 66.25-28.8 66.25-25.5L66.25-25.5 66.25-22.5Q66.25-18.25 62.7-17.05L62.7-17.05Q66.75-15.95 66.75-11.5L66.75-11.5 66.75-7Q66.75-3.65 64.75-1.83 62.75 0 58.8 0L58.8 0 50.75 0ZM63.25-7L63.25-7 63.25-11.5Q63.25-13.4 62.1-14.58 60.95-15.75 58.8-15.75L58.8-15.75 54.25-15.75 54.25-3 58.8-3Q63.25-3 63.25-7ZM62.75-22.5L62.75-22.5 62.75-25.5Q62.75-27.4 61.6-28.45 60.45-29.5 58.3-29.5L58.3-29.5 54.25-29.5 54.25-18.25 58.3-18.25Q60.5-18.25 61.62-19.4 62.75-20.55 62.75-22.5ZM79.49-32.5L79.49 0 75.99 0 75.99-32.5 79.49-32.5ZM105.74-26.25L105.74-26.25 105.74-6.25Q105.74-2.9 103.62-1.07 101.49 0.75 97.27 0.75 93.04 0.75 90.89-1.07 88.74-2.9 88.74-6.25L88.74-6.25 88.74-26.25Q88.74-29.6 90.87-31.43 92.99-33.25 97.22-33.25 101.44-33.25 103.59-31.43 105.74-29.6 105.74-26.25ZM102.24-6.25L102.24-6.25 102.24-26.25Q102.24-30.25 97.24-30.25 92.24-30.25 92.24-26.25L92.24-26.25 92.24-6.25Q92.24-2.25 97.24-2.25 102.24-2.25 102.24-6.25ZM123.04 0L123.04 0 114.99 0 114.99-32.5 123.04-32.5Q126.94-32.5 128.96-30.65 130.99-28.8 130.99-25.5L130.99-25.5 130.99-7Q130.99-3.65 128.99-1.83 126.99 0 123.04 0ZM127.49-7L127.49-7 127.49-25.5Q127.49-27.4 126.34-28.45 125.19-29.5 123.04-29.5L123.04-29.5 118.49-29.5 118.49-3 123.04-3Q127.49-3 127.49-7ZM152.49-6.25L152.49-6.25 152.49-9 155.99-9 155.99-6.25Q155.99-2.9 153.94-1.07 151.89 0.75 147.79 0.75 143.69 0.75 141.59-1.07 139.49-2.9 139.49-6.25L139.49-6.25 139.49-26.25Q139.49-29.6 141.54-31.43 143.59-33.25 147.69-33.25 151.79-33.25 153.89-31.43 155.99-29.6 155.99-26.25L155.99-26.25 155.99-15.25 142.99-15.25 142.99-6.25Q142.99-2.25 147.74-2.25 152.49-2.25 152.49-6.25ZM142.99-26.25L142.99-26.25 142.99-18.25 152.49-18.25 152.49-26.25Q152.49-30.25 147.74-30.25 142.99-30.25 142.99-26.25ZM182.18-32.5L174.83 0 169.58 0 162.23-32.5 165.73-32.5 172.18-3.85 178.68-32.5 182.18-32.5Z" opacity="1" transform="matrix(1,0,0,1,0,0)" fill="#ffffff" class="undefined-text-1" data-fill-palette-color="secondary" id="SvgjsPath1645" stroke-width="5" stroke="black" stroke-linejoin="round"></path></svg></g></svg></g></svg></g></svg></g><g transform="matrix(1,0,0,1,0,32.64830631588133)"><svg viewBox="0 0 176.48019698639763 153.80392582250855" height="153.80392582250855" width="176.48019698639763"><g><svg xmlns="http://www.w3.org/2000/svg" xmlns:xlink="http://www.w3.org/1999/xlink" version="1.0" x="0" y="0" viewBox="1.1180000305175781 4.118575572967529 47.92100143432617 41.76354217529297" enable-background="new 0 0 50 50" xml:space="preserve" height="153.80392582250855" width="176.48019698639763" class="icon-icon-0" data-fill-palette-color="accent" id="SvgjsSvg1644"><g fill="black" data-fill-palette-color="accent" stroke-width="5" stroke="black" stroke-linejoin="round"><g fill="black" data-fill-palette-color="accent" stroke-width="5" stroke="black" stroke-linejoin="round"><polygon fill="#ffffff" points="10.821,24.951 21,32.193 21,39.035 1.118,24.891 21,11.118 21,17.9   " data-fill-palette-color="accent" stroke-width="5" stroke="black" stroke-linejoin="round"></polygon></g><g fill="black" data-fill-palette-color="accent" stroke-width="5" stroke="black" stroke-linejoin="round"><polygon fill="#ffffff" points="49.039,25.277 35.815,16.063 34.219,21.712 39.475,25.338 31.411,30.97 29,38.79 29,39.424   " data-fill-palette-color="accent" stroke-width="5" stroke="black" stroke-linejoin="round"></polygon></g><rect x="25.577" y="3.983" transform="matrix(0.9606 0.278 -0.278 0.9606 8.0575 -6.8179)" fill="#ffffff" width="4.981" height="42.035" data-fill-palette-color="accent" stroke-width="5" stroke="black" stroke-linejoin="round"></rect></g></svg></g></svg></g></svg></g></svg></g></svg></g></mask><mask id="2dba3d41-1dbb-491f-b9f0-e7a2f35300f2"><rect width="395.52" height="247.2" fill="white"></rect><g transform="matrix(1,0,0,1,43.07606216660807,37.08)" id="clone"><svg viewBox="0 0 309.36787566678385 173.04" height="173.04" width="309.36787566678385"><g><svg viewBox="0 0 309.36787566678385 173.04" height="173.04" width="309.36787566678385"><g><svg viewBox="0 0 389.4655309674923 217.8413493429522" height="173.04" width="309.36787566678385"><g transform="matrix(1,0,0,1,199.08775644063402,0)"><svg viewBox="0 0 190.37777452685827 217.8413493429522" height="217.8413493429522" width="190.37777452685827"><g id="SvgjsG1653"><svg viewBox="0 0 190.37777452685827 217.8413493429522" height="217.8413493429522" width="190.37777452685827" id="SvgjsSvg1652"><g><svg viewBox="0 0 190.37777452685827 171.9706128" height="171.9706128" width="190.37777452685827"><g transform="matrix(1,0,0,1,0,0)"><svg width="190.37777452685827" viewBox="-2.5499999821186066 -37.099998474121094 56.849998474121094 51.44999694824219" height="171.9706128" data-palette-color="#262626"><path d="M27.15-34.1Q28.95-33.15 28.95-31.7L28.95-31.7Q28.95-30.8 28-30.03 27.05-29.25 25.85-28.9L25.85-28.9 25.25-28.85Q18.8-28.5 13.45-27.9L13.45-27.9 10.65-16.7Q14.35-17.3 17.2-17.55 20.05-17.8 20.6-17.85L20.6-17.85 22.55-18Q24.5-17.15 24.5-15.7L24.5-15.7Q24.5-14.8 23.6-13.95 22.7-13.1 21.55-12.75L21.55-12.75 20.8-12.65Q18.55-12.4 16.6-12.25L16.6-12.25Q11.5-11.8 9.35-11.45L9.35-11.45 6.95-1.8Q6.7-0.75 6.43-0.28 6.15 0.2 5.48 0.43 4.8 0.65 3.45 0.65L3.45 0.65Q1.9 0.65 1.18 0.13 0.45-0.4 0.45-1.65L0.45-1.65Q0.45-2.2 0.6-2.7L0.6-2.7 7.45-29.75Q8-31.95 8.63-32.68 9.25-33.4 10.9-33.4L10.9-33.4Q12.65-33.4 13.75-32.95L13.75-32.95Q21.1-33.9 27.15-34.1L27.15-34.1ZM33.7 11.35Q31.4 11.35 29.37 10.35 27.35 9.35 25.97 7.78 24.6 6.2 24 4.6L24 4.6Q24.05 3.7 24.87 2.83 25.7 1.95 27.75 1.95L27.75 1.95Q28.4 1.95 28.87 2.45 29.35 2.95 29.95 4.05L29.95 4.05Q30.75 5.55 31.62 6.38 32.5 7.2 34.05 7.2L34.05 7.2Q35.8 7.2 37.42 5.83 39.05 4.45 40.22 2.1 41.4-0.25 41.85-3.1L41.85-3.1Q40.75-1.6 39.32-0.8 37.9 0 36.65 0L36.65 0Q32.65 0 30.32-1.78 28-3.55 28-8.1L28-8.1Q28-12.2 30.27-15.75 32.55-19.3 36.35-21.4 40.15-23.5 44.5-23.5L44.5-23.5Q47.35-23.5 48.72-22.35 50.1-21.2 50.4-19.45L50.4-19.45Q51.25-19.05 51.3-18.65L51.3-18.65Q51.3-18.5 51.1-17.6L51.1-17.6Q50.15-13.5 47.1-1.4L47.1-1.4 46.55 0.8Q45.3 5.65 41.77 8.5 38.25 11.35 33.7 11.35L33.7 11.35ZM45-18.35Q44.6-19.05 44.22-19.25 43.85-19.45 43.1-19.45L43.1-19.45Q40.75-19.45 38.55-17.93 36.35-16.4 35-13.98 33.65-11.55 33.65-9L33.65-9Q33.65-7.15 34.32-5.8 35-4.45 36.5-4.25L36.5-4.25Q38.5-4.6 40.27-6.05 42.05-7.5 42.7-9.8L42.7-9.8 45-18.35Z" opacity="1" transform="matrix(1,0,0,1,0,0)" fill="#ffffff" class="undefined-text-0" data-fill-palette-color="primary" id="SvgjsPath1651" stroke-width="5" stroke="black" stroke-linejoin="round"></path></svg></g></svg></g><g transform="matrix(1,0,0,1,0,194.5781722542364)"><svg viewBox="0 0 108.68079142471849 23.263177088715814" height="23.263177088715814" width="108.68079142471849"><g transform="matrix(1,0,0,1,0,0)"><svg width="108.68079142471849" viewBox="2 -36.25 183.17999267578125 40" height="23.263177088715814" data-palette-color="#262626"><path d="M8.5-15L8.5 0 5 0 5-32.5 18.75-32.5 18.75-29.5 8.5-29.5 8.5-18 16.75-18 16.75-15 8.5-15ZM41.25-26.25L41.25 0 39.75 0 38.45-3.2Q37.4-1.4 35.7-0.33 34 0.75 31.95 0.75L31.95 0.75Q24.75 0.75 24.75-6.25L24.75-6.25 24.75-11.25Q24.75-18.25 31.95-18.25L31.95-18.25 37.75-18.25 37.75-26.45Q37.75-28.25 36.6-29.25 35.45-30.25 33.2-30.25L33.2-30.25Q28.75-30.25 28.75-26.45L28.75-26.45 28.75-23.5 25.25-23.5 25.25-26.25Q25.25-29.6 27.22-31.43 29.2-33.25 33.2-33.25 37.2-33.25 39.22-31.43 41.25-29.6 41.25-26.25L41.25-26.25ZM37.75-7.1L37.75-15.25 31.95-15.25Q29.85-15.25 29.05-14.2 28.25-13.15 28.25-11.25L28.25-11.25 28.25-6.25Q28.25-4.35 29.05-3.3 29.85-2.25 31.95-2.25 34.05-2.25 35.85-3.88 37.65-5.5 37.75-7.1L37.75-7.1ZM50.75 0L50.75-32.5 58.3-32.5Q62.2-32.5 64.22-30.65 66.25-28.8 66.25-25.5L66.25-25.5 66.25-22.5Q66.25-18.25 62.7-17.05L62.7-17.05Q66.75-15.95 66.75-11.5L66.75-11.5 66.75-7Q66.75-3.65 64.75-1.83 62.75 0 58.8 0L58.8 0 50.75 0ZM63.25-7L63.25-7 63.25-11.5Q63.25-13.4 62.1-14.58 60.95-15.75 58.8-15.75L58.8-15.75 54.25-15.75 54.25-3 58.8-3Q63.25-3 63.25-7ZM62.75-22.5L62.75-22.5 62.75-25.5Q62.75-27.4 61.6-28.45 60.45-29.5 58.3-29.5L58.3-29.5 54.25-29.5 54.25-18.25 58.3-18.25Q60.5-18.25 61.62-19.4 62.75-20.55 62.75-22.5ZM79.49-32.5L79.49 0 75.99 0 75.99-32.5 79.49-32.5ZM105.74-26.25L105.74-26.25 105.74-6.25Q105.74-2.9 103.62-1.07 101.49 0.75 97.27 0.75 93.04 0.75 90.89-1.07 88.74-2.9 88.74-6.25L88.74-6.25 88.74-26.25Q88.74-29.6 90.87-31.43 92.99-33.25 97.22-33.25 101.44-33.25 103.59-31.43 105.74-29.6 105.74-26.25ZM102.24-6.25L102.24-6.25 102.24-26.25Q102.24-30.25 97.24-30.25 92.24-30.25 92.24-26.25L92.24-26.25 92.24-6.25Q92.24-2.25 97.24-2.25 102.24-2.25 102.24-6.25ZM123.04 0L123.04 0 114.99 0 114.99-32.5 123.04-32.5Q126.94-32.5 128.96-30.65 130.99-28.8 130.99-25.5L130.99-25.5 130.99-7Q130.99-3.65 128.99-1.83 126.99 0 123.04 0ZM127.49-7L127.49-7 127.49-25.5Q127.49-27.4 126.34-28.45 125.19-29.5 123.04-29.5L123.04-29.5 118.49-29.5 118.49-3 123.04-3Q127.49-3 127.49-7ZM152.49-6.25L152.49-6.25 152.49-9 155.99-9 155.99-6.25Q155.99-2.9 153.94-1.07 151.89 0.75 147.79 0.75 143.69 0.75 141.59-1.07 139.49-2.9 139.49-6.25L139.49-6.25 139.49-26.25Q139.49-29.6 141.54-31.43 143.59-33.25 147.69-33.25 151.79-33.25 153.89-31.43 155.99-29.6 155.99-26.25L155.99-26.25 155.99-15.25 142.99-15.25 142.99-6.25Q142.99-2.25 147.74-2.25 152.49-2.25 152.49-6.25ZM142.99-26.25L142.99-26.25 142.99-18.25 152.49-18.25 152.49-26.25Q152.49-30.25 147.74-30.25 142.99-30.25 142.99-26.25ZM182.18-32.5L174.83 0 169.58 0 162.23-32.5 165.73-32.5 172.18-3.85 178.68-32.5 182.18-32.5Z" opacity="1" transform="matrix(1,0,0,1,0,0)" fill="#ffffff" class="undefined-text-1" data-fill-palette-color="secondary" id="SvgjsPath1650" stroke-width="5" stroke="black" stroke-linejoin="round"></path></svg></g></svg></g></svg></g></svg></g><g transform="matrix(1,0,0,1,0,32.018711760221834)"><svg viewBox="0 0 176.48019698639763 153.80392582250855" height="153.80392582250855" width="176.48019698639763"><g><svg xmlns="http://www.w3.org/2000/svg" xmlns:xlink="http://www.w3.org/1999/xlink" version="1.0" x="0" y="0" viewBox="1.1180000305175781 4.118575572967529 47.92100143432617 41.76354217529297" enable-background="new 0 0 50 50" xml:space="preserve" height="153.80392582250855" width="176.48019698639763" class="icon-icon-0" data-fill-palette-color="accent" id="SvgjsSvg1649"><g fill="black" data-fill-palette-color="accent" stroke-width="5" stroke="black" stroke-linejoin="round"><g fill="black" data-fill-palette-color="accent" stroke-width="5" stroke="black" stroke-linejoin="round"><polygon fill="#ffffff" points="10.821,24.951 21,32.193 21,39.035 1.118,24.891 21,11.118 21,17.9   " data-fill-palette-color="accent" stroke-width="5" stroke="black" stroke-linejoin="round"></polygon></g><g fill="black" data-fill-palette-color="accent" stroke-width="5" stroke="black" stroke-linejoin="round"><polygon fill="#ffffff" points="49.039,25.277 35.815,16.063 34.219,21.712 39.475,25.338 31.411,30.97 29,38.79 29,39.424   " data-fill-palette-color="accent" stroke-width="5" stroke="black" stroke-linejoin="round"></polygon></g><rect x="25.577" y="3.983" transform="matrix(0.9606 0.278 -0.278 0.9606 8.0575 -6.8179)" fill="#ffffff" width="4.981" height="42.035" data-fill-palette-color="accent" stroke-width="5" stroke="black" stroke-linejoin="round"></rect></g></svg></g></svg></g></svg></g></svg></g></svg></g></mask><mask id="998d9e7c-b40b-4e75-abfc-cc68286d7569"><rect width="395.52" height="247.2" fill="white"></rect><g transform="matrix(1,0,0,1,43.96504368892596,37.08)" id="clone"><svg viewBox="0 0 307.58991262214806 173.04" height="173.04" width="307.58991262214806"><g><svg viewBox="0 0 307.58991262214806 173.04" height="173.04" width="307.58991262214806"><g><svg viewBox="0 0 389.4655309674923 219.1005384542712" height="173.04" width="307.58991262214806"><g transform="matrix(1,0,0,1,199.08775644063402,0)"><svg viewBox="0 0 190.37777452685827 219.1005384542712" height="219.1005384542712" width="190.37777452685827"><g id="SvgjsG1658"><svg viewBox="0 0 190.37777452685827 219.1005384542712" height="219.1005384542712" width="190.37777452685827" id="SvgjsSvg1657"><g><svg viewBox="0 0 190.37777452685827 171.9706128" height="171.9706128" width="190.37777452685827"><g transform="matrix(1,0,0,1,0,0)"><svg width="190.37777452685827" viewBox="-2.5499999821186066 -37.099998474121094 56.849998474121094 51.44999694824219" height="171.9706128" data-palette-color="#262626"><path d="M27.15-34.1Q28.95-33.15 28.95-31.7L28.95-31.7Q28.95-30.8 28-30.03 27.05-29.25 25.85-28.9L25.85-28.9 25.25-28.85Q18.8-28.5 13.45-27.9L13.45-27.9 10.65-16.7Q14.35-17.3 17.2-17.55 20.05-17.8 20.6-17.85L20.6-17.85 22.55-18Q24.5-17.15 24.5-15.7L24.5-15.7Q24.5-14.8 23.6-13.95 22.7-13.1 21.55-12.75L21.55-12.75 20.8-12.65Q18.55-12.4 16.6-12.25L16.6-12.25Q11.5-11.8 9.35-11.45L9.35-11.45 6.95-1.8Q6.7-0.75 6.43-0.28 6.15 0.2 5.48 0.43 4.8 0.65 3.45 0.65L3.45 0.65Q1.9 0.65 1.18 0.13 0.45-0.4 0.45-1.65L0.45-1.65Q0.45-2.2 0.6-2.7L0.6-2.7 7.45-29.75Q8-31.95 8.63-32.68 9.25-33.4 10.9-33.4L10.9-33.4Q12.65-33.4 13.75-32.95L13.75-32.95Q21.1-33.9 27.15-34.1L27.15-34.1ZM33.7 11.35Q31.4 11.35 29.37 10.35 27.35 9.35 25.97 7.78 24.6 6.2 24 4.6L24 4.6Q24.05 3.7 24.87 2.83 25.7 1.95 27.75 1.95L27.75 1.95Q28.4 1.95 28.87 2.45 29.35 2.95 29.95 4.05L29.95 4.05Q30.75 5.55 31.62 6.38 32.5 7.2 34.05 7.2L34.05 7.2Q35.8 7.2 37.42 5.83 39.05 4.45 40.22 2.1 41.4-0.25 41.85-3.1L41.85-3.1Q40.75-1.6 39.32-0.8 37.9 0 36.65 0L36.65 0Q32.65 0 30.32-1.78 28-3.55 28-8.1L28-8.1Q28-12.2 30.27-15.75 32.55-19.3 36.35-21.4 40.15-23.5 44.5-23.5L44.5-23.5Q47.35-23.5 48.72-22.35 50.1-21.2 50.4-19.45L50.4-19.45Q51.25-19.05 51.3-18.65L51.3-18.65Q51.3-18.5 51.1-17.6L51.1-17.6Q50.15-13.5 47.1-1.4L47.1-1.4 46.55 0.8Q45.3 5.65 41.77 8.5 38.25 11.35 33.7 11.35L33.7 11.35ZM45-18.35Q44.6-19.05 44.22-19.25 43.85-19.45 43.1-19.45L43.1-19.45Q40.75-19.45 38.55-17.93 36.35-16.4 35-13.98 33.65-11.55 33.65-9L33.65-9Q33.65-7.15 34.32-5.8 35-4.45 36.5-4.25L36.5-4.25Q38.5-4.6 40.27-6.05 42.05-7.5 42.7-9.8L42.7-9.8 45-18.35Z" opacity="1" transform="matrix(1,0,0,1,0,0)" fill="#ffffff" class="undefined-text-0" data-fill-palette-color="primary" id="SvgjsPath1656" stroke-width="5" stroke="black" stroke-linejoin="round"></path></svg></g></svg></g><g transform="matrix(1,0,0,1,37.90715493462992,194.5781722542364)"><svg viewBox="0 0 114.56346465759843 24.522366200034792" height="24.522366200034792" width="114.56346465759843"><g transform="matrix(1,0,0,1,0,0)"><svg width="114.56346465759843" viewBox="2 -36.25 183.17999267578125 40" height="24.522366200034792" data-palette-color="#262626"><path d="M8.5-15L8.5 0 5 0 5-32.5 18.75-32.5 18.75-29.5 8.5-29.5 8.5-18 16.75-18 16.75-15 8.5-15ZM41.25-26.25L41.25 0 39.75 0 38.45-3.2Q37.4-1.4 35.7-0.33 34 0.75 31.95 0.75L31.95 0.75Q24.75 0.75 24.75-6.25L24.75-6.25 24.75-11.25Q24.75-18.25 31.95-18.25L31.95-18.25 37.75-18.25 37.75-26.45Q37.75-28.25 36.6-29.25 35.45-30.25 33.2-30.25L33.2-30.25Q28.75-30.25 28.75-26.45L28.75-26.45 28.75-23.5 25.25-23.5 25.25-26.25Q25.25-29.6 27.22-31.43 29.2-33.25 33.2-33.25 37.2-33.25 39.22-31.43 41.25-29.6 41.25-26.25L41.25-26.25ZM37.75-7.1L37.75-15.25 31.95-15.25Q29.85-15.25 29.05-14.2 28.25-13.15 28.25-11.25L28.25-11.25 28.25-6.25Q28.25-4.35 29.05-3.3 29.85-2.25 31.95-2.25 34.05-2.25 35.85-3.88 37.65-5.5 37.75-7.1L37.75-7.1ZM50.75 0L50.75-32.5 58.3-32.5Q62.2-32.5 64.22-30.65 66.25-28.8 66.25-25.5L66.25-25.5 66.25-22.5Q66.25-18.25 62.7-17.05L62.7-17.05Q66.75-15.95 66.75-11.5L66.75-11.5 66.75-7Q66.75-3.65 64.75-1.83 62.75 0 58.8 0L58.8 0 50.75 0ZM63.25-7L63.25-7 63.25-11.5Q63.25-13.4 62.1-14.58 60.95-15.75 58.8-15.75L58.8-15.75 54.25-15.75 54.25-3 58.8-3Q63.25-3 63.25-7ZM62.75-22.5L62.75-22.5 62.75-25.5Q62.75-27.4 61.6-28.45 60.45-29.5 58.3-29.5L58.3-29.5 54.25-29.5 54.25-18.25 58.3-18.25Q60.5-18.25 61.62-19.4 62.75-20.55 62.75-22.5ZM79.49-32.5L79.49 0 75.99 0 75.99-32.5 79.49-32.5ZM105.74-26.25L105.74-26.25 105.74-6.25Q105.74-2.9 103.62-1.07 101.49 0.75 97.27 0.75 93.04 0.75 90.89-1.07 88.74-2.9 88.74-6.25L88.74-6.25 88.74-26.25Q88.74-29.6 90.87-31.43 92.99-33.25 97.22-33.25 101.44-33.25 103.59-31.43 105.74-29.6 105.74-26.25ZM102.24-6.25L102.24-6.25 102.24-26.25Q102.24-30.25 97.24-30.25 92.24-30.25 92.24-26.25L92.24-26.25 92.24-6.25Q92.24-2.25 97.24-2.25 102.24-2.25 102.24-6.25ZM123.04 0L123.04 0 114.99 0 114.99-32.5 123.04-32.5Q126.94-32.5 128.96-30.65 130.99-28.8 130.99-25.5L130.99-25.5 130.99-7Q130.99-3.65 128.99-1.83 126.99 0 123.04 0ZM127.49-7L127.49-7 127.49-25.5Q127.49-27.4 126.34-28.45 125.19-29.5 123.04-29.5L123.04-29.5 118.49-29.5 118.49-3 123.04-3Q127.49-3 127.49-7ZM152.49-6.25L152.49-6.25 152.49-9 155.99-9 155.99-6.25Q155.99-2.9 153.94-1.07 151.89 0.75 147.79 0.75 143.69 0.75 141.59-1.07 139.49-2.9 139.49-6.25L139.49-6.25 139.49-26.25Q139.49-29.6 141.54-31.43 143.59-33.25 147.69-33.25 151.79-33.25 153.89-31.43 155.99-29.6 155.99-26.25L155.99-26.25 155.99-15.25 142.99-15.25 142.99-6.25Q142.99-2.25 147.74-2.25 152.49-2.25 152.49-6.25ZM142.99-26.25L142.99-26.25 142.99-18.25 152.49-18.25 152.49-26.25Q152.49-30.25 147.74-30.25 142.99-30.25 142.99-26.25ZM182.18-32.5L174.83 0 169.58 0 162.23-32.5 165.73-32.5 172.18-3.85 178.68-32.5 182.18-32.5Z" opacity="1" transform="matrix(1,0,0,1,0,0)" fill="#ffffff" class="undefined-text-1" data-fill-palette-color="secondary" id="SvgjsPath1655" stroke-width="5" stroke="black" stroke-linejoin="round"></path></svg></g></svg></g></svg></g></svg></g><g transform="matrix(1,0,0,1,0,32.64830631588133)"><svg viewBox="0 0 176.48019698639763 153.80392582250855" height="153.80392582250855" width="176.48019698639763"><g><svg xmlns="http://www.w3.org/2000/svg" xmlns:xlink="http://www.w3.org/1999/xlink" version="1.0" x="0" y="0" viewBox="1.1180000305175781 4.118575572967529 47.92100143432617 41.76354217529297" enable-background="new 0 0 50 50" xml:space="preserve" height="153.80392582250855" width="176.48019698639763" class="icon-icon-0" data-fill-palette-color="accent" id="SvgjsSvg1654"><g fill="black" data-fill-palette-color="accent" stroke-width="5" stroke="black" stroke-linejoin="round"><g fill="black" data-fill-palette-color="accent" stroke-width="5" stroke="black" stroke-linejoin="round"><polygon fill="#ffffff" points="10.821,24.951 21,32.193 21,39.035 1.118,24.891 21,11.118 21,17.9   " data-fill-palette-color="accent" stroke-width="5" stroke="black" stroke-linejoin="round"></polygon></g><g fill="black" data-fill-palette-color="accent" stroke-width="5" stroke="black" stroke-linejoin="round"><polygon fill="#ffffff" points="49.039,25.277 35.815,16.063 34.219,21.712 39.475,25.338 31.411,30.97 29,38.79 29,39.424   " data-fill-palette-color="accent" stroke-width="5" stroke="black" stroke-linejoin="round"></polygon></g><rect x="25.577" y="3.983" transform="matrix(0.9606 0.278 -0.278 0.9606 8.0575 -6.8179)" fill="#ffffff" width="4.981" height="42.035" data-fill-palette-color="accent" stroke-width="5" stroke="black" stroke-linejoin="round"></rect></g></svg></g></svg></g></svg></g></svg></g></svg></g></mask><mask id="7257cffb-5eb9-4f9f-8442-d595c45cf0db"><rect width="395.52" height="247.2" fill="white"></rect><g transform="matrix(1,0,0,1,53.91644465606544,37.08)" id="clone"><svg viewBox="0 0 287.6871106878691 173.04" height="173.04" width="287.6871106878691"><g><svg viewBox="0 0 287.6871106878691 173.04" height="173.04" width="287.6871106878691"><g><svg viewBox="0 0 389.4655309674923 234.2583764614124" height="173.04" width="287.6871106878691"><g transform="matrix(1,0,0,1,199.08775644063402,0)"><svg viewBox="0 0 190.37777452685827 234.2583764614124" height="234.2583764614124" width="190.37777452685827"><g id="SvgjsG1663"><svg viewBox="0 0 190.37777452685827 234.2583764614124" height="234.2583764614124" width="190.37777452685827" id="SvgjsSvg1662"><g><svg viewBox="0 0 190.37777452685827 171.9706128" height="171.9706128" width="190.37777452685827"><g transform="matrix(1,0,0,1,0,0)"><svg width="190.37777452685827" viewBox="-2.5499999821186066 -37.099998474121094 56.849998474121094 51.44999694824219" height="171.9706128" data-palette-color="#262626"><path d="M27.15-34.1Q28.95-33.15 28.95-31.7L28.95-31.7Q28.95-30.8 28-30.03 27.05-29.25 25.85-28.9L25.85-28.9 25.25-28.85Q18.8-28.5 13.45-27.9L13.45-27.9 10.65-16.7Q14.35-17.3 17.2-17.55 20.05-17.8 20.6-17.85L20.6-17.85 22.55-18Q24.5-17.15 24.5-15.7L24.5-15.7Q24.5-14.8 23.6-13.95 22.7-13.1 21.55-12.75L21.55-12.75 20.8-12.65Q18.55-12.4 16.6-12.25L16.6-12.25Q11.5-11.8 9.35-11.45L9.35-11.45 6.95-1.8Q6.7-0.75 6.43-0.28 6.15 0.2 5.48 0.43 4.8 0.65 3.45 0.65L3.45 0.65Q1.9 0.65 1.18 0.13 0.45-0.4 0.45-1.65L0.45-1.65Q0.45-2.2 0.6-2.7L0.6-2.7 7.45-29.75Q8-31.95 8.63-32.68 9.25-33.4 10.9-33.4L10.9-33.4Q12.65-33.4 13.75-32.95L13.75-32.95Q21.1-33.9 27.15-34.1L27.15-34.1ZM33.7 11.35Q31.4 11.35 29.37 10.35 27.35 9.35 25.97 7.78 24.6 6.2 24 4.6L24 4.6Q24.05 3.7 24.87 2.83 25.7 1.95 27.75 1.95L27.75 1.95Q28.4 1.95 28.87 2.45 29.35 2.95 29.95 4.05L29.95 4.05Q30.75 5.55 31.62 6.38 32.5 7.2 34.05 7.2L34.05 7.2Q35.8 7.2 37.42 5.83 39.05 4.45 40.22 2.1 41.4-0.25 41.85-3.1L41.85-3.1Q40.75-1.6 39.32-0.8 37.9 0 36.65 0L36.65 0Q32.65 0 30.32-1.78 28-3.55 28-8.1L28-8.1Q28-12.2 30.27-15.75 32.55-19.3 36.35-21.4 40.15-23.5 44.5-23.5L44.5-23.5Q47.35-23.5 48.72-22.35 50.1-21.2 50.4-19.45L50.4-19.45Q51.25-19.05 51.3-18.65L51.3-18.65Q51.3-18.5 51.1-17.6L51.1-17.6Q50.15-13.5 47.1-1.4L47.1-1.4 46.55 0.8Q45.3 5.65 41.77 8.5 38.25 11.35 33.7 11.35L33.7 11.35ZM45-18.35Q44.6-19.05 44.22-19.25 43.85-19.45 43.1-19.45L43.1-19.45Q40.75-19.45 38.55-17.93 36.35-16.4 35-13.98 33.65-11.55 33.65-9L33.65-9Q33.65-7.15 34.32-5.8 35-4.45 36.5-4.25L36.5-4.25Q38.5-4.6 40.27-6.05 42.05-7.5 42.7-9.8L42.7-9.8 45-18.35Z" opacity="1" transform="matrix(1,0,0,1,0,0)" fill="#ffffff" class="undefined-text-0" data-fill-palette-color="primary" id="SvgjsPath1661" stroke-width="5" stroke="black" stroke-linejoin="round"></path></svg></g></svg></g><g transform="matrix(1,0,0,1,2.5,194.5781722542364)"><svg viewBox="0 0 185.37777452685827 39.68020420717603" height="39.68020420717603" width="185.37777452685827"><g transform="matrix(1,0,0,1,0,0)"><svg width="185.37777452685827" viewBox="2 -36.25 183.17999267578125 40" height="39.68020420717603" data-palette-color="#262626"><path d="M8.5-15L8.5 0 5 0 5-32.5 18.75-32.5 18.75-29.5 8.5-29.5 8.5-18 16.75-18 16.75-15 8.5-15ZM41.25-26.25L41.25 0 39.75 0 38.45-3.2Q37.4-1.4 35.7-0.33 34 0.75 31.95 0.75L31.95 0.75Q24.75 0.75 24.75-6.25L24.75-6.25 24.75-11.25Q24.75-18.25 31.95-18.25L31.95-18.25 37.75-18.25 37.75-26.45Q37.75-28.25 36.6-29.25 35.45-30.25 33.2-30.25L33.2-30.25Q28.75-30.25 28.75-26.45L28.75-26.45 28.75-23.5 25.25-23.5 25.25-26.25Q25.25-29.6 27.22-31.43 29.2-33.25 33.2-33.25 37.2-33.25 39.22-31.43 41.25-29.6 41.25-26.25L41.25-26.25ZM37.75-7.1L37.75-15.25 31.95-15.25Q29.85-15.25 29.05-14.2 28.25-13.15 28.25-11.25L28.25-11.25 28.25-6.25Q28.25-4.35 29.05-3.3 29.85-2.25 31.95-2.25 34.05-2.25 35.85-3.88 37.65-5.5 37.75-7.1L37.75-7.1ZM50.75 0L50.75-32.5 58.3-32.5Q62.2-32.5 64.22-30.65 66.25-28.8 66.25-25.5L66.25-25.5 66.25-22.5Q66.25-18.25 62.7-17.05L62.7-17.05Q66.75-15.95 66.75-11.5L66.75-11.5 66.75-7Q66.75-3.65 64.75-1.83 62.75 0 58.8 0L58.8 0 50.75 0ZM63.25-7L63.25-7 63.25-11.5Q63.25-13.4 62.1-14.58 60.95-15.75 58.8-15.75L58.8-15.75 54.25-15.75 54.25-3 58.8-3Q63.25-3 63.25-7ZM62.75-22.5L62.75-22.5 62.75-25.5Q62.75-27.4 61.6-28.45 60.45-29.5 58.3-29.5L58.3-29.5 54.25-29.5 54.25-18.25 58.3-18.25Q60.5-18.25 61.62-19.4 62.75-20.55 62.75-22.5ZM79.49-32.5L79.49 0 75.99 0 75.99-32.5 79.49-32.5ZM105.74-26.25L105.74-26.25 105.74-6.25Q105.74-2.9 103.62-1.07 101.49 0.75 97.27 0.75 93.04 0.75 90.89-1.07 88.74-2.9 88.74-6.25L88.74-6.25 88.74-26.25Q88.74-29.6 90.87-31.43 92.99-33.25 97.22-33.25 101.44-33.25 103.59-31.43 105.74-29.6 105.74-26.25ZM102.24-6.25L102.24-6.25 102.24-26.25Q102.24-30.25 97.24-30.25 92.24-30.25 92.24-26.25L92.24-26.25 92.24-6.25Q92.24-2.25 97.24-2.25 102.24-2.25 102.24-6.25ZM123.04 0L123.04 0 114.99 0 114.99-32.5 123.04-32.5Q126.94-32.5 128.96-30.65 130.99-28.8 130.99-25.5L130.99-25.5 130.99-7Q130.99-3.65 128.99-1.83 126.99 0 123.04 0ZM127.49-7L127.49-7 127.49-25.5Q127.49-27.4 126.34-28.45 125.19-29.5 123.04-29.5L123.04-29.5 118.49-29.5 118.49-3 123.04-3Q127.49-3 127.49-7ZM152.49-6.25L152.49-6.25 152.49-9 155.99-9 155.99-6.25Q155.99-2.9 153.94-1.07 151.89 0.75 147.79 0.75 143.69 0.75 141.59-1.07 139.49-2.9 139.49-6.25L139.49-6.25 139.49-26.25Q139.49-29.6 141.54-31.43 143.59-33.25 147.69-33.25 151.79-33.25 153.89-31.43 155.99-29.6 155.99-26.25L155.99-26.25 155.99-15.25 142.99-15.25 142.99-6.25Q142.99-2.25 147.74-2.25 152.49-2.25 152.49-6.25ZM142.99-26.25L142.99-26.25 142.99-18.25 152.49-18.25 152.49-26.25Q152.49-30.25 147.74-30.25 142.99-30.25 142.99-26.25ZM182.18-32.5L174.83 0 169.58 0 162.23-32.5 165.73-32.5 172.18-3.85 178.68-32.5 182.18-32.5Z" opacity="1" transform="matrix(1,0,0,1,0,0)" fill="#ffffff" class="undefined-text-1" data-fill-palette-color="secondary" id="SvgjsPath1660" stroke-width="5" stroke="black" stroke-linejoin="round"></path></svg></g></svg></g></svg></g></svg></g><g transform="matrix(1,0,0,1,0,40.22722531945193)"><svg viewBox="0 0 176.48019698639763 153.80392582250855" height="153.80392582250855" width="176.48019698639763"><g><svg xmlns="http://www.w3.org/2000/svg" xmlns:xlink="http://www.w3.org/1999/xlink" version="1.0" x="0" y="0" viewBox="1.1180000305175781 4.118575572967529 47.92100143432617 41.76354217529297" enable-background="new 0 0 50 50" xml:space="preserve" height="153.80392582250855" width="176.48019698639763" class="icon-icon-0" data-fill-palette-color="accent" id="SvgjsSvg1659"><g fill="black" data-fill-palette-color="accent" stroke-width="5" stroke="black" stroke-linejoin="round"><g fill="black" data-fill-palette-color="accent" stroke-width="5" stroke="black" stroke-linejoin="round"><polygon fill="#ffffff" points="10.821,24.951 21,32.193 21,39.035 1.118,24.891 21,11.118 21,17.9   " data-fill-palette-color="accent" stroke-width="5" stroke="black" stroke-linejoin="round"></polygon></g><g fill="black" data-fill-palette-color="accent" stroke-width="5" stroke="black" stroke-linejoin="round"><polygon fill="#ffffff" points="49.039,25.277 35.815,16.063 34.219,21.712 39.475,25.338 31.411,30.97 29,38.79 29,39.424   " data-fill-palette-color="accent" stroke-width="5" stroke="black" stroke-linejoin="round"></polygon></g><rect x="25.577" y="3.983" transform="matrix(0.9606 0.278 -0.278 0.9606 8.0575 -6.8179)" fill="#ffffff" width="4.981" height="42.035" data-fill-palette-color="accent" stroke-width="5" stroke="black" stroke-linejoin="round"></rect></g></svg></g></svg></g></svg></g></svg></g></svg></g></mask><mask id="cb7533f9-5592-4692-9008-661752e4947b"><rect width="395.52" height="247.2" fill="white"></rect><g transform="matrix(1,0,0,1,53.91644465606544,37.08)" id="clone"><svg viewBox="0 0 287.6871106878691 173.04" height="173.04" width="287.6871106878691"><g><svg viewBox="0 0 287.6871106878691 173.04" height="173.04" width="287.6871106878691"><g><svg viewBox="0 0 389.4655309674923 234.2583764614124" height="173.04" width="287.6871106878691"><g transform="matrix(1,0,0,1,199.08775644063402,0)"><svg viewBox="0 0 190.37777452685827 234.2583764614124" height="234.2583764614124" width="190.37777452685827"><g id="SvgjsG1668"><svg viewBox="0 0 190.37777452685827 234.2583764614124" height="234.2583764614124" width="190.37777452685827" id="SvgjsSvg1667"><g><svg viewBox="0 0 190.37777452685827 171.9706128" height="171.9706128" width="190.37777452685827"><g transform="matrix(1,0,0,1,0,0)"><svg width="190.37777452685827" viewBox="-2.5499999821186066 -37.099998474121094 56.849998474121094 51.44999694824219" height="171.9706128" data-palette-color="#262626"><path d="M27.15-34.1Q28.95-33.15 28.95-31.7L28.95-31.7Q28.95-30.8 28-30.03 27.05-29.25 25.85-28.9L25.85-28.9 25.25-28.85Q18.8-28.5 13.45-27.9L13.45-27.9 10.65-16.7Q14.35-17.3 17.2-17.55 20.05-17.8 20.6-17.85L20.6-17.85 22.55-18Q24.5-17.15 24.5-15.7L24.5-15.7Q24.5-14.8 23.6-13.95 22.7-13.1 21.55-12.75L21.55-12.75 20.8-12.65Q18.55-12.4 16.6-12.25L16.6-12.25Q11.5-11.8 9.35-11.45L9.35-11.45 6.95-1.8Q6.7-0.75 6.43-0.28 6.15 0.2 5.48 0.43 4.8 0.65 3.45 0.65L3.45 0.65Q1.9 0.65 1.18 0.13 0.45-0.4 0.45-1.65L0.45-1.65Q0.45-2.2 0.6-2.7L0.6-2.7 7.45-29.75Q8-31.95 8.63-32.68 9.25-33.4 10.9-33.4L10.9-33.4Q12.65-33.4 13.75-32.95L13.75-32.95Q21.1-33.9 27.15-34.1L27.15-34.1ZM33.7 11.35Q31.4 11.35 29.37 10.35 27.35 9.35 25.97 7.78 24.6 6.2 24 4.6L24 4.6Q24.05 3.7 24.87 2.83 25.7 1.95 27.75 1.95L27.75 1.95Q28.4 1.95 28.87 2.45 29.35 2.95 29.95 4.05L29.95 4.05Q30.75 5.55 31.62 6.38 32.5 7.2 34.05 7.2L34.05 7.2Q35.8 7.2 37.42 5.83 39.05 4.45 40.22 2.1 41.4-0.25 41.85-3.1L41.85-3.1Q40.75-1.6 39.32-0.8 37.9 0 36.65 0L36.65 0Q32.65 0 30.32-1.78 28-3.55 28-8.1L28-8.1Q28-12.2 30.27-15.75 32.55-19.3 36.35-21.4 40.15-23.5 44.5-23.5L44.5-23.5Q47.35-23.5 48.72-22.35 50.1-21.2 50.4-19.45L50.4-19.45Q51.25-19.05 51.3-18.65L51.3-18.65Q51.3-18.5 51.1-17.6L51.1-17.6Q50.15-13.5 47.1-1.4L47.1-1.4 46.55 0.8Q45.3 5.65 41.77 8.5 38.25 11.35 33.7 11.35L33.7 11.35ZM45-18.35Q44.6-19.05 44.22-19.25 43.85-19.45 43.1-19.45L43.1-19.45Q40.75-19.45 38.55-17.93 36.35-16.4 35-13.98 33.65-11.55 33.65-9L33.65-9Q33.65-7.15 34.32-5.8 35-4.45 36.5-4.25L36.5-4.25Q38.5-4.6 40.27-6.05 42.05-7.5 42.7-9.8L42.7-9.8 45-18.35Z" opacity="1" transform="matrix(1,0,0,1,0,0)" fill="#ffffff" class="undefined-text-0" data-fill-palette-color="primary" id="SvgjsPath1666" stroke-width="5" stroke="black" stroke-linejoin="round"></path></svg></g></svg></g><g transform="matrix(1,0,0,1,2.5,194.5781722542364)"><svg viewBox="0 0 185.37777452685827 39.68020420717603" height="39.68020420717603" width="185.37777452685827"><g transform="matrix(1,0,0,1,0,0)"><svg width="185.37777452685827" viewBox="2 -36.25 183.17999267578125 40" height="39.68020420717603" data-palette-color="#262626"><path d="M8.5-15L8.5 0 5 0 5-32.5 18.75-32.5 18.75-29.5 8.5-29.5 8.5-18 16.75-18 16.75-15 8.5-15ZM41.25-26.25L41.25 0 39.75 0 38.45-3.2Q37.4-1.4 35.7-0.33 34 0.75 31.95 0.75L31.95 0.75Q24.75 0.75 24.75-6.25L24.75-6.25 24.75-11.25Q24.75-18.25 31.95-18.25L31.95-18.25 37.75-18.25 37.75-26.45Q37.75-28.25 36.6-29.25 35.45-30.25 33.2-30.25L33.2-30.25Q28.75-30.25 28.75-26.45L28.75-26.45 28.75-23.5 25.25-23.5 25.25-26.25Q25.25-29.6 27.22-31.43 29.2-33.25 33.2-33.25 37.2-33.25 39.22-31.43 41.25-29.6 41.25-26.25L41.25-26.25ZM37.75-7.1L37.75-15.25 31.95-15.25Q29.85-15.25 29.05-14.2 28.25-13.15 28.25-11.25L28.25-11.25 28.25-6.25Q28.25-4.35 29.05-3.3 29.85-2.25 31.95-2.25 34.05-2.25 35.85-3.88 37.65-5.5 37.75-7.1L37.75-7.1ZM50.75 0L50.75-32.5 58.3-32.5Q62.2-32.5 64.22-30.65 66.25-28.8 66.25-25.5L66.25-25.5 66.25-22.5Q66.25-18.25 62.7-17.05L62.7-17.05Q66.75-15.95 66.75-11.5L66.75-11.5 66.75-7Q66.75-3.65 64.75-1.83 62.75 0 58.8 0L58.8 0 50.75 0ZM63.25-7L63.25-7 63.25-11.5Q63.25-13.4 62.1-14.58 60.95-15.75 58.8-15.75L58.8-15.75 54.25-15.75 54.25-3 58.8-3Q63.25-3 63.25-7ZM62.75-22.5L62.75-22.5 62.75-25.5Q62.75-27.4 61.6-28.45 60.45-29.5 58.3-29.5L58.3-29.5 54.25-29.5 54.25-18.25 58.3-18.25Q60.5-18.25 61.62-19.4 62.75-20.55 62.75-22.5ZM79.49-32.5L79.49 0 75.99 0 75.99-32.5 79.49-32.5ZM105.74-26.25L105.74-26.25 105.74-6.25Q105.74-2.9 103.62-1.07 101.49 0.75 97.27 0.75 93.04 0.75 90.89-1.07 88.74-2.9 88.74-6.25L88.74-6.25 88.74-26.25Q88.74-29.6 90.87-31.43 92.99-33.25 97.22-33.25 101.44-33.25 103.59-31.43 105.74-29.6 105.74-26.25ZM102.24-6.25L102.24-6.25 102.24-26.25Q102.24-30.25 97.24-30.25 92.24-30.25 92.24-26.25L92.24-26.25 92.24-6.25Q92.24-2.25 97.24-2.25 102.24-2.25 102.24-6.25ZM123.04 0L123.04 0 114.99 0 114.99-32.5 123.04-32.5Q126.94-32.5 128.96-30.65 130.99-28.8 130.99-25.5L130.99-25.5 130.99-7Q130.99-3.65 128.99-1.83 126.99 0 123.04 0ZM127.49-7L127.49-7 127.49-25.5Q127.49-27.4 126.34-28.45 125.19-29.5 123.04-29.5L123.04-29.5 118.49-29.5 118.49-3 123.04-3Q127.49-3 127.49-7ZM152.49-6.25L152.49-6.25 152.49-9 155.99-9 155.99-6.25Q155.99-2.9 153.94-1.07 151.89 0.75 147.79 0.75 143.69 0.75 141.59-1.07 139.49-2.9 139.49-6.25L139.49-6.25 139.49-26.25Q139.49-29.6 141.54-31.43 143.59-33.25 147.69-33.25 151.79-33.25 153.89-31.43 155.99-29.6 155.99-26.25L155.99-26.25 155.99-15.25 142.99-15.25 142.99-6.25Q142.99-2.25 147.74-2.25 152.49-2.25 152.49-6.25ZM142.99-26.25L142.99-26.25 142.99-18.25 152.49-18.25 152.49-26.25Q152.49-30.25 147.74-30.25 142.99-30.25 142.99-26.25ZM182.18-32.5L174.83 0 169.58 0 162.23-32.5 165.73-32.5 172.18-3.85 178.68-32.5 182.18-32.5Z" opacity="1" transform="matrix(1,0,0,1,0,0)" fill="#ffffff" class="undefined-text-1" data-fill-palette-color="secondary" id="SvgjsPath1665" stroke-width="5" stroke="black" stroke-linejoin="round"></path></svg></g></svg></g></svg></g></svg></g><g transform="matrix(1,0,0,1,0,40.22722531945193)"><svg viewBox="0 0 176.48019698639763 153.80392582250855" height="153.80392582250855" width="176.48019698639763"><g><svg xmlns="http://www.w3.org/2000/svg" xmlns:xlink="http://www.w3.org/1999/xlink" version="1.0" x="0" y="0" viewBox="1.1180000305175781 4.118575572967529 47.92100143432617 41.76354217529297" enable-background="new 0 0 50 50" xml:space="preserve" height="153.80392582250855" width="176.48019698639763" class="icon-icon-0" data-fill-palette-color="accent" id="SvgjsSvg1664"><g fill="black" data-fill-palette-color="accent" stroke-width="5" stroke="black" stroke-linejoin="round"><g fill="black" data-fill-palette-color="accent" stroke-width="5" stroke="black" stroke-linejoin="round"><polygon fill="#ffffff" points="10.821,24.951 21,32.193 21,39.035 1.118,24.891 21,11.118 21,17.9   " data-fill-palette-color="accent" stroke-width="5" stroke="black" stroke-linejoin="round"></polygon></g><g fill="black" data-fill-palette-color="accent" stroke-width="5" stroke="black" stroke-linejoin="round"><polygon fill="#ffffff" points="49.039,25.277 35.815,16.063 34.219,21.712 39.475,25.338 31.411,30.97 29,38.79 29,39.424   " data-fill-palette-color="accent" stroke-width="5" stroke="black" stroke-linejoin="round"></polygon></g><rect x="25.577" y="3.983" transform="matrix(0.9606 0.278 -0.278 0.9606 8.0575 -6.8179)" fill="#ffffff" width="4.981" height="42.035" data-fill-palette-color="accent" stroke-width="5" stroke="black" stroke-linejoin="round"></rect></g></svg></g></svg></g></svg></g></svg></g></svg></g></mask></defs></svg><rect width="395.52" height="247.2" fill="none" stroke="none" visibility="hidden"></rect></g></svg></g></svg>