<svg xmlns="http://www.w3.org/2000/svg" version="1.1" xmlns:xlink="http://www.w3.org/1999/xlink" xmlns:svgjs="http://svgjs.com/svgjs" width="1440" height="900" preserveAspectRatio="none" viewBox="0 0 1440 900"><g mask="url(&quot;#SvgjsMask1257&quot;)" fill="none"><rect width="1440" height="900" x="0" y="0" fill="rgba(0, 0, 0, 1)"></rect><g mask="url(&quot;#SvgjsMask1258&quot;)"><path d="M331.5 433.5L348.5 433.5L365.5 450.5M263.5 433.5L280.5 450.5M314.5 433.5L331.5 450.5M212.5 450.5L229.5 450.5L246.5 450.5L263.5 450.5M-8.5 450.5L8.5 450.5L25.5 450.5L42.5 450.5L59.5 450.5L76.5 450.5L93.5 450.5L110.5 450.5L127.5 450.5L144.5 450.5L161.5 450.5L178.5 450.5L195.5 450.5L212.5 450.5L229.5 433.5L246.5 433.5L263.5 433.5L280.5 433.5L297.5 433.5L314.5 433.5L331.5 433.5L348.5 450.5" stroke="rgba(187, 215, 5, 1)" stroke-width="2.83"></path><path d="M344.25 450.5 a4.25 4.25 0 1 0 8.5 0 a4.25 4.25 0 1 0 -8.5 0zM361.25 450.5 a4.25 4.25 0 1 0 8.5 0 a4.25 4.25 0 1 0 -8.5 0zM276.25 450.5 a4.25 4.25 0 1 0 8.5 0 a4.25 4.25 0 1 0 -8.5 0zM327.25 450.5 a4.25 4.25 0 1 0 8.5 0 a4.25 4.25 0 1 0 -8.5 0zM259.25 450.5 a4.25 4.25 0 1 0 8.5 0 a4.25 4.25 0 1 0 -8.5 0z" fill="rgba(187, 215, 5, 1)"></path><path d="M-8.5 433.5L8.5 433.5L25.5 433.5L42.5 433.5L59.5 433.5L76.5 433.5L93.5 433.5L110.5 433.5L127.5 433.5L144.5 433.5L161.5 433.5L178.5 433.5L195.5 433.5L212.5 433.5" stroke="rgba(5, 22, 215, 1)" stroke-width="2.83"></path><path d="M208.25 433.5 a4.25 4.25 0 1 0 8.5 0 a4.25 4.25 0 1 0 -8.5 0z" fill="rgba(5, 22, 215, 1)"></path><path d="M416.5 467.5L433.5 450.5L450.5 433.5L467.5 433.5L484.5 433.5L501.5 433.5M382.5 467.5L399.5 450.5M297.5 467.5L314.5 450.5M-8.5 467.5L8.5 467.5L25.5 467.5L42.5 467.5L59.5 467.5L76.5 467.5L93.5 467.5L110.5 467.5L127.5 467.5L144.5 467.5L161.5 467.5L178.5 467.5L195.5 467.5L212.5 467.5L229.5 467.5L246.5 467.5L263.5 467.5L280.5 467.5L297.5 467.5L314.5 467.5L331.5 467.5L348.5 467.5L365.5 467.5L382.5 467.5L399.5 467.5L416.5 467.5L433.5 467.5" stroke="rgba(5, 22, 215, 1)" stroke-width="2.83"></path><path d="M429.25 467.5 a4.25 4.25 0 1 0 8.5 0 a4.25 4.25 0 1 0 -8.5 0zM497.25 433.5 a4.25 4.25 0 1 0 8.5 0 a4.25 4.25 0 1 0 -8.5 0zM395.25 450.5 a4.25 4.25 0 1 0 8.5 0 a4.25 4.25 0 1 0 -8.5 0zM310.25 450.5 a4.25 4.25 0 1 0 8.5 0 a4.25 4.25 0 1 0 -8.5 0z" fill="rgba(5, 22, 215, 1)"></path><path d="M144.5 416.5L161.5 399.5L178.5 399.5L195.5 399.5L212.5 399.5M875.5 348.5L892.5 365.5M501.5 382.5L518.5 399.5L535.5 416.5L552.5 416.5L569.5 399.5M586.5 365.5L603.5 348.5L620.5 348.5M722.5 365.5L739.5 365.5L756.5 365.5M705.5 365.5L722.5 382.5L739.5 382.5L756.5 382.5L773.5 382.5M229.5 416.5L246.5 399.5L263.5 399.5L280.5 399.5L297.5 399.5L314.5 399.5L331.5 399.5M943.5 348.5L960.5 365.5L977.5 365.5L994.5 365.5L1011.5 365.5L1028.5 382.5L1045.5 382.5L1062.5 382.5L1079.5 399.5M110.5 416.5L127.5 399.5L144.5 399.5M841.5 348.5L858.5 365.5L875.5 365.5L892.5 382.5L909.5 382.5L926.5 382.5L943.5 382.5M977.5 348.5L994.5 331.5L1011.5 331.5L1028.5 331.5L1045.5 331.5L1062.5 331.5L1079.5 314.5L1096.5 314.5L1113.5 314.5L1130.5 314.5M688.5 365.5L705.5 348.5L722.5 348.5L739.5 331.5L756.5 331.5M773.5 348.5L790.5 365.5L807.5 365.5L824.5 365.5L841.5 365.5L858.5 382.5L875.5 382.5L892.5 399.5L909.5 399.5L926.5 399.5L943.5 416.5L960.5 416.5L977.5 416.5L994.5 416.5L1011.5 416.5L1028.5 399.5L1045.5 399.5M331.5 416.5L348.5 416.5L365.5 416.5L382.5 416.5L399.5 416.5L416.5 416.5L433.5 416.5L450.5 416.5L467.5 416.5L484.5 416.5L501.5 399.5M637.5 365.5L654.5 348.5M671.5 365.5L688.5 382.5L705.5 382.5M-8.5 416.5L8.5 416.5L25.5 416.5L42.5 416.5L59.5 416.5L76.5 416.5L93.5 416.5L110.5 416.5L127.5 416.5L144.5 416.5L161.5 416.5L178.5 416.5L195.5 416.5L212.5 416.5L229.5 416.5L246.5 416.5L263.5 416.5L280.5 416.5L297.5 416.5L314.5 416.5L331.5 416.5L348.5 399.5L365.5 399.5L382.5 399.5L399.5 399.5L416.5 399.5L433.5 399.5L450.5 399.5L467.5 382.5L484.5 382.5L501.5 382.5L518.5 382.5L535.5 382.5L552.5 365.5L569.5 365.5L586.5 365.5L603.5 365.5L620.5 365.5L637.5 365.5L654.5 365.5L671.5 365.5L688.5 365.5L705.5 365.5L722.5 365.5L739.5 348.5L756.5 348.5L773.5 348.5L790.5 348.5L807.5 348.5L824.5 348.5L841.5 348.5L858.5 348.5L875.5 348.5L892.5 348.5L909.5 348.5L926.5 348.5L943.5 348.5L960.5 348.5L977.5 348.5L994.5 348.5L1011.5 348.5L1028.5 348.5L1045.5 348.5L1062.5 348.5" stroke="#dd1133" stroke-width="2.83"></path><path d="M1058.25 348.5 a4.25 4.25 0 1 0 8.5 0 a4.25 4.25 0 1 0 -8.5 0zM208.25 399.5 a4.25 4.25 0 1 0 8.5 0 a4.25 4.25 0 1 0 -8.5 0zM888.25 365.5 a4.25 4.25 0 1 0 8.5 0 a4.25 4.25 0 1 0 -8.5 0zM565.25 399.5 a4.25 4.25 0 1 0 8.5 0 a4.25 4.25 0 1 0 -8.5 0zM616.25 348.5 a4.25 4.25 0 1 0 8.5 0 a4.25 4.25 0 1 0 -8.5 0zM752.25 365.5 a4.25 4.25 0 1 0 8.5 0 a4.25 4.25 0 1 0 -8.5 0zM769.25 382.5 a4.25 4.25 0 1 0 8.5 0 a4.25 4.25 0 1 0 -8.5 0zM327.25 399.5 a4.25 4.25 0 1 0 8.5 0 a4.25 4.25 0 1 0 -8.5 0zM1075.25 399.5 a4.25 4.25 0 1 0 8.5 0 a4.25 4.25 0 1 0 -8.5 0zM140.25 399.5 a4.25 4.25 0 1 0 8.5 0 a4.25 4.25 0 1 0 -8.5 0zM939.25 382.5 a4.25 4.25 0 1 0 8.5 0 a4.25 4.25 0 1 0 -8.5 0zM1126.25 314.5 a4.25 4.25 0 1 0 8.5 0 a4.25 4.25 0 1 0 -8.5 0zM752.25 331.5 a4.25 4.25 0 1 0 8.5 0 a4.25 4.25 0 1 0 -8.5 0zM1041.25 399.5 a4.25 4.25 0 1 0 8.5 0 a4.25 4.25 0 1 0 -8.5 0zM497.25 399.5 a4.25 4.25 0 1 0 8.5 0 a4.25 4.25 0 1 0 -8.5 0zM650.25 348.5 a4.25 4.25 0 1 0 8.5 0 a4.25 4.25 0 1 0 -8.5 0zM701.25 382.5 a4.25 4.25 0 1 0 8.5 0 a4.25 4.25 0 1 0 -8.5 0z" fill="#dd1133"></path><path d="M484.5 484.5L501.5 501.5L518.5 501.5M399.5 484.5L416.5 501.5L433.5 501.5L450.5 501.5L467.5 501.5L484.5 501.5L501.5 518.5L518.5 518.5M331.5 484.5L348.5 501.5L365.5 501.5L382.5 501.5L399.5 501.5L416.5 518.5M450.5 484.5L467.5 467.5L484.5 467.5L501.5 467.5L518.5 467.5M280.5 484.5L297.5 501.5L314.5 501.5L331.5 501.5L348.5 518.5L365.5 518.5L382.5 518.5L399.5 518.5M552.5 484.5L569.5 467.5L586.5 467.5L603.5 467.5M586.5 484.5L603.5 501.5L620.5 501.5M263.5 484.5L280.5 501.5M569.5 484.5L586.5 501.5L603.5 518.5M-8.5 484.5L8.5 484.5L25.5 484.5L42.5 484.5L59.5 484.5L76.5 484.5L93.5 484.5L110.5 484.5L127.5 484.5L144.5 484.5L161.5 484.5L178.5 484.5L195.5 484.5L212.5 484.5L229.5 484.5L246.5 484.5L263.5 484.5L280.5 484.5L297.5 484.5L314.5 484.5L331.5 484.5L348.5 484.5L365.5 484.5L382.5 484.5L399.5 484.5L416.5 484.5L433.5 484.5L450.5 484.5L467.5 484.5L484.5 484.5L501.5 484.5L518.5 484.5L535.5 484.5L552.5 484.5L569.5 484.5L586.5 484.5L603.5 484.5" stroke="#dd1133" stroke-width="2.83"></path><path d="M599.25 484.5 a4.25 4.25 0 1 0 8.5 0 a4.25 4.25 0 1 0 -8.5 0zM514.25 501.5 a4.25 4.25 0 1 0 8.5 0 a4.25 4.25 0 1 0 -8.5 0zM514.25 518.5 a4.25 4.25 0 1 0 8.5 0 a4.25 4.25 0 1 0 -8.5 0zM412.25 518.5 a4.25 4.25 0 1 0 8.5 0 a4.25 4.25 0 1 0 -8.5 0zM514.25 467.5 a4.25 4.25 0 1 0 8.5 0 a4.25 4.25 0 1 0 -8.5 0zM395.25 518.5 a4.25 4.25 0 1 0 8.5 0 a4.25 4.25 0 1 0 -8.5 0zM599.25 467.5 a4.25 4.25 0 1 0 8.5 0 a4.25 4.25 0 1 0 -8.5 0zM616.25 501.5 a4.25 4.25 0 1 0 8.5 0 a4.25 4.25 0 1 0 -8.5 0zM276.25 501.5 a4.25 4.25 0 1 0 8.5 0 a4.25 4.25 0 1 0 -8.5 0zM599.25 518.5 a4.25 4.25 0 1 0 8.5 0 a4.25 4.25 0 1 0 -8.5 0z" fill="#dd1133"></path><path d="M331.5 382.5L348.5 365.5L365.5 365.5L382.5 365.5M263.5 382.5L280.5 365.5L297.5 365.5L314.5 365.5L331.5 365.5M569.5 331.5L586.5 348.5M484.5 365.5L501.5 348.5M93.5 399.5L110.5 399.5M501.5 365.5L518.5 365.5L535.5 365.5M246.5 382.5L263.5 365.5M535.5 348.5L552.5 348.5L569.5 348.5M603.5 331.5L620.5 314.5L637.5 314.5L654.5 314.5M-8.5 399.5L8.5 399.5L25.5 399.5L42.5 399.5L59.5 399.5L76.5 399.5L93.5 399.5L110.5 382.5L127.5 382.5L144.5 382.5L161.5 382.5L178.5 382.5L195.5 382.5L212.5 382.5L229.5 382.5L246.5 382.5L263.5 382.5L280.5 382.5L297.5 382.5L314.5 382.5L331.5 382.5L348.5 382.5L365.5 382.5L382.5 382.5L399.5 382.5L416.5 382.5L433.5 382.5L450.5 382.5L467.5 365.5L484.5 365.5L501.5 365.5L518.5 348.5L535.5 348.5L552.5 331.5L569.5 331.5L586.5 331.5L603.5 331.5L620.5 331.5" stroke="#dd1133" stroke-width="2.83"></path><path d="M616.25 331.5 a4.25 4.25 0 1 0 8.5 0 a4.25 4.25 0 1 0 -8.5 0zM378.25 365.5 a4.25 4.25 0 1 0 8.5 0 a4.25 4.25 0 1 0 -8.5 0zM327.25 365.5 a4.25 4.25 0 1 0 8.5 0 a4.25 4.25 0 1 0 -8.5 0zM582.25 348.5 a4.25 4.25 0 1 0 8.5 0 a4.25 4.25 0 1 0 -8.5 0zM497.25 348.5 a4.25 4.25 0 1 0 8.5 0 a4.25 4.25 0 1 0 -8.5 0zM106.25 399.5 a4.25 4.25 0 1 0 8.5 0 a4.25 4.25 0 1 0 -8.5 0zM531.25 365.5 a4.25 4.25 0 1 0 8.5 0 a4.25 4.25 0 1 0 -8.5 0zM259.25 365.5 a4.25 4.25 0 1 0 8.5 0 a4.25 4.25 0 1 0 -8.5 0zM565.25 348.5 a4.25 4.25 0 1 0 8.5 0 a4.25 4.25 0 1 0 -8.5 0zM650.25 314.5 a4.25 4.25 0 1 0 8.5 0 a4.25 4.25 0 1 0 -8.5 0z" fill="#dd1133"></path><path d="M365.5 535.5L382.5 552.5L399.5 552.5L416.5 552.5L433.5 552.5L450.5 552.5L467.5 552.5L484.5 552.5M705.5 518.5L722.5 501.5L739.5 501.5L756.5 501.5L773.5 501.5L790.5 518.5L807.5 518.5L824.5 518.5L841.5 501.5L858.5 501.5L875.5 501.5L892.5 501.5L909.5 484.5L926.5 484.5L943.5 484.5M518.5 535.5L535.5 552.5L552.5 552.5L569.5 552.5L586.5 552.5L603.5 552.5L620.5 552.5L637.5 552.5L654.5 569.5L671.5 569.5L688.5 569.5L705.5 569.5M892.5 535.5L909.5 518.5L926.5 518.5L943.5 518.5L960.5 518.5L977.5 518.5L994.5 518.5L1011.5 518.5L1028.5 518.5L1045.5 518.5M824.5 535.5L841.5 552.5L858.5 552.5L875.5 552.5L892.5 552.5L909.5 552.5L926.5 552.5L943.5 552.5M807.5 535.5L824.5 552.5M246.5 501.5L263.5 501.5M212.5 501.5L229.5 518.5M195.5 501.5L212.5 518.5M552.5 535.5L569.5 518.5L586.5 518.5M637.5 518.5L654.5 501.5L671.5 501.5L688.5 501.5M739.5 518.5L756.5 518.5L773.5 518.5M314.5 518.5L331.5 518.5M620.5 518.5L637.5 535.5M178.5 501.5L195.5 518.5M76.5 501.5L93.5 518.5L110.5 518.5L127.5 518.5L144.5 518.5L161.5 518.5L178.5 518.5M-8.5 501.5L8.5 501.5L25.5 501.5L42.5 501.5L59.5 501.5L76.5 501.5L93.5 501.5L110.5 501.5L127.5 501.5L144.5 501.5L161.5 501.5L178.5 501.5L195.5 501.5L212.5 501.5L229.5 501.5L246.5 501.5L263.5 518.5L280.5 518.5L297.5 518.5L314.5 518.5L331.5 535.5L348.5 535.5L365.5 535.5L382.5 535.5L399.5 535.5L416.5 535.5L433.5 535.5L450.5 535.5L467.5 535.5L484.5 535.5L501.5 535.5L518.5 535.5L535.5 535.5L552.5 535.5L569.5 535.5L586.5 535.5L603.5 535.5L620.5 518.5L637.5 518.5L654.5 518.5L671.5 518.5L688.5 518.5L705.5 518.5L722.5 518.5L739.5 518.5L756.5 535.5L773.5 535.5L790.5 535.5L807.5 535.5L824.5 535.5L841.5 535.5L858.5 535.5L875.5 535.5L892.5 535.5L909.5 535.5L926.5 535.5L943.5 535.5L960.5 552.5L977.5 552.5L994.5 552.5L1011.5 552.5L1028.5 552.5L1045.5 552.5L1062.5 552.5" stroke="rgba(5, 215, 171, 1)" stroke-width="2.83"></path><path d="M1058.25 552.5 a4.25 4.25 0 1 0 8.5 0 a4.25 4.25 0 1 0 -8.5 0zM480.25 552.5 a4.25 4.25 0 1 0 8.5 0 a4.25 4.25 0 1 0 -8.5 0zM939.25 484.5 a4.25 4.25 0 1 0 8.5 0 a4.25 4.25 0 1 0 -8.5 0zM701.25 569.5 a4.25 4.25 0 1 0 8.5 0 a4.25 4.25 0 1 0 -8.5 0zM1041.25 518.5 a4.25 4.25 0 1 0 8.5 0 a4.25 4.25 0 1 0 -8.5 0zM939.25 552.5 a4.25 4.25 0 1 0 8.5 0 a4.25 4.25 0 1 0 -8.5 0zM820.25 552.5 a4.25 4.25 0 1 0 8.5 0 a4.25 4.25 0 1 0 -8.5 0zM259.25 501.5 a4.25 4.25 0 1 0 8.5 0 a4.25 4.25 0 1 0 -8.5 0zM225.25 518.5 a4.25 4.25 0 1 0 8.5 0 a4.25 4.25 0 1 0 -8.5 0zM208.25 518.5 a4.25 4.25 0 1 0 8.5 0 a4.25 4.25 0 1 0 -8.5 0zM582.25 518.5 a4.25 4.25 0 1 0 8.5 0 a4.25 4.25 0 1 0 -8.5 0zM684.25 501.5 a4.25 4.25 0 1 0 8.5 0 a4.25 4.25 0 1 0 -8.5 0zM769.25 518.5 a4.25 4.25 0 1 0 8.5 0 a4.25 4.25 0 1 0 -8.5 0zM327.25 518.5 a4.25 4.25 0 1 0 8.5 0 a4.25 4.25 0 1 0 -8.5 0zM633.25 535.5 a4.25 4.25 0 1 0 8.5 0 a4.25 4.25 0 1 0 -8.5 0zM191.25 518.5 a4.25 4.25 0 1 0 8.5 0 a4.25 4.25 0 1 0 -8.5 0zM174.25 518.5 a4.25 4.25 0 1 0 8.5 0 a4.25 4.25 0 1 0 -8.5 0z" fill="rgba(5, 215, 171, 1)"></path><path d="M790.5 314.5L807.5 331.5L824.5 331.5L841.5 331.5L858.5 331.5L875.5 331.5L892.5 331.5L909.5 331.5L926.5 331.5L943.5 331.5L960.5 331.5L977.5 331.5L994.5 314.5L1011.5 314.5L1028.5 314.5L1045.5 314.5L1062.5 314.5L1079.5 297.5M25.5 382.5L42.5 365.5L59.5 365.5L76.5 365.5L93.5 365.5M518.5 331.5L535.5 314.5L552.5 297.5L569.5 297.5M467.5 348.5L484.5 348.5M807.5 314.5L824.5 297.5L841.5 297.5L858.5 297.5L875.5 297.5L892.5 297.5L909.5 297.5M229.5 365.5L246.5 365.5M756.5 314.5L773.5 297.5L790.5 297.5L807.5 297.5M433.5 365.5L450.5 348.5L467.5 331.5L484.5 314.5M722.5 297.5L739.5 280.5L756.5 280.5L773.5 280.5L790.5 280.5L807.5 280.5L824.5 280.5L841.5 280.5L858.5 280.5L875.5 280.5L892.5 263.5L909.5 263.5M654.5 297.5L671.5 280.5M773.5 314.5L790.5 331.5M331.5 348.5L348.5 331.5L365.5 331.5L382.5 314.5L399.5 314.5L416.5 331.5L433.5 331.5L450.5 331.5L467.5 314.5M705.5 297.5L722.5 280.5M-8.5 382.5L8.5 382.5L25.5 382.5L42.5 382.5L59.5 382.5L76.5 382.5L93.5 382.5L110.5 365.5L127.5 365.5L144.5 365.5L161.5 365.5L178.5 365.5L195.5 365.5L212.5 365.5L229.5 365.5L246.5 348.5L263.5 348.5L280.5 348.5L297.5 348.5L314.5 348.5L331.5 348.5L348.5 348.5L365.5 348.5L382.5 348.5L399.5 365.5L416.5 365.5L433.5 365.5L450.5 365.5L467.5 348.5L484.5 331.5L501.5 331.5L518.5 331.5L535.5 331.5L552.5 314.5L569.5 314.5L586.5 314.5L603.5 297.5L620.5 297.5L637.5 297.5L654.5 297.5L671.5 297.5L688.5 297.5L705.5 297.5L722.5 297.5L739.5 297.5L756.5 314.5L773.5 314.5L790.5 314.5L807.5 314.5L824.5 314.5L841.5 314.5L858.5 314.5L875.5 314.5" stroke="rgba(187, 215, 5, 1)" stroke-width="2.83"></path><path d="M871.25 314.5 a4.25 4.25 0 1 0 8.5 0 a4.25 4.25 0 1 0 -8.5 0zM1075.25 297.5 a4.25 4.25 0 1 0 8.5 0 a4.25 4.25 0 1 0 -8.5 0zM89.25 365.5 a4.25 4.25 0 1 0 8.5 0 a4.25 4.25 0 1 0 -8.5 0zM565.25 297.5 a4.25 4.25 0 1 0 8.5 0 a4.25 4.25 0 1 0 -8.5 0zM480.25 348.5 a4.25 4.25 0 1 0 8.5 0 a4.25 4.25 0 1 0 -8.5 0zM905.25 297.5 a4.25 4.25 0 1 0 8.5 0 a4.25 4.25 0 1 0 -8.5 0zM242.25 365.5 a4.25 4.25 0 1 0 8.5 0 a4.25 4.25 0 1 0 -8.5 0zM803.25 297.5 a4.25 4.25 0 1 0 8.5 0 a4.25 4.25 0 1 0 -8.5 0zM480.25 314.5 a4.25 4.25 0 1 0 8.5 0 a4.25 4.25 0 1 0 -8.5 0zM905.25 263.5 a4.25 4.25 0 1 0 8.5 0 a4.25 4.25 0 1 0 -8.5 0zM667.25 280.5 a4.25 4.25 0 1 0 8.5 0 a4.25 4.25 0 1 0 -8.5 0zM786.25 331.5 a4.25 4.25 0 1 0 8.5 0 a4.25 4.25 0 1 0 -8.5 0zM463.25 314.5 a4.25 4.25 0 1 0 8.5 0 a4.25 4.25 0 1 0 -8.5 0zM718.25 280.5 a4.25 4.25 0 1 0 8.5 0 a4.25 4.25 0 1 0 -8.5 0z" fill="rgba(187, 215, 5, 1)"></path><path d="M42.5 518.5L59.5 518.5L76.5 518.5M161.5 535.5L178.5 552.5L195.5 552.5M93.5 535.5L110.5 552.5L127.5 552.5L144.5 552.5M-8.5 518.5L8.5 518.5L25.5 518.5L42.5 518.5L59.5 535.5L76.5 535.5L93.5 535.5L110.5 535.5L127.5 535.5L144.5 535.5L161.5 535.5L178.5 535.5L195.5 535.5L212.5 535.5L229.5 535.5L246.5 535.5L263.5 535.5" stroke="rgba(5, 22, 215, 1)" stroke-width="2.83"></path><path d="M259.25 535.5 a4.25 4.25 0 1 0 8.5 0 a4.25 4.25 0 1 0 -8.5 0zM72.25 518.5 a4.25 4.25 0 1 0 8.5 0 a4.25 4.25 0 1 0 -8.5 0zM191.25 552.5 a4.25 4.25 0 1 0 8.5 0 a4.25 4.25 0 1 0 -8.5 0zM140.25 552.5 a4.25 4.25 0 1 0 8.5 0 a4.25 4.25 0 1 0 -8.5 0z" fill="rgba(5, 22, 215, 1)"></path><path d="M348.5 314.5L365.5 314.5M8.5 365.5L25.5 365.5M416.5 297.5L433.5 314.5L450.5 314.5M501.5 280.5L518.5 297.5L535.5 297.5M484.5 280.5L501.5 297.5L518.5 314.5M314.5 331.5L331.5 331.5M467.5 297.5L484.5 297.5M-8.5 365.5L8.5 365.5L25.5 348.5L42.5 348.5L59.5 348.5L76.5 348.5L93.5 348.5L110.5 348.5L127.5 348.5L144.5 348.5L161.5 348.5L178.5 348.5L195.5 348.5L212.5 348.5L229.5 348.5L246.5 331.5L263.5 331.5L280.5 331.5L297.5 331.5L314.5 331.5L331.5 314.5L348.5 314.5L365.5 297.5L382.5 297.5L399.5 297.5L416.5 297.5L433.5 297.5L450.5 297.5L467.5 297.5L484.5 280.5L501.5 280.5L518.5 280.5" stroke="rgba(187, 215, 5, 1)" stroke-width="2.83"></path><path d="M514.25 280.5 a4.25 4.25 0 1 0 8.5 0 a4.25 4.25 0 1 0 -8.5 0zM361.25 314.5 a4.25 4.25 0 1 0 8.5 0 a4.25 4.25 0 1 0 -8.5 0zM21.25 365.5 a4.25 4.25 0 1 0 8.5 0 a4.25 4.25 0 1 0 -8.5 0zM446.25 314.5 a4.25 4.25 0 1 0 8.5 0 a4.25 4.25 0 1 0 -8.5 0zM531.25 297.5 a4.25 4.25 0 1 0 8.5 0 a4.25 4.25 0 1 0 -8.5 0zM514.25 314.5 a4.25 4.25 0 1 0 8.5 0 a4.25 4.25 0 1 0 -8.5 0zM327.25 331.5 a4.25 4.25 0 1 0 8.5 0 a4.25 4.25 0 1 0 -8.5 0zM480.25 297.5 a4.25 4.25 0 1 0 8.5 0 a4.25 4.25 0 1 0 -8.5 0z" fill="rgba(187, 215, 5, 1)"></path><path d="M535.5 586.5L552.5 569.5M348.5 552.5L365.5 552.5M654.5 603.5L671.5 586.5M229.5 552.5L246.5 569.5L263.5 569.5L280.5 569.5L297.5 569.5L314.5 569.5L331.5 569.5L348.5 569.5L365.5 586.5L382.5 586.5M909.5 569.5L926.5 586.5L943.5 586.5L960.5 586.5L977.5 586.5M450.5 569.5L467.5 586.5L484.5 586.5L501.5 586.5M841.5 586.5L858.5 586.5M875.5 569.5L892.5 586.5L909.5 586.5L926.5 603.5L943.5 603.5L960.5 603.5L977.5 603.5L994.5 603.5L1011.5 603.5L1028.5 603.5L1045.5 603.5L1062.5 620.5L1079.5 620.5L1096.5 620.5L1113.5 620.5M76.5 552.5L93.5 552.5M501.5 569.5L518.5 569.5L535.5 569.5M705.5 586.5L722.5 603.5L739.5 603.5L756.5 603.5L773.5 603.5L790.5 603.5L807.5 603.5L824.5 603.5L841.5 603.5L858.5 603.5L875.5 603.5M620.5 586.5L637.5 586.5L654.5 586.5M790.5 586.5L807.5 569.5L824.5 569.5L841.5 569.5M212.5 569.5L229.5 569.5L246.5 586.5L263.5 586.5L280.5 586.5L297.5 586.5L314.5 586.5L331.5 586.5L348.5 586.5M-8.5 535.5L8.5 535.5L25.5 535.5L42.5 535.5L59.5 552.5L76.5 552.5L93.5 569.5L110.5 569.5L127.5 569.5L144.5 569.5L161.5 569.5L178.5 569.5L195.5 569.5L212.5 569.5L229.5 552.5L246.5 552.5L263.5 552.5L280.5 552.5L297.5 552.5L314.5 552.5L331.5 552.5L348.5 552.5L365.5 569.5L382.5 569.5L399.5 569.5L416.5 569.5L433.5 569.5L450.5 569.5L467.5 569.5L484.5 569.5L501.5 569.5L518.5 586.5L535.5 586.5L552.5 586.5L569.5 586.5L586.5 586.5L603.5 586.5L620.5 586.5L637.5 603.5L654.5 603.5L671.5 603.5L688.5 586.5L705.5 586.5L722.5 586.5L739.5 586.5L756.5 586.5L773.5 586.5L790.5 586.5L807.5 586.5L824.5 586.5L841.5 586.5L858.5 569.5L875.5 569.5L892.5 569.5L909.5 569.5L926.5 569.5L943.5 569.5" stroke="rgba(5, 215, 10, 1)" stroke-width="2.83"></path><path d="M939.25 569.5 a4.25 4.25 0 1 0 8.5 0 a4.25 4.25 0 1 0 -8.5 0zM548.25 569.5 a4.25 4.25 0 1 0 8.5 0 a4.25 4.25 0 1 0 -8.5 0zM361.25 552.5 a4.25 4.25 0 1 0 8.5 0 a4.25 4.25 0 1 0 -8.5 0zM667.25 586.5 a4.25 4.25 0 1 0 8.5 0 a4.25 4.25 0 1 0 -8.5 0zM378.25 586.5 a4.25 4.25 0 1 0 8.5 0 a4.25 4.25 0 1 0 -8.5 0zM973.25 586.5 a4.25 4.25 0 1 0 8.5 0 a4.25 4.25 0 1 0 -8.5 0zM497.25 586.5 a4.25 4.25 0 1 0 8.5 0 a4.25 4.25 0 1 0 -8.5 0zM854.25 586.5 a4.25 4.25 0 1 0 8.5 0 a4.25 4.25 0 1 0 -8.5 0zM1109.25 620.5 a4.25 4.25 0 1 0 8.5 0 a4.25 4.25 0 1 0 -8.5 0zM89.25 552.5 a4.25 4.25 0 1 0 8.5 0 a4.25 4.25 0 1 0 -8.5 0zM531.25 569.5 a4.25 4.25 0 1 0 8.5 0 a4.25 4.25 0 1 0 -8.5 0zM871.25 603.5 a4.25 4.25 0 1 0 8.5 0 a4.25 4.25 0 1 0 -8.5 0zM650.25 586.5 a4.25 4.25 0 1 0 8.5 0 a4.25 4.25 0 1 0 -8.5 0zM837.25 569.5 a4.25 4.25 0 1 0 8.5 0 a4.25 4.25 0 1 0 -8.5 0zM344.25 586.5 a4.25 4.25 0 1 0 8.5 0 a4.25 4.25 0 1 0 -8.5 0z" fill="rgba(5, 215, 10, 1)"></path><path d="M688.5 263.5L705.5 280.5M569.5 280.5L586.5 263.5L603.5 263.5L620.5 263.5L637.5 263.5M841.5 263.5L858.5 246.5L875.5 246.5L892.5 246.5L909.5 246.5M637.5 280.5L654.5 280.5M824.5 263.5L841.5 246.5L858.5 229.5L875.5 212.5L892.5 212.5M535.5 280.5L552.5 263.5L569.5 263.5M297.5 314.5L314.5 314.5M518.5 263.5L535.5 263.5M-8.5 348.5L8.5 348.5L25.5 331.5L42.5 331.5L59.5 331.5L76.5 331.5L93.5 331.5L110.5 331.5L127.5 331.5L144.5 331.5L161.5 331.5L178.5 331.5L195.5 331.5L212.5 331.5L229.5 331.5L246.5 314.5L263.5 314.5L280.5 314.5L297.5 314.5L314.5 297.5L331.5 297.5L348.5 297.5L365.5 280.5L382.5 280.5L399.5 280.5L416.5 280.5L433.5 280.5L450.5 280.5L467.5 280.5L484.5 263.5L501.5 263.5L518.5 263.5L535.5 280.5L552.5 280.5L569.5 280.5L586.5 280.5L603.5 280.5L620.5 280.5L637.5 280.5L654.5 263.5L671.5 263.5L688.5 263.5L705.5 263.5L722.5 263.5L739.5 263.5L756.5 263.5L773.5 263.5L790.5 263.5L807.5 263.5L824.5 263.5L841.5 263.5L858.5 263.5" stroke="rgba(5, 215, 171, 1)" stroke-width="2.83"></path><path d="M854.25 263.5 a4.25 4.25 0 1 0 8.5 0 a4.25 4.25 0 1 0 -8.5 0zM701.25 280.5 a4.25 4.25 0 1 0 8.5 0 a4.25 4.25 0 1 0 -8.5 0zM633.25 263.5 a4.25 4.25 0 1 0 8.5 0 a4.25 4.25 0 1 0 -8.5 0zM905.25 246.5 a4.25 4.25 0 1 0 8.5 0 a4.25 4.25 0 1 0 -8.5 0zM650.25 280.5 a4.25 4.25 0 1 0 8.5 0 a4.25 4.25 0 1 0 -8.5 0zM888.25 212.5 a4.25 4.25 0 1 0 8.5 0 a4.25 4.25 0 1 0 -8.5 0zM565.25 263.5 a4.25 4.25 0 1 0 8.5 0 a4.25 4.25 0 1 0 -8.5 0zM310.25 314.5 a4.25 4.25 0 1 0 8.5 0 a4.25 4.25 0 1 0 -8.5 0zM531.25 263.5 a4.25 4.25 0 1 0 8.5 0 a4.25 4.25 0 1 0 -8.5 0z" fill="rgba(5, 215, 171, 1)"></path><path d="M-8.5 552.5L8.5 552.5L25.5 552.5L42.5 552.5" stroke="#dd1133" stroke-width="2.83"></path><path d="M38.25 552.5 a4.25 4.25 0 1 0 8.5 0 a4.25 4.25 0 1 0 -8.5 0z" fill="#dd1133"></path><path d="M382.5 263.5L399.5 246.5M450.5 263.5L467.5 246.5M552.5 246.5L569.5 229.5L586.5 229.5L603.5 229.5L620.5 229.5M756.5 246.5L773.5 229.5L790.5 229.5M671.5 246.5L688.5 229.5L705.5 229.5L722.5 229.5L739.5 229.5M535.5 246.5L552.5 229.5L569.5 212.5L586.5 212.5L603.5 212.5L620.5 212.5M637.5 246.5L654.5 229.5L671.5 229.5L688.5 212.5L705.5 212.5M433.5 263.5L450.5 246.5M-8.5 331.5L8.5 331.5L25.5 314.5L42.5 314.5L59.5 314.5L76.5 314.5L93.5 314.5L110.5 314.5L127.5 314.5L144.5 314.5L161.5 314.5L178.5 314.5L195.5 314.5L212.5 314.5L229.5 314.5L246.5 297.5L263.5 297.5L280.5 297.5L297.5 297.5L314.5 280.5L331.5 280.5L348.5 280.5L365.5 263.5L382.5 263.5L399.5 263.5L416.5 263.5L433.5 263.5L450.5 263.5L467.5 263.5L484.5 246.5L501.5 246.5L518.5 246.5L535.5 246.5L552.5 246.5L569.5 246.5L586.5 246.5L603.5 246.5L620.5 246.5L637.5 246.5L654.5 246.5L671.5 246.5L688.5 246.5L705.5 246.5L722.5 246.5L739.5 246.5L756.5 246.5L773.5 246.5L790.5 246.5L807.5 246.5" stroke="rgba(5, 22, 215, 1)" stroke-width="2.83"></path><path d="M803.25 246.5 a4.25 4.25 0 1 0 8.5 0 a4.25 4.25 0 1 0 -8.5 0zM395.25 246.5 a4.25 4.25 0 1 0 8.5 0 a4.25 4.25 0 1 0 -8.5 0zM463.25 246.5 a4.25 4.25 0 1 0 8.5 0 a4.25 4.25 0 1 0 -8.5 0zM616.25 229.5 a4.25 4.25 0 1 0 8.5 0 a4.25 4.25 0 1 0 -8.5 0zM786.25 229.5 a4.25 4.25 0 1 0 8.5 0 a4.25 4.25 0 1 0 -8.5 0zM735.25 229.5 a4.25 4.25 0 1 0 8.5 0 a4.25 4.25 0 1 0 -8.5 0zM616.25 212.5 a4.25 4.25 0 1 0 8.5 0 a4.25 4.25 0 1 0 -8.5 0zM701.25 212.5 a4.25 4.25 0 1 0 8.5 0 a4.25 4.25 0 1 0 -8.5 0zM446.25 246.5 a4.25 4.25 0 1 0 8.5 0 a4.25 4.25 0 1 0 -8.5 0z" fill="rgba(5, 22, 215, 1)"></path><path d="M569.5 603.5L586.5 620.5L603.5 620.5L620.5 620.5L637.5 637.5M484.5 603.5L501.5 620.5L518.5 620.5L535.5 620.5L552.5 620.5L569.5 620.5L586.5 637.5L603.5 637.5L620.5 637.5M841.5 637.5L858.5 620.5L875.5 620.5L892.5 620.5L909.5 620.5M688.5 637.5L705.5 620.5L722.5 620.5M977.5 654.5L994.5 637.5L1011.5 620.5L1028.5 620.5L1045.5 620.5L1062.5 637.5L1079.5 654.5L1096.5 654.5L1113.5 671.5L1130.5 671.5M467.5 603.5L484.5 620.5L501.5 637.5L518.5 637.5L535.5 637.5L552.5 637.5L569.5 637.5M416.5 603.5L433.5 620.5L450.5 620.5L467.5 620.5M195.5 586.5L212.5 586.5L229.5 586.5M739.5 637.5L756.5 620.5L773.5 620.5L790.5 620.5M960.5 654.5L977.5 671.5M671.5 637.5L688.5 620.5L705.5 603.5M909.5 637.5L926.5 637.5L943.5 637.5L960.5 637.5L977.5 637.5L994.5 620.5M824.5 637.5L841.5 654.5M892.5 637.5L909.5 654.5L926.5 671.5L943.5 671.5L960.5 671.5M382.5 603.5L399.5 620.5L416.5 620.5M-8.5 569.5L8.5 569.5L25.5 569.5L42.5 569.5L59.5 569.5L76.5 569.5L93.5 586.5L110.5 586.5L127.5 586.5L144.5 586.5L161.5 586.5L178.5 586.5L195.5 586.5L212.5 603.5L229.5 603.5L246.5 603.5L263.5 603.5L280.5 603.5L297.5 603.5L314.5 603.5L331.5 603.5L348.5 603.5L365.5 603.5L382.5 603.5L399.5 603.5L416.5 603.5L433.5 603.5L450.5 603.5L467.5 603.5L484.5 603.5L501.5 603.5L518.5 603.5L535.5 603.5L552.5 603.5L569.5 603.5L586.5 603.5L603.5 603.5L620.5 603.5L637.5 620.5L654.5 637.5L671.5 637.5L688.5 637.5L705.5 637.5L722.5 637.5L739.5 637.5L756.5 637.5L773.5 637.5L790.5 637.5L807.5 637.5L824.5 637.5L841.5 637.5L858.5 637.5L875.5 637.5L892.5 637.5L909.5 637.5L926.5 654.5L943.5 654.5L960.5 654.5L977.5 654.5L994.5 654.5" stroke="#3a7cc3" stroke-width="2.83"></path><path d="M990.25 654.5 a4.25 4.25 0 1 0 8.5 0 a4.25 4.25 0 1 0 -8.5 0zM633.25 637.5 a4.25 4.25 0 1 0 8.5 0 a4.25 4.25 0 1 0 -8.5 0zM616.25 637.5 a4.25 4.25 0 1 0 8.5 0 a4.25 4.25 0 1 0 -8.5 0zM905.25 620.5 a4.25 4.25 0 1 0 8.5 0 a4.25 4.25 0 1 0 -8.5 0zM718.25 620.5 a4.25 4.25 0 1 0 8.5 0 a4.25 4.25 0 1 0 -8.5 0zM1126.25 671.5 a4.25 4.25 0 1 0 8.5 0 a4.25 4.25 0 1 0 -8.5 0zM565.25 637.5 a4.25 4.25 0 1 0 8.5 0 a4.25 4.25 0 1 0 -8.5 0zM463.25 620.5 a4.25 4.25 0 1 0 8.5 0 a4.25 4.25 0 1 0 -8.5 0zM225.25 586.5 a4.25 4.25 0 1 0 8.5 0 a4.25 4.25 0 1 0 -8.5 0zM786.25 620.5 a4.25 4.25 0 1 0 8.5 0 a4.25 4.25 0 1 0 -8.5 0zM973.25 671.5 a4.25 4.25 0 1 0 8.5 0 a4.25 4.25 0 1 0 -8.5 0zM701.25 603.5 a4.25 4.25 0 1 0 8.5 0 a4.25 4.25 0 1 0 -8.5 0zM990.25 620.5 a4.25 4.25 0 1 0 8.5 0 a4.25 4.25 0 1 0 -8.5 0zM837.25 654.5 a4.25 4.25 0 1 0 8.5 0 a4.25 4.25 0 1 0 -8.5 0zM956.25 671.5 a4.25 4.25 0 1 0 8.5 0 a4.25 4.25 0 1 0 -8.5 0zM412.25 620.5 a4.25 4.25 0 1 0 8.5 0 a4.25 4.25 0 1 0 -8.5 0z" fill="#3a7cc3"></path><path d="M365.5 246.5L382.5 246.5M467.5 229.5L484.5 212.5L501.5 212.5L518.5 212.5M144.5 297.5L161.5 280.5L178.5 280.5L195.5 280.5L212.5 280.5L229.5 280.5M416.5 229.5L433.5 246.5M127.5 297.5L144.5 280.5M433.5 229.5L450.5 212.5L467.5 212.5M76.5 297.5L93.5 280.5M110.5 297.5L127.5 280.5M-8.5 314.5L8.5 314.5L25.5 297.5L42.5 297.5L59.5 297.5L76.5 297.5L93.5 297.5L110.5 297.5L127.5 297.5L144.5 297.5L161.5 297.5L178.5 297.5L195.5 297.5L212.5 297.5L229.5 297.5L246.5 280.5L263.5 280.5L280.5 280.5L297.5 280.5L314.5 263.5L331.5 263.5L348.5 263.5L365.5 246.5L382.5 229.5L399.5 229.5L416.5 229.5L433.5 229.5L450.5 229.5L467.5 229.5L484.5 229.5L501.5 229.5L518.5 229.5" stroke="rgba(5, 215, 171, 1)" stroke-width="2.83"></path><path d="M514.25 229.5 a4.25 4.25 0 1 0 8.5 0 a4.25 4.25 0 1 0 -8.5 0zM378.25 246.5 a4.25 4.25 0 1 0 8.5 0 a4.25 4.25 0 1 0 -8.5 0zM514.25 212.5 a4.25 4.25 0 1 0 8.5 0 a4.25 4.25 0 1 0 -8.5 0zM225.25 280.5 a4.25 4.25 0 1 0 8.5 0 a4.25 4.25 0 1 0 -8.5 0zM429.25 246.5 a4.25 4.25 0 1 0 8.5 0 a4.25 4.25 0 1 0 -8.5 0zM140.25 280.5 a4.25 4.25 0 1 0 8.5 0 a4.25 4.25 0 1 0 -8.5 0zM463.25 212.5 a4.25 4.25 0 1 0 8.5 0 a4.25 4.25 0 1 0 -8.5 0zM89.25 280.5 a4.25 4.25 0 1 0 8.5 0 a4.25 4.25 0 1 0 -8.5 0zM123.25 280.5 a4.25 4.25 0 1 0 8.5 0 a4.25 4.25 0 1 0 -8.5 0z" fill="rgba(5, 215, 171, 1)"></path><path d="M263.5 620.5L280.5 637.5L297.5 637.5L314.5 637.5M-8.5 586.5L8.5 586.5L25.5 586.5L42.5 586.5L59.5 586.5L76.5 586.5L93.5 603.5L110.5 603.5L127.5 603.5L144.5 603.5L161.5 603.5L178.5 603.5L195.5 603.5L212.5 620.5L229.5 620.5L246.5 620.5L263.5 620.5L280.5 620.5L297.5 620.5L314.5 620.5L331.5 620.5" stroke="rgba(5, 215, 171, 1)" stroke-width="2.83"></path><path d="M327.25 620.5 a4.25 4.25 0 1 0 8.5 0 a4.25 4.25 0 1 0 -8.5 0zM310.25 637.5 a4.25 4.25 0 1 0 8.5 0 a4.25 4.25 0 1 0 -8.5 0z" fill="rgba(5, 215, 171, 1)"></path><path d="M-8.5 297.5L8.5 297.5L25.5 280.5" stroke="rgba(5, 22, 215, 1)" stroke-width="2.83"></path><path d="M21.25 280.5 a4.25 4.25 0 1 0 8.5 0 a4.25 4.25 0 1 0 -8.5 0z" fill="rgba(5, 22, 215, 1)"></path><path d="M603.5 654.5L620.5 671.5M212.5 637.5L229.5 654.5L246.5 654.5M195.5 637.5L212.5 654.5M348.5 654.5L365.5 637.5L382.5 637.5L399.5 637.5M161.5 620.5L178.5 620.5L195.5 620.5M399.5 654.5L416.5 654.5L433.5 654.5L450.5 654.5L467.5 654.5L484.5 671.5L501.5 671.5L518.5 671.5L535.5 671.5L552.5 671.5L569.5 671.5L586.5 671.5L603.5 671.5L620.5 688.5L637.5 688.5L654.5 688.5L671.5 688.5L688.5 671.5M790.5 654.5L807.5 671.5M654.5 654.5L671.5 671.5M331.5 654.5L348.5 637.5L365.5 620.5L382.5 620.5M773.5 654.5L790.5 671.5L807.5 688.5L824.5 688.5L841.5 688.5M739.5 654.5L756.5 671.5L773.5 671.5L790.5 688.5L807.5 705.5M705.5 654.5L722.5 671.5M-8.5 603.5L8.5 603.5L25.5 603.5L42.5 603.5L59.5 603.5L76.5 603.5L93.5 620.5L110.5 620.5L127.5 620.5L144.5 620.5L161.5 620.5L178.5 637.5L195.5 637.5L212.5 637.5L229.5 637.5L246.5 637.5L263.5 654.5L280.5 654.5L297.5 654.5L314.5 654.5L331.5 654.5L348.5 654.5L365.5 654.5L382.5 654.5L399.5 654.5L416.5 637.5L433.5 637.5L450.5 637.5L467.5 637.5L484.5 654.5L501.5 654.5L518.5 654.5L535.5 654.5L552.5 654.5L569.5 654.5L586.5 654.5L603.5 654.5L620.5 654.5L637.5 654.5L654.5 654.5L671.5 654.5L688.5 654.5L705.5 654.5L722.5 654.5L739.5 654.5L756.5 654.5L773.5 654.5L790.5 654.5L807.5 654.5" stroke="rgba(187, 215, 5, 1)" stroke-width="2.83"></path><path d="M803.25 654.5 a4.25 4.25 0 1 0 8.5 0 a4.25 4.25 0 1 0 -8.5 0zM616.25 671.5 a4.25 4.25 0 1 0 8.5 0 a4.25 4.25 0 1 0 -8.5 0zM242.25 654.5 a4.25 4.25 0 1 0 8.5 0 a4.25 4.25 0 1 0 -8.5 0zM208.25 654.5 a4.25 4.25 0 1 0 8.5 0 a4.25 4.25 0 1 0 -8.5 0zM395.25 637.5 a4.25 4.25 0 1 0 8.5 0 a4.25 4.25 0 1 0 -8.5 0zM191.25 620.5 a4.25 4.25 0 1 0 8.5 0 a4.25 4.25 0 1 0 -8.5 0zM684.25 671.5 a4.25 4.25 0 1 0 8.5 0 a4.25 4.25 0 1 0 -8.5 0zM803.25 671.5 a4.25 4.25 0 1 0 8.5 0 a4.25 4.25 0 1 0 -8.5 0zM667.25 671.5 a4.25 4.25 0 1 0 8.5 0 a4.25 4.25 0 1 0 -8.5 0zM378.25 620.5 a4.25 4.25 0 1 0 8.5 0 a4.25 4.25 0 1 0 -8.5 0zM837.25 688.5 a4.25 4.25 0 1 0 8.5 0 a4.25 4.25 0 1 0 -8.5 0zM803.25 705.5 a4.25 4.25 0 1 0 8.5 0 a4.25 4.25 0 1 0 -8.5 0zM718.25 671.5 a4.25 4.25 0 1 0 8.5 0 a4.25 4.25 0 1 0 -8.5 0z" fill="rgba(187, 215, 5, 1)"></path><path d="M246.5 263.5L263.5 246.5L280.5 246.5M399.5 212.5L416.5 212.5L433.5 195.5M59.5 263.5L76.5 280.5M93.5 246.5L110.5 263.5M212.5 263.5L229.5 246.5L246.5 246.5M178.5 263.5L195.5 246.5L212.5 246.5M-8.5 280.5L8.5 280.5L25.5 263.5L42.5 263.5L59.5 263.5L76.5 246.5L93.5 246.5L110.5 246.5L127.5 263.5L144.5 263.5L161.5 263.5L178.5 263.5L195.5 263.5L212.5 263.5L229.5 263.5L246.5 263.5L263.5 263.5L280.5 263.5L297.5 246.5L314.5 246.5L331.5 246.5L348.5 229.5L365.5 229.5L382.5 212.5L399.5 212.5L416.5 195.5" stroke="rgba(5, 215, 171, 1)" stroke-width="2.83"></path><path d="M412.25 195.5 a4.25 4.25 0 1 0 8.5 0 a4.25 4.25 0 1 0 -8.5 0zM276.25 246.5 a4.25 4.25 0 1 0 8.5 0 a4.25 4.25 0 1 0 -8.5 0zM429.25 195.5 a4.25 4.25 0 1 0 8.5 0 a4.25 4.25 0 1 0 -8.5 0zM72.25 280.5 a4.25 4.25 0 1 0 8.5 0 a4.25 4.25 0 1 0 -8.5 0zM106.25 263.5 a4.25 4.25 0 1 0 8.5 0 a4.25 4.25 0 1 0 -8.5 0zM242.25 246.5 a4.25 4.25 0 1 0 8.5 0 a4.25 4.25 0 1 0 -8.5 0zM208.25 246.5 a4.25 4.25 0 1 0 8.5 0 a4.25 4.25 0 1 0 -8.5 0z" fill="rgba(5, 215, 171, 1)"></path><path d="M365.5 671.5L382.5 688.5M399.5 688.5L416.5 671.5L433.5 671.5L450.5 671.5L467.5 671.5M552.5 688.5L569.5 688.5M331.5 671.5L348.5 688.5M382.5 671.5L399.5 671.5M603.5 705.5L620.5 705.5L637.5 705.5L654.5 705.5L671.5 705.5L688.5 705.5L705.5 705.5L722.5 705.5L739.5 705.5L756.5 705.5L773.5 705.5L790.5 705.5L807.5 722.5M178.5 654.5L195.5 654.5M586.5 705.5L603.5 688.5M-8.5 620.5L8.5 620.5L25.5 620.5L42.5 620.5L59.5 620.5L76.5 620.5L93.5 637.5L110.5 637.5L127.5 637.5L144.5 637.5L161.5 637.5L178.5 654.5L195.5 671.5L212.5 671.5L229.5 671.5L246.5 671.5L263.5 671.5L280.5 671.5L297.5 671.5L314.5 671.5L331.5 671.5L348.5 671.5L365.5 671.5L382.5 671.5L399.5 688.5L416.5 688.5L433.5 688.5L450.5 688.5L467.5 688.5L484.5 688.5L501.5 688.5L518.5 688.5L535.5 688.5L552.5 688.5L569.5 705.5L586.5 705.5L603.5 705.5L620.5 722.5L637.5 722.5" stroke="rgba(5, 215, 10, 1)" stroke-width="2.83"></path><path d="M633.25 722.5 a4.25 4.25 0 1 0 8.5 0 a4.25 4.25 0 1 0 -8.5 0zM378.25 688.5 a4.25 4.25 0 1 0 8.5 0 a4.25 4.25 0 1 0 -8.5 0zM463.25 671.5 a4.25 4.25 0 1 0 8.5 0 a4.25 4.25 0 1 0 -8.5 0zM565.25 688.5 a4.25 4.25 0 1 0 8.5 0 a4.25 4.25 0 1 0 -8.5 0zM344.25 688.5 a4.25 4.25 0 1 0 8.5 0 a4.25 4.25 0 1 0 -8.5 0zM395.25 671.5 a4.25 4.25 0 1 0 8.5 0 a4.25 4.25 0 1 0 -8.5 0zM803.25 722.5 a4.25 4.25 0 1 0 8.5 0 a4.25 4.25 0 1 0 -8.5 0zM191.25 654.5 a4.25 4.25 0 1 0 8.5 0 a4.25 4.25 0 1 0 -8.5 0zM599.25 688.5 a4.25 4.25 0 1 0 8.5 0 a4.25 4.25 0 1 0 -8.5 0z" fill="rgba(5, 215, 10, 1)"></path><path d="M518.5 195.5L535.5 178.5L552.5 178.5L569.5 161.5L586.5 161.5L603.5 161.5L620.5 178.5L637.5 178.5L654.5 178.5L671.5 178.5L688.5 178.5L705.5 178.5L722.5 178.5M824.5 161.5L841.5 161.5L858.5 161.5L875.5 161.5L892.5 161.5L909.5 161.5L926.5 161.5L943.5 161.5L960.5 161.5L977.5 161.5L994.5 161.5L1011.5 161.5L1028.5 161.5L1045.5 161.5L1062.5 161.5L1079.5 161.5L1096.5 161.5L1113.5 161.5M450.5 195.5L467.5 178.5L484.5 178.5M297.5 212.5L314.5 229.5L331.5 229.5M637.5 195.5L654.5 212.5L671.5 212.5M773.5 178.5L790.5 178.5L807.5 178.5L824.5 178.5L841.5 195.5L858.5 212.5M1011.5 178.5L1028.5 195.5L1045.5 195.5L1062.5 195.5M926.5 195.5L943.5 212.5L960.5 212.5L977.5 212.5L994.5 229.5L1011.5 229.5L1028.5 229.5L1045.5 229.5L1062.5 229.5L1079.5 212.5M739.5 178.5L756.5 195.5L773.5 195.5L790.5 195.5L807.5 195.5L824.5 195.5L841.5 212.5M756.5 178.5L773.5 161.5M161.5 229.5L178.5 246.5M280.5 229.5L297.5 229.5M858.5 195.5L875.5 178.5L892.5 178.5L909.5 178.5L926.5 178.5L943.5 178.5L960.5 178.5L977.5 178.5M586.5 195.5L603.5 178.5M994.5 178.5L1011.5 195.5L1028.5 212.5L1045.5 212.5L1062.5 212.5M-8.5 263.5L8.5 263.5L25.5 246.5L42.5 246.5L59.5 246.5L76.5 229.5L93.5 229.5L110.5 229.5L127.5 229.5L144.5 229.5L161.5 229.5L178.5 229.5L195.5 229.5L212.5 229.5L229.5 229.5L246.5 229.5L263.5 229.5L280.5 229.5L297.5 212.5L314.5 212.5L331.5 212.5L348.5 212.5L365.5 212.5L382.5 195.5L399.5 195.5L416.5 178.5L433.5 178.5L450.5 195.5L467.5 195.5L484.5 195.5L501.5 195.5L518.5 195.5L535.5 195.5L552.5 195.5L569.5 195.5L586.5 195.5L603.5 195.5L620.5 195.5L637.5 195.5L654.5 195.5L671.5 195.5L688.5 195.5L705.5 195.5L722.5 195.5L739.5 178.5L756.5 178.5L773.5 178.5L790.5 161.5L807.5 161.5L824.5 161.5L841.5 178.5L858.5 195.5L875.5 195.5L892.5 195.5L909.5 195.5L926.5 195.5L943.5 195.5L960.5 195.5L977.5 195.5L994.5 178.5L1011.5 178.5L1028.5 178.5" stroke="rgba(5, 215, 10, 1)" stroke-width="2.83"></path><path d="M1024.25 178.5 a4.25 4.25 0 1 0 8.5 0 a4.25 4.25 0 1 0 -8.5 0zM718.25 178.5 a4.25 4.25 0 1 0 8.5 0 a4.25 4.25 0 1 0 -8.5 0zM1109.25 161.5 a4.25 4.25 0 1 0 8.5 0 a4.25 4.25 0 1 0 -8.5 0zM480.25 178.5 a4.25 4.25 0 1 0 8.5 0 a4.25 4.25 0 1 0 -8.5 0zM327.25 229.5 a4.25 4.25 0 1 0 8.5 0 a4.25 4.25 0 1 0 -8.5 0zM667.25 212.5 a4.25 4.25 0 1 0 8.5 0 a4.25 4.25 0 1 0 -8.5 0zM854.25 212.5 a4.25 4.25 0 1 0 8.5 0 a4.25 4.25 0 1 0 -8.5 0zM1058.25 195.5 a4.25 4.25 0 1 0 8.5 0 a4.25 4.25 0 1 0 -8.5 0zM1075.25 212.5 a4.25 4.25 0 1 0 8.5 0 a4.25 4.25 0 1 0 -8.5 0zM837.25 212.5 a4.25 4.25 0 1 0 8.5 0 a4.25 4.25 0 1 0 -8.5 0zM769.25 161.5 a4.25 4.25 0 1 0 8.5 0 a4.25 4.25 0 1 0 -8.5 0zM174.25 246.5 a4.25 4.25 0 1 0 8.5 0 a4.25 4.25 0 1 0 -8.5 0zM293.25 229.5 a4.25 4.25 0 1 0 8.5 0 a4.25 4.25 0 1 0 -8.5 0zM973.25 178.5 a4.25 4.25 0 1 0 8.5 0 a4.25 4.25 0 1 0 -8.5 0zM599.25 178.5 a4.25 4.25 0 1 0 8.5 0 a4.25 4.25 0 1 0 -8.5 0zM1058.25 212.5 a4.25 4.25 0 1 0 8.5 0 a4.25 4.25 0 1 0 -8.5 0z" fill="rgba(5, 215, 10, 1)"></path><path d="M688.5 739.5L705.5 722.5M773.5 739.5L790.5 756.5L807.5 756.5L824.5 756.5L841.5 756.5L858.5 756.5L875.5 773.5L892.5 773.5L909.5 756.5L926.5 756.5L943.5 773.5M858.5 722.5L875.5 705.5L892.5 705.5L909.5 705.5L926.5 688.5L943.5 688.5L960.5 688.5L977.5 688.5L994.5 688.5L1011.5 688.5L1028.5 688.5L1045.5 688.5L1062.5 688.5M246.5 688.5L263.5 705.5L280.5 705.5M807.5 739.5L824.5 739.5L841.5 739.5L858.5 739.5L875.5 739.5L892.5 739.5L909.5 739.5L926.5 739.5L943.5 722.5L960.5 722.5L977.5 722.5L994.5 722.5L1011.5 739.5L1028.5 739.5L1045.5 739.5L1062.5 739.5L1079.5 739.5L1096.5 739.5L1113.5 739.5L1130.5 739.5M841.5 722.5L858.5 705.5L875.5 688.5L892.5 688.5L909.5 688.5M229.5 688.5L246.5 705.5M314.5 688.5L331.5 688.5M756.5 739.5L773.5 722.5L790.5 722.5M722.5 739.5L739.5 722.5L756.5 722.5M297.5 688.5L314.5 705.5M705.5 739.5L722.5 756.5M671.5 739.5L688.5 722.5M739.5 739.5L756.5 756.5L773.5 756.5L790.5 773.5L807.5 773.5L824.5 773.5L841.5 773.5L858.5 773.5L875.5 790.5L892.5 790.5L909.5 790.5M654.5 739.5L671.5 722.5M-8.5 637.5L8.5 637.5L25.5 637.5L42.5 637.5L59.5 637.5L76.5 637.5L93.5 654.5L110.5 654.5L127.5 654.5L144.5 654.5L161.5 654.5L178.5 671.5L195.5 688.5L212.5 688.5L229.5 688.5L246.5 688.5L263.5 688.5L280.5 688.5L297.5 688.5L314.5 688.5L331.5 705.5L348.5 705.5L365.5 705.5L382.5 705.5L399.5 705.5L416.5 705.5L433.5 705.5L450.5 705.5L467.5 705.5L484.5 705.5L501.5 705.5L518.5 705.5L535.5 705.5L552.5 705.5L569.5 722.5L586.5 722.5L603.5 722.5L620.5 739.5L637.5 739.5L654.5 739.5L671.5 739.5L688.5 739.5L705.5 739.5L722.5 739.5L739.5 739.5L756.5 739.5L773.5 739.5L790.5 739.5L807.5 739.5L824.5 722.5L841.5 722.5L858.5 722.5L875.5 722.5L892.5 722.5L909.5 722.5L926.5 705.5L943.5 705.5L960.5 705.5L977.5 705.5L994.5 705.5L1011.5 705.5L1028.5 705.5" stroke="rgba(5, 215, 10, 1)" stroke-width="2.83"></path><path d="M1024.25 705.5 a4.25 4.25 0 1 0 8.5 0 a4.25 4.25 0 1 0 -8.5 0zM701.25 722.5 a4.25 4.25 0 1 0 8.5 0 a4.25 4.25 0 1 0 -8.5 0zM939.25 773.5 a4.25 4.25 0 1 0 8.5 0 a4.25 4.25 0 1 0 -8.5 0zM1058.25 688.5 a4.25 4.25 0 1 0 8.5 0 a4.25 4.25 0 1 0 -8.5 0zM276.25 705.5 a4.25 4.25 0 1 0 8.5 0 a4.25 4.25 0 1 0 -8.5 0zM1126.25 739.5 a4.25 4.25 0 1 0 8.5 0 a4.25 4.25 0 1 0 -8.5 0zM905.25 688.5 a4.25 4.25 0 1 0 8.5 0 a4.25 4.25 0 1 0 -8.5 0zM242.25 705.5 a4.25 4.25 0 1 0 8.5 0 a4.25 4.25 0 1 0 -8.5 0zM327.25 688.5 a4.25 4.25 0 1 0 8.5 0 a4.25 4.25 0 1 0 -8.5 0zM786.25 722.5 a4.25 4.25 0 1 0 8.5 0 a4.25 4.25 0 1 0 -8.5 0zM752.25 722.5 a4.25 4.25 0 1 0 8.5 0 a4.25 4.25 0 1 0 -8.5 0zM310.25 705.5 a4.25 4.25 0 1 0 8.5 0 a4.25 4.25 0 1 0 -8.5 0zM718.25 756.5 a4.25 4.25 0 1 0 8.5 0 a4.25 4.25 0 1 0 -8.5 0zM684.25 722.5 a4.25 4.25 0 1 0 8.5 0 a4.25 4.25 0 1 0 -8.5 0zM905.25 790.5 a4.25 4.25 0 1 0 8.5 0 a4.25 4.25 0 1 0 -8.5 0zM667.25 722.5 a4.25 4.25 0 1 0 8.5 0 a4.25 4.25 0 1 0 -8.5 0z" fill="rgba(5, 215, 10, 1)"></path><path d="M892.5 144.5L909.5 127.5L926.5 127.5L943.5 127.5M620.5 161.5L637.5 144.5L654.5 144.5L671.5 144.5M1062.5 144.5L1079.5 127.5L1096.5 127.5L1113.5 127.5L1130.5 127.5M433.5 161.5L450.5 144.5L467.5 144.5L484.5 127.5L501.5 127.5M807.5 144.5L824.5 127.5L841.5 127.5M1028.5 144.5L1045.5 127.5M518.5 144.5L535.5 161.5M501.5 144.5L518.5 161.5M569.5 144.5L586.5 127.5L603.5 127.5L620.5 127.5L637.5 127.5L654.5 127.5L671.5 127.5L688.5 127.5L705.5 127.5L722.5 127.5L739.5 127.5M42.5 229.5L59.5 229.5M603.5 144.5L620.5 144.5M688.5 161.5L705.5 161.5L722.5 161.5L739.5 161.5L756.5 161.5M552.5 144.5L569.5 127.5L586.5 110.5L603.5 110.5L620.5 110.5L637.5 110.5L654.5 110.5L671.5 110.5L688.5 110.5L705.5 110.5L722.5 110.5M994.5 144.5L1011.5 127.5L1028.5 110.5L1045.5 110.5L1062.5 110.5M773.5 144.5L790.5 127.5L807.5 127.5L824.5 110.5L841.5 110.5L858.5 110.5L875.5 110.5L892.5 110.5L909.5 110.5L926.5 110.5L943.5 110.5L960.5 127.5L977.5 127.5L994.5 127.5L1011.5 110.5L1028.5 93.5M756.5 144.5L773.5 127.5L790.5 110.5L807.5 110.5L824.5 93.5L841.5 93.5L858.5 93.5L875.5 93.5L892.5 93.5L909.5 93.5L926.5 93.5L943.5 93.5L960.5 93.5L977.5 93.5L994.5 93.5L1011.5 93.5L1028.5 76.5L1045.5 76.5M-8.5 246.5L8.5 246.5L25.5 229.5L42.5 229.5L59.5 212.5L76.5 212.5L93.5 212.5L110.5 212.5L127.5 212.5L144.5 212.5L161.5 212.5L178.5 212.5L195.5 212.5L212.5 212.5L229.5 212.5L246.5 212.5L263.5 212.5L280.5 212.5L297.5 195.5L314.5 195.5L331.5 195.5L348.5 195.5L365.5 195.5L382.5 178.5L399.5 178.5L416.5 161.5L433.5 161.5L450.5 161.5L467.5 161.5L484.5 144.5L501.5 144.5L518.5 144.5L535.5 144.5L552.5 144.5L569.5 144.5L586.5 144.5L603.5 144.5L620.5 161.5L637.5 161.5L654.5 161.5L671.5 161.5L688.5 161.5L705.5 144.5L722.5 144.5L739.5 144.5L756.5 144.5L773.5 144.5L790.5 144.5L807.5 144.5L824.5 144.5L841.5 144.5L858.5 144.5L875.5 144.5L892.5 144.5L909.5 144.5L926.5 144.5L943.5 144.5L960.5 144.5L977.5 144.5L994.5 144.5L1011.5 144.5L1028.5 144.5L1045.5 144.5L1062.5 144.5L1079.5 144.5L1096.5 144.5L1113.5 144.5" stroke="#dd1133" stroke-width="2.83"></path><path d="M1109.25 144.5 a4.25 4.25 0 1 0 8.5 0 a4.25 4.25 0 1 0 -8.5 0zM939.25 127.5 a4.25 4.25 0 1 0 8.5 0 a4.25 4.25 0 1 0 -8.5 0zM667.25 144.5 a4.25 4.25 0 1 0 8.5 0 a4.25 4.25 0 1 0 -8.5 0zM1126.25 127.5 a4.25 4.25 0 1 0 8.5 0 a4.25 4.25 0 1 0 -8.5 0zM497.25 127.5 a4.25 4.25 0 1 0 8.5 0 a4.25 4.25 0 1 0 -8.5 0zM837.25 127.5 a4.25 4.25 0 1 0 8.5 0 a4.25 4.25 0 1 0 -8.5 0zM1041.25 127.5 a4.25 4.25 0 1 0 8.5 0 a4.25 4.25 0 1 0 -8.5 0zM531.25 161.5 a4.25 4.25 0 1 0 8.5 0 a4.25 4.25 0 1 0 -8.5 0zM514.25 161.5 a4.25 4.25 0 1 0 8.5 0 a4.25 4.25 0 1 0 -8.5 0zM735.25 127.5 a4.25 4.25 0 1 0 8.5 0 a4.25 4.25 0 1 0 -8.5 0zM55.25 229.5 a4.25 4.25 0 1 0 8.5 0 a4.25 4.25 0 1 0 -8.5 0zM616.25 144.5 a4.25 4.25 0 1 0 8.5 0 a4.25 4.25 0 1 0 -8.5 0zM752.25 161.5 a4.25 4.25 0 1 0 8.5 0 a4.25 4.25 0 1 0 -8.5 0zM718.25 110.5 a4.25 4.25 0 1 0 8.5 0 a4.25 4.25 0 1 0 -8.5 0zM1058.25 110.5 a4.25 4.25 0 1 0 8.5 0 a4.25 4.25 0 1 0 -8.5 0zM1024.25 93.5 a4.25 4.25 0 1 0 8.5 0 a4.25 4.25 0 1 0 -8.5 0zM1041.25 76.5 a4.25 4.25 0 1 0 8.5 0 a4.25 4.25 0 1 0 -8.5 0z" fill="#dd1133"></path><path d="M195.5 705.5L212.5 722.5L229.5 739.5L246.5 739.5L263.5 739.5M8.5 654.5L25.5 671.5L42.5 671.5L59.5 688.5L76.5 688.5M739.5 790.5L756.5 773.5L773.5 773.5M382.5 722.5L399.5 739.5L416.5 739.5L433.5 739.5L450.5 739.5M671.5 756.5L688.5 756.5L705.5 756.5L722.5 773.5L739.5 773.5M348.5 722.5L365.5 739.5L382.5 739.5L399.5 756.5M790.5 790.5L807.5 807.5L824.5 807.5L841.5 807.5L858.5 807.5L875.5 807.5L892.5 807.5L909.5 807.5L926.5 807.5L943.5 807.5L960.5 807.5L977.5 824.5L994.5 824.5L1011.5 824.5L1028.5 824.5L1045.5 824.5M93.5 671.5L110.5 688.5M569.5 739.5L586.5 756.5M212.5 705.5L229.5 705.5M722.5 790.5L739.5 807.5L756.5 807.5L773.5 807.5L790.5 807.5L807.5 824.5L824.5 824.5L841.5 824.5L858.5 824.5M688.5 773.5L705.5 773.5M-8.5 654.5L8.5 654.5L25.5 654.5L42.5 654.5L59.5 654.5L76.5 654.5L93.5 671.5L110.5 671.5L127.5 671.5L144.5 671.5L161.5 671.5L178.5 688.5L195.5 705.5L212.5 705.5L229.5 722.5L246.5 722.5L263.5 722.5L280.5 722.5L297.5 722.5L314.5 722.5L331.5 722.5L348.5 722.5L365.5 722.5L382.5 722.5L399.5 722.5L416.5 722.5L433.5 722.5L450.5 722.5L467.5 722.5L484.5 722.5L501.5 722.5L518.5 722.5L535.5 722.5L552.5 722.5L569.5 739.5L586.5 739.5L603.5 739.5L620.5 756.5L637.5 756.5L654.5 756.5L671.5 756.5L688.5 773.5L705.5 790.5L722.5 790.5L739.5 790.5L756.5 790.5L773.5 790.5L790.5 790.5L807.5 790.5" stroke="rgba(5, 215, 10, 1)" stroke-width="2.83"></path><path d="M803.25 790.5 a4.25 4.25 0 1 0 8.5 0 a4.25 4.25 0 1 0 -8.5 0zM259.25 739.5 a4.25 4.25 0 1 0 8.5 0 a4.25 4.25 0 1 0 -8.5 0zM72.25 688.5 a4.25 4.25 0 1 0 8.5 0 a4.25 4.25 0 1 0 -8.5 0zM769.25 773.5 a4.25 4.25 0 1 0 8.5 0 a4.25 4.25 0 1 0 -8.5 0zM446.25 739.5 a4.25 4.25 0 1 0 8.5 0 a4.25 4.25 0 1 0 -8.5 0zM735.25 773.5 a4.25 4.25 0 1 0 8.5 0 a4.25 4.25 0 1 0 -8.5 0zM395.25 756.5 a4.25 4.25 0 1 0 8.5 0 a4.25 4.25 0 1 0 -8.5 0zM1041.25 824.5 a4.25 4.25 0 1 0 8.5 0 a4.25 4.25 0 1 0 -8.5 0zM106.25 688.5 a4.25 4.25 0 1 0 8.5 0 a4.25 4.25 0 1 0 -8.5 0zM582.25 756.5 a4.25 4.25 0 1 0 8.5 0 a4.25 4.25 0 1 0 -8.5 0zM225.25 705.5 a4.25 4.25 0 1 0 8.5 0 a4.25 4.25 0 1 0 -8.5 0zM854.25 824.5 a4.25 4.25 0 1 0 8.5 0 a4.25 4.25 0 1 0 -8.5 0zM701.25 773.5 a4.25 4.25 0 1 0 8.5 0 a4.25 4.25 0 1 0 -8.5 0z" fill="rgba(5, 215, 10, 1)"></path><path d="M110.5 195.5L127.5 178.5L144.5 178.5L161.5 178.5L178.5 178.5M229.5 195.5L246.5 178.5L263.5 178.5L280.5 178.5L297.5 161.5M212.5 195.5L229.5 178.5L246.5 161.5L263.5 161.5L280.5 161.5L297.5 144.5M25.5 212.5L42.5 195.5L59.5 178.5L76.5 178.5M195.5 195.5L212.5 178.5M93.5 195.5L110.5 178.5L127.5 161.5M-8.5 229.5L8.5 229.5L25.5 212.5L42.5 212.5L59.5 195.5L76.5 195.5L93.5 195.5L110.5 195.5L127.5 195.5L144.5 195.5L161.5 195.5L178.5 195.5L195.5 195.5L212.5 195.5L229.5 195.5L246.5 195.5L263.5 195.5L280.5 195.5L297.5 178.5L314.5 178.5L331.5 178.5L348.5 178.5L365.5 178.5L382.5 161.5" stroke="#3a7cc3" stroke-width="2.83"></path><path d="M378.25 161.5 a4.25 4.25 0 1 0 8.5 0 a4.25 4.25 0 1 0 -8.5 0zM174.25 178.5 a4.25 4.25 0 1 0 8.5 0 a4.25 4.25 0 1 0 -8.5 0zM293.25 161.5 a4.25 4.25 0 1 0 8.5 0 a4.25 4.25 0 1 0 -8.5 0zM293.25 144.5 a4.25 4.25 0 1 0 8.5 0 a4.25 4.25 0 1 0 -8.5 0zM72.25 178.5 a4.25 4.25 0 1 0 8.5 0 a4.25 4.25 0 1 0 -8.5 0zM208.25 178.5 a4.25 4.25 0 1 0 8.5 0 a4.25 4.25 0 1 0 -8.5 0zM123.25 161.5 a4.25 4.25 0 1 0 8.5 0 a4.25 4.25 0 1 0 -8.5 0z" fill="#3a7cc3"></path></g></g><defs><mask id="SvgjsMask1257"><rect width="1440" height="900" fill="#ffffff"></rect></mask><mask id="SvgjsMask1258"><rect width="1440" height="900" fill="white"></rect><path d="M346.37 450.5 a2.13 2.13 0 1 0 4.26 0 a2.13 2.13 0 1 0 -4.26 0zM363.37 450.5 a2.13 2.13 0 1 0 4.26 0 a2.13 2.13 0 1 0 -4.26 0zM278.37 450.5 a2.13 2.13 0 1 0 4.26 0 a2.13 2.13 0 1 0 -4.26 0zM329.37 450.5 a2.13 2.13 0 1 0 4.26 0 a2.13 2.13 0 1 0 -4.26 0zM261.37 450.5 a2.13 2.13 0 1 0 4.26 0 a2.13 2.13 0 1 0 -4.26 0z" fill="black"></path><path d="M210.37 433.5 a2.13 2.13 0 1 0 4.26 0 a2.13 2.13 0 1 0 -4.26 0z" fill="black"></path><path d="M431.37 467.5 a2.13 2.13 0 1 0 4.26 0 a2.13 2.13 0 1 0 -4.26 0zM499.37 433.5 a2.13 2.13 0 1 0 4.26 0 a2.13 2.13 0 1 0 -4.26 0zM397.37 450.5 a2.13 2.13 0 1 0 4.26 0 a2.13 2.13 0 1 0 -4.26 0zM312.37 450.5 a2.13 2.13 0 1 0 4.26 0 a2.13 2.13 0 1 0 -4.26 0z" fill="black"></path><path d="M1060.37 348.5 a2.13 2.13 0 1 0 4.26 0 a2.13 2.13 0 1 0 -4.26 0zM210.37 399.5 a2.13 2.13 0 1 0 4.26 0 a2.13 2.13 0 1 0 -4.26 0zM890.37 365.5 a2.13 2.13 0 1 0 4.26 0 a2.13 2.13 0 1 0 -4.26 0zM567.37 399.5 a2.13 2.13 0 1 0 4.26 0 a2.13 2.13 0 1 0 -4.26 0zM618.37 348.5 a2.13 2.13 0 1 0 4.26 0 a2.13 2.13 0 1 0 -4.26 0zM754.37 365.5 a2.13 2.13 0 1 0 4.26 0 a2.13 2.13 0 1 0 -4.26 0zM771.37 382.5 a2.13 2.13 0 1 0 4.26 0 a2.13 2.13 0 1 0 -4.26 0zM329.37 399.5 a2.13 2.13 0 1 0 4.26 0 a2.13 2.13 0 1 0 -4.26 0zM1077.37 399.5 a2.13 2.13 0 1 0 4.26 0 a2.13 2.13 0 1 0 -4.26 0zM142.37 399.5 a2.13 2.13 0 1 0 4.26 0 a2.13 2.13 0 1 0 -4.26 0zM941.37 382.5 a2.13 2.13 0 1 0 4.26 0 a2.13 2.13 0 1 0 -4.26 0zM1128.37 314.5 a2.13 2.13 0 1 0 4.26 0 a2.13 2.13 0 1 0 -4.26 0zM754.37 331.5 a2.13 2.13 0 1 0 4.26 0 a2.13 2.13 0 1 0 -4.26 0zM1043.37 399.5 a2.13 2.13 0 1 0 4.26 0 a2.13 2.13 0 1 0 -4.26 0zM499.37 399.5 a2.13 2.13 0 1 0 4.26 0 a2.13 2.13 0 1 0 -4.26 0zM652.37 348.5 a2.13 2.13 0 1 0 4.26 0 a2.13 2.13 0 1 0 -4.26 0zM703.37 382.5 a2.13 2.13 0 1 0 4.26 0 a2.13 2.13 0 1 0 -4.26 0z" fill="black"></path><path d="M601.37 484.5 a2.13 2.13 0 1 0 4.26 0 a2.13 2.13 0 1 0 -4.26 0zM516.37 501.5 a2.13 2.13 0 1 0 4.26 0 a2.13 2.13 0 1 0 -4.26 0zM516.37 518.5 a2.13 2.13 0 1 0 4.26 0 a2.13 2.13 0 1 0 -4.26 0zM414.37 518.5 a2.13 2.13 0 1 0 4.26 0 a2.13 2.13 0 1 0 -4.26 0zM516.37 467.5 a2.13 2.13 0 1 0 4.26 0 a2.13 2.13 0 1 0 -4.26 0zM397.37 518.5 a2.13 2.13 0 1 0 4.26 0 a2.13 2.13 0 1 0 -4.26 0zM601.37 467.5 a2.13 2.13 0 1 0 4.26 0 a2.13 2.13 0 1 0 -4.26 0zM618.37 501.5 a2.13 2.13 0 1 0 4.26 0 a2.13 2.13 0 1 0 -4.26 0zM278.37 501.5 a2.13 2.13 0 1 0 4.26 0 a2.13 2.13 0 1 0 -4.26 0zM601.37 518.5 a2.13 2.13 0 1 0 4.26 0 a2.13 2.13 0 1 0 -4.26 0z" fill="black"></path><path d="M618.37 331.5 a2.13 2.13 0 1 0 4.26 0 a2.13 2.13 0 1 0 -4.26 0zM380.37 365.5 a2.13 2.13 0 1 0 4.26 0 a2.13 2.13 0 1 0 -4.26 0zM329.37 365.5 a2.13 2.13 0 1 0 4.26 0 a2.13 2.13 0 1 0 -4.26 0zM584.37 348.5 a2.13 2.13 0 1 0 4.26 0 a2.13 2.13 0 1 0 -4.26 0zM499.37 348.5 a2.13 2.13 0 1 0 4.26 0 a2.13 2.13 0 1 0 -4.26 0zM108.37 399.5 a2.13 2.13 0 1 0 4.26 0 a2.13 2.13 0 1 0 -4.26 0zM533.37 365.5 a2.13 2.13 0 1 0 4.26 0 a2.13 2.13 0 1 0 -4.26 0zM261.37 365.5 a2.13 2.13 0 1 0 4.26 0 a2.13 2.13 0 1 0 -4.26 0zM567.37 348.5 a2.13 2.13 0 1 0 4.26 0 a2.13 2.13 0 1 0 -4.26 0zM652.37 314.5 a2.13 2.13 0 1 0 4.26 0 a2.13 2.13 0 1 0 -4.26 0z" fill="black"></path><path d="M1060.37 552.5 a2.13 2.13 0 1 0 4.26 0 a2.13 2.13 0 1 0 -4.26 0zM482.37 552.5 a2.13 2.13 0 1 0 4.26 0 a2.13 2.13 0 1 0 -4.26 0zM941.37 484.5 a2.13 2.13 0 1 0 4.26 0 a2.13 2.13 0 1 0 -4.26 0zM703.37 569.5 a2.13 2.13 0 1 0 4.26 0 a2.13 2.13 0 1 0 -4.26 0zM1043.37 518.5 a2.13 2.13 0 1 0 4.26 0 a2.13 2.13 0 1 0 -4.26 0zM941.37 552.5 a2.13 2.13 0 1 0 4.26 0 a2.13 2.13 0 1 0 -4.26 0zM822.37 552.5 a2.13 2.13 0 1 0 4.26 0 a2.13 2.13 0 1 0 -4.26 0zM261.37 501.5 a2.13 2.13 0 1 0 4.26 0 a2.13 2.13 0 1 0 -4.26 0zM227.37 518.5 a2.13 2.13 0 1 0 4.26 0 a2.13 2.13 0 1 0 -4.26 0zM210.37 518.5 a2.13 2.13 0 1 0 4.26 0 a2.13 2.13 0 1 0 -4.26 0zM584.37 518.5 a2.13 2.13 0 1 0 4.26 0 a2.13 2.13 0 1 0 -4.26 0zM686.37 501.5 a2.13 2.13 0 1 0 4.26 0 a2.13 2.13 0 1 0 -4.26 0zM771.37 518.5 a2.13 2.13 0 1 0 4.26 0 a2.13 2.13 0 1 0 -4.26 0zM329.37 518.5 a2.13 2.13 0 1 0 4.26 0 a2.13 2.13 0 1 0 -4.26 0zM635.37 535.5 a2.13 2.13 0 1 0 4.26 0 a2.13 2.13 0 1 0 -4.26 0zM193.37 518.5 a2.13 2.13 0 1 0 4.26 0 a2.13 2.13 0 1 0 -4.26 0zM176.37 518.5 a2.13 2.13 0 1 0 4.26 0 a2.13 2.13 0 1 0 -4.26 0z" fill="black"></path><path d="M873.37 314.5 a2.13 2.13 0 1 0 4.26 0 a2.13 2.13 0 1 0 -4.26 0zM1077.37 297.5 a2.13 2.13 0 1 0 4.26 0 a2.13 2.13 0 1 0 -4.26 0zM91.37 365.5 a2.13 2.13 0 1 0 4.26 0 a2.13 2.13 0 1 0 -4.26 0zM567.37 297.5 a2.13 2.13 0 1 0 4.26 0 a2.13 2.13 0 1 0 -4.26 0zM482.37 348.5 a2.13 2.13 0 1 0 4.26 0 a2.13 2.13 0 1 0 -4.26 0zM907.37 297.5 a2.13 2.13 0 1 0 4.26 0 a2.13 2.13 0 1 0 -4.26 0zM244.37 365.5 a2.13 2.13 0 1 0 4.26 0 a2.13 2.13 0 1 0 -4.26 0zM805.37 297.5 a2.13 2.13 0 1 0 4.26 0 a2.13 2.13 0 1 0 -4.26 0zM482.37 314.5 a2.13 2.13 0 1 0 4.26 0 a2.13 2.13 0 1 0 -4.26 0zM907.37 263.5 a2.13 2.13 0 1 0 4.26 0 a2.13 2.13 0 1 0 -4.26 0zM669.37 280.5 a2.13 2.13 0 1 0 4.26 0 a2.13 2.13 0 1 0 -4.26 0zM788.37 331.5 a2.13 2.13 0 1 0 4.26 0 a2.13 2.13 0 1 0 -4.26 0zM465.37 314.5 a2.13 2.13 0 1 0 4.26 0 a2.13 2.13 0 1 0 -4.26 0zM720.37 280.5 a2.13 2.13 0 1 0 4.26 0 a2.13 2.13 0 1 0 -4.26 0z" fill="black"></path><path d="M261.37 535.5 a2.13 2.13 0 1 0 4.26 0 a2.13 2.13 0 1 0 -4.26 0zM74.37 518.5 a2.13 2.13 0 1 0 4.26 0 a2.13 2.13 0 1 0 -4.26 0zM193.37 552.5 a2.13 2.13 0 1 0 4.26 0 a2.13 2.13 0 1 0 -4.26 0zM142.37 552.5 a2.13 2.13 0 1 0 4.26 0 a2.13 2.13 0 1 0 -4.26 0z" fill="black"></path><path d="M516.37 280.5 a2.13 2.13 0 1 0 4.26 0 a2.13 2.13 0 1 0 -4.26 0zM363.37 314.5 a2.13 2.13 0 1 0 4.26 0 a2.13 2.13 0 1 0 -4.26 0zM23.37 365.5 a2.13 2.13 0 1 0 4.26 0 a2.13 2.13 0 1 0 -4.26 0zM448.37 314.5 a2.13 2.13 0 1 0 4.26 0 a2.13 2.13 0 1 0 -4.26 0zM533.37 297.5 a2.13 2.13 0 1 0 4.26 0 a2.13 2.13 0 1 0 -4.26 0zM516.37 314.5 a2.13 2.13 0 1 0 4.26 0 a2.13 2.13 0 1 0 -4.26 0zM329.37 331.5 a2.13 2.13 0 1 0 4.26 0 a2.13 2.13 0 1 0 -4.26 0zM482.37 297.5 a2.13 2.13 0 1 0 4.26 0 a2.13 2.13 0 1 0 -4.26 0z" fill="black"></path><path d="M941.37 569.5 a2.13 2.13 0 1 0 4.26 0 a2.13 2.13 0 1 0 -4.26 0zM550.37 569.5 a2.13 2.13 0 1 0 4.26 0 a2.13 2.13 0 1 0 -4.26 0zM363.37 552.5 a2.13 2.13 0 1 0 4.26 0 a2.13 2.13 0 1 0 -4.26 0zM669.37 586.5 a2.13 2.13 0 1 0 4.26 0 a2.13 2.13 0 1 0 -4.26 0zM380.37 586.5 a2.13 2.13 0 1 0 4.26 0 a2.13 2.13 0 1 0 -4.26 0zM975.37 586.5 a2.13 2.13 0 1 0 4.26 0 a2.13 2.13 0 1 0 -4.26 0zM499.37 586.5 a2.13 2.13 0 1 0 4.26 0 a2.13 2.13 0 1 0 -4.26 0zM856.37 586.5 a2.13 2.13 0 1 0 4.26 0 a2.13 2.13 0 1 0 -4.26 0zM1111.37 620.5 a2.13 2.13 0 1 0 4.26 0 a2.13 2.13 0 1 0 -4.26 0zM91.37 552.5 a2.13 2.13 0 1 0 4.26 0 a2.13 2.13 0 1 0 -4.26 0zM533.37 569.5 a2.13 2.13 0 1 0 4.26 0 a2.13 2.13 0 1 0 -4.26 0zM873.37 603.5 a2.13 2.13 0 1 0 4.26 0 a2.13 2.13 0 1 0 -4.26 0zM652.37 586.5 a2.13 2.13 0 1 0 4.26 0 a2.13 2.13 0 1 0 -4.26 0zM839.37 569.5 a2.13 2.13 0 1 0 4.26 0 a2.13 2.13 0 1 0 -4.26 0zM346.37 586.5 a2.13 2.13 0 1 0 4.26 0 a2.13 2.13 0 1 0 -4.26 0z" fill="black"></path><path d="M856.37 263.5 a2.13 2.13 0 1 0 4.26 0 a2.13 2.13 0 1 0 -4.26 0zM703.37 280.5 a2.13 2.13 0 1 0 4.26 0 a2.13 2.13 0 1 0 -4.26 0zM635.37 263.5 a2.13 2.13 0 1 0 4.26 0 a2.13 2.13 0 1 0 -4.26 0zM907.37 246.5 a2.13 2.13 0 1 0 4.26 0 a2.13 2.13 0 1 0 -4.26 0zM652.37 280.5 a2.13 2.13 0 1 0 4.26 0 a2.13 2.13 0 1 0 -4.26 0zM890.37 212.5 a2.13 2.13 0 1 0 4.26 0 a2.13 2.13 0 1 0 -4.26 0zM567.37 263.5 a2.13 2.13 0 1 0 4.26 0 a2.13 2.13 0 1 0 -4.26 0zM312.37 314.5 a2.13 2.13 0 1 0 4.26 0 a2.13 2.13 0 1 0 -4.26 0zM533.37 263.5 a2.13 2.13 0 1 0 4.26 0 a2.13 2.13 0 1 0 -4.26 0z" fill="black"></path><path d="M40.37 552.5 a2.13 2.13 0 1 0 4.26 0 a2.13 2.13 0 1 0 -4.26 0z" fill="black"></path><path d="M805.37 246.5 a2.13 2.13 0 1 0 4.26 0 a2.13 2.13 0 1 0 -4.26 0zM397.37 246.5 a2.13 2.13 0 1 0 4.26 0 a2.13 2.13 0 1 0 -4.26 0zM465.37 246.5 a2.13 2.13 0 1 0 4.26 0 a2.13 2.13 0 1 0 -4.26 0zM618.37 229.5 a2.13 2.13 0 1 0 4.26 0 a2.13 2.13 0 1 0 -4.26 0zM788.37 229.5 a2.13 2.13 0 1 0 4.26 0 a2.13 2.13 0 1 0 -4.26 0zM737.37 229.5 a2.13 2.13 0 1 0 4.26 0 a2.13 2.13 0 1 0 -4.26 0zM618.37 212.5 a2.13 2.13 0 1 0 4.26 0 a2.13 2.13 0 1 0 -4.26 0zM703.37 212.5 a2.13 2.13 0 1 0 4.26 0 a2.13 2.13 0 1 0 -4.26 0zM448.37 246.5 a2.13 2.13 0 1 0 4.26 0 a2.13 2.13 0 1 0 -4.26 0z" fill="black"></path><path d="M992.37 654.5 a2.13 2.13 0 1 0 4.26 0 a2.13 2.13 0 1 0 -4.26 0zM635.37 637.5 a2.13 2.13 0 1 0 4.26 0 a2.13 2.13 0 1 0 -4.26 0zM618.37 637.5 a2.13 2.13 0 1 0 4.26 0 a2.13 2.13 0 1 0 -4.26 0zM907.37 620.5 a2.13 2.13 0 1 0 4.26 0 a2.13 2.13 0 1 0 -4.26 0zM720.37 620.5 a2.13 2.13 0 1 0 4.26 0 a2.13 2.13 0 1 0 -4.26 0zM1128.37 671.5 a2.13 2.13 0 1 0 4.26 0 a2.13 2.13 0 1 0 -4.26 0zM567.37 637.5 a2.13 2.13 0 1 0 4.26 0 a2.13 2.13 0 1 0 -4.26 0zM465.37 620.5 a2.13 2.13 0 1 0 4.26 0 a2.13 2.13 0 1 0 -4.26 0zM227.37 586.5 a2.13 2.13 0 1 0 4.26 0 a2.13 2.13 0 1 0 -4.26 0zM788.37 620.5 a2.13 2.13 0 1 0 4.26 0 a2.13 2.13 0 1 0 -4.26 0zM975.37 671.5 a2.13 2.13 0 1 0 4.26 0 a2.13 2.13 0 1 0 -4.26 0zM703.37 603.5 a2.13 2.13 0 1 0 4.26 0 a2.13 2.13 0 1 0 -4.26 0zM992.37 620.5 a2.13 2.13 0 1 0 4.26 0 a2.13 2.13 0 1 0 -4.26 0zM839.37 654.5 a2.13 2.13 0 1 0 4.26 0 a2.13 2.13 0 1 0 -4.26 0zM958.37 671.5 a2.13 2.13 0 1 0 4.26 0 a2.13 2.13 0 1 0 -4.26 0zM414.37 620.5 a2.13 2.13 0 1 0 4.26 0 a2.13 2.13 0 1 0 -4.26 0z" fill="black"></path><path d="M516.37 229.5 a2.13 2.13 0 1 0 4.26 0 a2.13 2.13 0 1 0 -4.26 0zM380.37 246.5 a2.13 2.13 0 1 0 4.26 0 a2.13 2.13 0 1 0 -4.26 0zM516.37 212.5 a2.13 2.13 0 1 0 4.26 0 a2.13 2.13 0 1 0 -4.26 0zM227.37 280.5 a2.13 2.13 0 1 0 4.26 0 a2.13 2.13 0 1 0 -4.26 0zM431.37 246.5 a2.13 2.13 0 1 0 4.26 0 a2.13 2.13 0 1 0 -4.26 0zM142.37 280.5 a2.13 2.13 0 1 0 4.26 0 a2.13 2.13 0 1 0 -4.26 0zM465.37 212.5 a2.13 2.13 0 1 0 4.26 0 a2.13 2.13 0 1 0 -4.26 0zM91.37 280.5 a2.13 2.13 0 1 0 4.26 0 a2.13 2.13 0 1 0 -4.26 0zM125.37 280.5 a2.13 2.13 0 1 0 4.26 0 a2.13 2.13 0 1 0 -4.26 0z" fill="black"></path><path d="M329.37 620.5 a2.13 2.13 0 1 0 4.26 0 a2.13 2.13 0 1 0 -4.26 0zM312.37 637.5 a2.13 2.13 0 1 0 4.26 0 a2.13 2.13 0 1 0 -4.26 0z" fill="black"></path><path d="M23.37 280.5 a2.13 2.13 0 1 0 4.26 0 a2.13 2.13 0 1 0 -4.26 0z" fill="black"></path><path d="M805.37 654.5 a2.13 2.13 0 1 0 4.26 0 a2.13 2.13 0 1 0 -4.26 0zM618.37 671.5 a2.13 2.13 0 1 0 4.26 0 a2.13 2.13 0 1 0 -4.26 0zM244.37 654.5 a2.13 2.13 0 1 0 4.26 0 a2.13 2.13 0 1 0 -4.26 0zM210.37 654.5 a2.13 2.13 0 1 0 4.26 0 a2.13 2.13 0 1 0 -4.26 0zM397.37 637.5 a2.13 2.13 0 1 0 4.26 0 a2.13 2.13 0 1 0 -4.26 0zM193.37 620.5 a2.13 2.13 0 1 0 4.26 0 a2.13 2.13 0 1 0 -4.26 0zM686.37 671.5 a2.13 2.13 0 1 0 4.26 0 a2.13 2.13 0 1 0 -4.26 0zM805.37 671.5 a2.13 2.13 0 1 0 4.26 0 a2.13 2.13 0 1 0 -4.26 0zM669.37 671.5 a2.13 2.13 0 1 0 4.26 0 a2.13 2.13 0 1 0 -4.26 0zM380.37 620.5 a2.13 2.13 0 1 0 4.26 0 a2.13 2.13 0 1 0 -4.26 0zM839.37 688.5 a2.13 2.13 0 1 0 4.26 0 a2.13 2.13 0 1 0 -4.26 0zM805.37 705.5 a2.13 2.13 0 1 0 4.26 0 a2.13 2.13 0 1 0 -4.26 0zM720.37 671.5 a2.13 2.13 0 1 0 4.26 0 a2.13 2.13 0 1 0 -4.26 0z" fill="black"></path><path d="M414.37 195.5 a2.13 2.13 0 1 0 4.26 0 a2.13 2.13 0 1 0 -4.26 0zM278.37 246.5 a2.13 2.13 0 1 0 4.26 0 a2.13 2.13 0 1 0 -4.26 0zM431.37 195.5 a2.13 2.13 0 1 0 4.26 0 a2.13 2.13 0 1 0 -4.26 0zM74.37 280.5 a2.13 2.13 0 1 0 4.26 0 a2.13 2.13 0 1 0 -4.26 0zM108.37 263.5 a2.13 2.13 0 1 0 4.26 0 a2.13 2.13 0 1 0 -4.26 0zM244.37 246.5 a2.13 2.13 0 1 0 4.26 0 a2.13 2.13 0 1 0 -4.26 0zM210.37 246.5 a2.13 2.13 0 1 0 4.26 0 a2.13 2.13 0 1 0 -4.26 0z" fill="black"></path><path d="M635.37 722.5 a2.13 2.13 0 1 0 4.26 0 a2.13 2.13 0 1 0 -4.26 0zM380.37 688.5 a2.13 2.13 0 1 0 4.26 0 a2.13 2.13 0 1 0 -4.26 0zM465.37 671.5 a2.13 2.13 0 1 0 4.26 0 a2.13 2.13 0 1 0 -4.26 0zM567.37 688.5 a2.13 2.13 0 1 0 4.26 0 a2.13 2.13 0 1 0 -4.26 0zM346.37 688.5 a2.13 2.13 0 1 0 4.26 0 a2.13 2.13 0 1 0 -4.26 0zM397.37 671.5 a2.13 2.13 0 1 0 4.26 0 a2.13 2.13 0 1 0 -4.26 0zM805.37 722.5 a2.13 2.13 0 1 0 4.26 0 a2.13 2.13 0 1 0 -4.26 0zM193.37 654.5 a2.13 2.13 0 1 0 4.26 0 a2.13 2.13 0 1 0 -4.26 0zM601.37 688.5 a2.13 2.13 0 1 0 4.26 0 a2.13 2.13 0 1 0 -4.26 0z" fill="black"></path><path d="M1026.37 178.5 a2.13 2.13 0 1 0 4.26 0 a2.13 2.13 0 1 0 -4.26 0zM720.37 178.5 a2.13 2.13 0 1 0 4.26 0 a2.13 2.13 0 1 0 -4.26 0zM1111.37 161.5 a2.13 2.13 0 1 0 4.26 0 a2.13 2.13 0 1 0 -4.26 0zM482.37 178.5 a2.13 2.13 0 1 0 4.26 0 a2.13 2.13 0 1 0 -4.26 0zM329.37 229.5 a2.13 2.13 0 1 0 4.26 0 a2.13 2.13 0 1 0 -4.26 0zM669.37 212.5 a2.13 2.13 0 1 0 4.26 0 a2.13 2.13 0 1 0 -4.26 0zM856.37 212.5 a2.13 2.13 0 1 0 4.26 0 a2.13 2.13 0 1 0 -4.26 0zM1060.37 195.5 a2.13 2.13 0 1 0 4.26 0 a2.13 2.13 0 1 0 -4.26 0zM1077.37 212.5 a2.13 2.13 0 1 0 4.26 0 a2.13 2.13 0 1 0 -4.26 0zM839.37 212.5 a2.13 2.13 0 1 0 4.26 0 a2.13 2.13 0 1 0 -4.26 0zM771.37 161.5 a2.13 2.13 0 1 0 4.26 0 a2.13 2.13 0 1 0 -4.26 0zM176.37 246.5 a2.13 2.13 0 1 0 4.26 0 a2.13 2.13 0 1 0 -4.26 0zM295.37 229.5 a2.13 2.13 0 1 0 4.26 0 a2.13 2.13 0 1 0 -4.26 0zM975.37 178.5 a2.13 2.13 0 1 0 4.26 0 a2.13 2.13 0 1 0 -4.26 0zM601.37 178.5 a2.13 2.13 0 1 0 4.26 0 a2.13 2.13 0 1 0 -4.26 0zM1060.37 212.5 a2.13 2.13 0 1 0 4.26 0 a2.13 2.13 0 1 0 -4.26 0z" fill="black"></path><path d="M1026.37 705.5 a2.13 2.13 0 1 0 4.26 0 a2.13 2.13 0 1 0 -4.26 0zM703.37 722.5 a2.13 2.13 0 1 0 4.26 0 a2.13 2.13 0 1 0 -4.26 0zM941.37 773.5 a2.13 2.13 0 1 0 4.26 0 a2.13 2.13 0 1 0 -4.26 0zM1060.37 688.5 a2.13 2.13 0 1 0 4.26 0 a2.13 2.13 0 1 0 -4.26 0zM278.37 705.5 a2.13 2.13 0 1 0 4.26 0 a2.13 2.13 0 1 0 -4.26 0zM1128.37 739.5 a2.13 2.13 0 1 0 4.26 0 a2.13 2.13 0 1 0 -4.26 0zM907.37 688.5 a2.13 2.13 0 1 0 4.26 0 a2.13 2.13 0 1 0 -4.26 0zM244.37 705.5 a2.13 2.13 0 1 0 4.26 0 a2.13 2.13 0 1 0 -4.26 0zM329.37 688.5 a2.13 2.13 0 1 0 4.26 0 a2.13 2.13 0 1 0 -4.26 0zM788.37 722.5 a2.13 2.13 0 1 0 4.26 0 a2.13 2.13 0 1 0 -4.26 0zM754.37 722.5 a2.13 2.13 0 1 0 4.26 0 a2.13 2.13 0 1 0 -4.26 0zM312.37 705.5 a2.13 2.13 0 1 0 4.26 0 a2.13 2.13 0 1 0 -4.26 0zM720.37 756.5 a2.13 2.13 0 1 0 4.26 0 a2.13 2.13 0 1 0 -4.26 0zM686.37 722.5 a2.13 2.13 0 1 0 4.26 0 a2.13 2.13 0 1 0 -4.26 0zM907.37 790.5 a2.13 2.13 0 1 0 4.26 0 a2.13 2.13 0 1 0 -4.26 0zM669.37 722.5 a2.13 2.13 0 1 0 4.26 0 a2.13 2.13 0 1 0 -4.26 0z" fill="black"></path><path d="M1111.37 144.5 a2.13 2.13 0 1 0 4.26 0 a2.13 2.13 0 1 0 -4.26 0zM941.37 127.5 a2.13 2.13 0 1 0 4.26 0 a2.13 2.13 0 1 0 -4.26 0zM669.37 144.5 a2.13 2.13 0 1 0 4.26 0 a2.13 2.13 0 1 0 -4.26 0zM1128.37 127.5 a2.13 2.13 0 1 0 4.26 0 a2.13 2.13 0 1 0 -4.26 0zM499.37 127.5 a2.13 2.13 0 1 0 4.26 0 a2.13 2.13 0 1 0 -4.26 0zM839.37 127.5 a2.13 2.13 0 1 0 4.26 0 a2.13 2.13 0 1 0 -4.26 0zM1043.37 127.5 a2.13 2.13 0 1 0 4.26 0 a2.13 2.13 0 1 0 -4.26 0zM533.37 161.5 a2.13 2.13 0 1 0 4.26 0 a2.13 2.13 0 1 0 -4.26 0zM516.37 161.5 a2.13 2.13 0 1 0 4.26 0 a2.13 2.13 0 1 0 -4.26 0zM737.37 127.5 a2.13 2.13 0 1 0 4.26 0 a2.13 2.13 0 1 0 -4.26 0zM57.37 229.5 a2.13 2.13 0 1 0 4.26 0 a2.13 2.13 0 1 0 -4.26 0zM618.37 144.5 a2.13 2.13 0 1 0 4.26 0 a2.13 2.13 0 1 0 -4.26 0zM754.37 161.5 a2.13 2.13 0 1 0 4.26 0 a2.13 2.13 0 1 0 -4.26 0zM720.37 110.5 a2.13 2.13 0 1 0 4.26 0 a2.13 2.13 0 1 0 -4.26 0zM1060.37 110.5 a2.13 2.13 0 1 0 4.26 0 a2.13 2.13 0 1 0 -4.26 0zM1026.37 93.5 a2.13 2.13 0 1 0 4.26 0 a2.13 2.13 0 1 0 -4.26 0zM1043.37 76.5 a2.13 2.13 0 1 0 4.26 0 a2.13 2.13 0 1 0 -4.26 0z" fill="black"></path><path d="M805.37 790.5 a2.13 2.13 0 1 0 4.26 0 a2.13 2.13 0 1 0 -4.26 0zM261.37 739.5 a2.13 2.13 0 1 0 4.26 0 a2.13 2.13 0 1 0 -4.26 0zM74.37 688.5 a2.13 2.13 0 1 0 4.26 0 a2.13 2.13 0 1 0 -4.26 0zM771.37 773.5 a2.13 2.13 0 1 0 4.26 0 a2.13 2.13 0 1 0 -4.26 0zM448.37 739.5 a2.13 2.13 0 1 0 4.26 0 a2.13 2.13 0 1 0 -4.26 0zM737.37 773.5 a2.13 2.13 0 1 0 4.26 0 a2.13 2.13 0 1 0 -4.26 0zM397.37 756.5 a2.13 2.13 0 1 0 4.26 0 a2.13 2.13 0 1 0 -4.26 0zM1043.37 824.5 a2.13 2.13 0 1 0 4.26 0 a2.13 2.13 0 1 0 -4.26 0zM108.37 688.5 a2.13 2.13 0 1 0 4.26 0 a2.13 2.13 0 1 0 -4.26 0zM584.37 756.5 a2.13 2.13 0 1 0 4.26 0 a2.13 2.13 0 1 0 -4.26 0zM227.37 705.5 a2.13 2.13 0 1 0 4.26 0 a2.13 2.13 0 1 0 -4.26 0zM856.37 824.5 a2.13 2.13 0 1 0 4.26 0 a2.13 2.13 0 1 0 -4.26 0zM703.37 773.5 a2.13 2.13 0 1 0 4.26 0 a2.13 2.13 0 1 0 -4.26 0z" fill="black"></path><path d="M380.37 161.5 a2.13 2.13 0 1 0 4.26 0 a2.13 2.13 0 1 0 -4.26 0zM176.37 178.5 a2.13 2.13 0 1 0 4.26 0 a2.13 2.13 0 1 0 -4.26 0zM295.37 161.5 a2.13 2.13 0 1 0 4.26 0 a2.13 2.13 0 1 0 -4.26 0zM295.37 144.5 a2.13 2.13 0 1 0 4.26 0 a2.13 2.13 0 1 0 -4.26 0zM74.37 178.5 a2.13 2.13 0 1 0 4.26 0 a2.13 2.13 0 1 0 -4.26 0zM210.37 178.5 a2.13 2.13 0 1 0 4.26 0 a2.13 2.13 0 1 0 -4.26 0zM125.37 161.5 a2.13 2.13 0 1 0 4.26 0 a2.13 2.13 0 1 0 -4.26 0z" fill="black"></path></mask></defs></svg>