<svg xmlns="http://www.w3.org/2000/svg" version="1.1" xmlns:xlink="http://www.w3.org/1999/xlink" xmlns:svgjs="http://svgjs.com/svgjs" width="1440" height="900" preserveAspectRatio="none" viewBox="0 0 1440 900"><g mask="url(&quot;#SvgjsMask1021&quot;)" fill="none"><rect width="1440" height="900" x="0" y="0" fill="#0e2a47"></rect><path d="M1075 627L1569 1121" stroke-width="10" stroke="url(#SvgjsLinearGradient1022)" stroke-linecap="round" class="BottomRight"></path><path d="M984 261L1225 502" stroke-width="8" stroke="url(#SvgjsLinearGradient1023)" stroke-linecap="round" class="TopLeft"></path><path d="M574 474L1005 905" stroke-width="8" stroke="url(#SvgjsLinearGradient1023)" stroke-linecap="round" class="TopLeft"></path><path d="M1189 649L701 161" stroke-width="6" stroke="url(#SvgjsLinearGradient1022)" stroke-linecap="round" class="BottomRight"></path><path d="M936 53L1407 524" stroke-width="6" stroke="url(#SvgjsLinearGradient1022)" stroke-linecap="round" class="BottomRight"></path><path d="M735 1L1330 596" stroke-width="6" stroke="url(#SvgjsLinearGradient1022)" stroke-linecap="round" class="BottomRight"></path><path d="M637 449L1070 882" stroke-width="10" stroke="url(#SvgjsLinearGradient1023)" stroke-linecap="round" class="TopLeft"></path><path d="M533 651L-43 75" stroke-width="10" stroke="url(#SvgjsLinearGradient1022)" stroke-linecap="round" class="BottomRight"></path><path d="M895 188L225 -482" stroke-width="8" stroke="url(#SvgjsLinearGradient1023)" stroke-linecap="round" class="TopLeft"></path><path d="M996 796L720 520" stroke-width="6" stroke="url(#SvgjsLinearGradient1022)" stroke-linecap="round" class="BottomRight"></path><path d="M404 518L905 1019" stroke-width="8" stroke="url(#SvgjsLinearGradient1022)" stroke-linecap="round" class="BottomRight"></path><path d="M87 300L-555 -342" stroke-width="6" stroke="url(#SvgjsLinearGradient1023)" stroke-linecap="round" class="TopLeft"></path><path d="M60 678L-495 123" stroke-width="10" stroke="url(#SvgjsLinearGradient1022)" stroke-linecap="round" class="BottomRight"></path><path d="M887 324L466 -97" stroke-width="6" stroke="url(#SvgjsLinearGradient1022)" stroke-linecap="round" class="BottomRight"></path><path d="M61 369L639 947" stroke-width="6" stroke="url(#SvgjsLinearGradient1022)" stroke-linecap="round" class="BottomRight"></path><path d="M756 109L1122 475" stroke-width="6" stroke="url(#SvgjsLinearGradient1022)" stroke-linecap="round" class="BottomRight"></path><path d="M199 703L641 1145" stroke-width="10" stroke="url(#SvgjsLinearGradient1023)" stroke-linecap="round" class="TopLeft"></path><path d="M1117 234L1460 577" stroke-width="6" stroke="url(#SvgjsLinearGradient1022)" stroke-linecap="round" class="BottomRight"></path><path d="M665 781L1059 1175" stroke-width="8" stroke="url(#SvgjsLinearGradient1022)" stroke-linecap="round" class="BottomRight"></path><path d="M766 489L458 181" stroke-width="6" stroke="url(#SvgjsLinearGradient1023)" stroke-linecap="round" class="TopLeft"></path><path d="M1264 817L956 509" stroke-width="10" stroke="url(#SvgjsLinearGradient1023)" stroke-linecap="round" class="TopLeft"></path><path d="M716 568L368 220" stroke-width="8" stroke="url(#SvgjsLinearGradient1022)" stroke-linecap="round" class="BottomRight"></path><path d="M1156 98L526 -532" stroke-width="10" stroke="url(#SvgjsLinearGradient1023)" stroke-linecap="round" class="TopLeft"></path><path d="M70 719L-596 53" stroke-width="8" stroke="url(#SvgjsLinearGradient1023)" stroke-linecap="round" class="TopLeft"></path><path d="M843 50L595 -198" stroke-width="8" stroke="url(#SvgjsLinearGradient1022)" stroke-linecap="round" class="BottomRight"></path><path d="M409 765L733 1089" stroke-width="10" stroke="url(#SvgjsLinearGradient1023)" stroke-linecap="round" class="TopLeft"></path><path d="M1345 708L1602 965" stroke-width="8" stroke="url(#SvgjsLinearGradient1023)" stroke-linecap="round" class="TopLeft"></path><path d="M192 718L-335 191" stroke-width="8" stroke="url(#SvgjsLinearGradient1022)" stroke-linecap="round" class="BottomRight"></path><path d="M1043 562L812 331" stroke-width="6" stroke="url(#SvgjsLinearGradient1023)" stroke-linecap="round" class="TopLeft"></path><path d="M435 562L997 1124" stroke-width="6" stroke="url(#SvgjsLinearGradient1022)" stroke-linecap="round" class="BottomRight"></path><path d="M89 54L-484 -519" stroke-width="8" stroke="url(#SvgjsLinearGradient1022)" stroke-linecap="round" class="BottomRight"></path><path d="M1017 338L1303 624" stroke-width="8" stroke="url(#SvgjsLinearGradient1022)" stroke-linecap="round" class="BottomRight"></path><path d="M690 175L1254 739" stroke-width="8" stroke="url(#SvgjsLinearGradient1023)" stroke-linecap="round" class="TopLeft"></path><path d="M234 721L832 1319" stroke-width="6" stroke="url(#SvgjsLinearGradient1022)" stroke-linecap="round" class="BottomRight"></path><path d="M912 589L388 65" stroke-width="8" stroke="url(#SvgjsLinearGradient1022)" stroke-linecap="round" class="BottomRight"></path><path d="M1157 140L554 -463" stroke-width="10" stroke="url(#SvgjsLinearGradient1022)" stroke-linecap="round" class="BottomRight"></path><path d="M481 368L868 755" stroke-width="8" stroke="url(#SvgjsLinearGradient1022)" stroke-linecap="round" class="BottomRight"></path><path d="M278 37L879 638" stroke-width="10" stroke="url(#SvgjsLinearGradient1022)" stroke-linecap="round" class="BottomRight"></path><path d="M709 761L246 298" stroke-width="6" stroke="url(#SvgjsLinearGradient1023)" stroke-linecap="round" class="TopLeft"></path><path d="M407 715L793 1101" stroke-width="10" stroke="url(#SvgjsLinearGradient1023)" stroke-linecap="round" class="TopLeft"></path><path d="M1069 187L797 -85" stroke-width="6" stroke="url(#SvgjsLinearGradient1022)" stroke-linecap="round" class="BottomRight"></path><path d="M356 616L-50 210" stroke-width="6" stroke="url(#SvgjsLinearGradient1023)" stroke-linecap="round" class="TopLeft"></path><path d="M1221 841L1868 1488" stroke-width="8" stroke="url(#SvgjsLinearGradient1022)" stroke-linecap="round" class="BottomRight"></path></g><defs><mask id="SvgjsMask1021"><rect width="1440" height="900" fill="#ffffff"></rect></mask><linearGradient x1="0%" y1="0%" x2="100%" y2="100%" id="SvgjsLinearGradient1022"><stop stop-color="rgba(28, 83, 142, 0)" offset="0"></stop><stop stop-color="#1c538e" offset="1"></stop></linearGradient><linearGradient x1="100%" y1="100%" x2="0%" y2="0%" id="SvgjsLinearGradient1023"><stop stop-color="rgba(28, 83, 142, 0)" offset="0"></stop><stop stop-color="#1c538e" offset="1"></stop></linearGradient></defs></svg>